<?xml version="1.0" encoding="UTF-8" standalone="no"?>
<svg
   width="512"
   height="512"
   viewBox="0 0 512 512"
   fill="none"
   version="1.1"
   id="svg14"
   sodipodi:docname="acter-logo.svg"
   inkscape:export-filename="logo.png"
   inkscape:export-xdpi="409.60001"
   inkscape:export-ydpi="409.60001"
   inkscape:version="1.2.2 (b0a8486541, 2022-12-01)"
   xmlns:inkscape="http://www.inkscape.org/namespaces/inkscape"
   xmlns:sodipodi="http://sodipodi.sourceforge.net/DTD/sodipodi-0.dtd"
   xmlns="http://www.w3.org/2000/svg"
   xmlns:svg="http://www.w3.org/2000/svg">
  <defs
     id="defs18" />
  <sodipodi:namedview
     id="namedview16"
     pagecolor="#ffffff"
     bordercolor="#999999"
     borderopacity="1"
     inkscape:showpageshadow="0"
     inkscape:pageopacity="0"
     inkscape:pagecheckerboard="0"
     inkscape:deskcolor="#d1d1d1"
     showgrid="false"
     inkscape:zoom="1.9666667"
     inkscape:cx="255.50847"
     inkscape:cy="254.74576"
     inkscape:window-width="2880"
     inkscape:window-height="1739"
     inkscape:window-x="0"
     inkscape:window-y="0"
     inkscape:window-maximized="1"
     inkscape:current-layer="layer2" />
  <g
     inkscape:groupmode="layer"
     id="layer2"
     inkscape:label="bg"
     style="display:inline">
    <rect
       style="fill:#1d293e;fill-opacity:1;stroke:#1d293e;stroke-width:4.086;stroke-linecap:round;stroke-linejoin:round;stroke-dasharray:none;stroke-opacity:1;paint-order:stroke fill markers"
       id="rect369"
       width="491.64209"
       height="488.93878"
       x="10.178952"
       y="11.530612"
       inkscape:label="rect369"
       ry="53.907398" />
  </g>
  <g
     inkscape:groupmode="layer"
     id="layer1"
     inkscape:label="icon">
    <g
       id="g2599"
       transform="matrix(3.4480594,0,0,3.5576061,49.116436,42.543527)">
      <path
         d="m 91.4462,31.181 c 0,16.0355 -13.6,29.181 -30.5609,29.181 -16.9608,0 -30.5609,-13.1455 -30.5609,-29.181 0,-16.0354 13.6001,-29.18094 30.5609,-29.18094 16.9609,0 30.5609,13.14554 30.5609,29.18094 z"
         stroke="#fbfbfb"
         stroke-width="4"
         id="path2" />
      <path
         d="M 91.4462,88.8191 C 91.4462,104.855 77.8462,118 60.8853,118 43.9245,118 30.3244,104.855 30.3244,88.8191 c 0,-16.0354 13.6001,-29.1809 30.5609,-29.1809 16.9609,0 30.5609,13.1455 30.5609,29.1809 z"
         stroke="#fbfbfb"
         stroke-width="4"
         id="path4" />
      <path
         d="m 118,73.5619 c 0,16.0355 -13.6,29.1811 -30.5609,29.1811 -16.9609,0 -30.5609,-13.1456 -30.5609,-29.1811 0,-16.0354 13.6,-29.1809 30.5609,-29.1809 C 104.4,44.381 118,57.5265 118,73.5619 Z"
         stroke="#fbfbfb"
         stroke-width="4"
         id="path6" />
      <path
         d="m 63.1218,73.5619 c 0,16.0355 -13.6,29.1811 -30.5609,29.1811 C 15.6001,102.743 2,89.5974 2,73.5619 2,57.5265 15.6001,44.381 32.5609,44.381 c 16.9609,0 30.5609,13.1455 30.5609,29.1809 z"
         stroke="#fbfbfb"
         stroke-width="4"
         id="path8" />
      <path
         d="m 118,48.1334 c 0,16.0355 -13.6,29.181 -30.5609,29.181 -16.9609,0 -30.5609,-13.1455 -30.5609,-29.181 0,-16.0354 13.6,-29.1809 30.5609,-29.1809 C 104.4,18.9525 118,32.098 118,48.1334 Z"
         stroke="#fbfbfb"
         stroke-width="4"
         id="path10" />
      <path
         d="m 63.1218,46.4382 c 0,16.0354 -13.6,29.1809 -30.5609,29.1809 C 15.6001,75.6191 2,62.4736 2,46.4382 2,30.4027 15.6001,17.2572 32.5609,17.2572 c 16.9609,0 30.5609,13.1455 30.5609,29.181 z"
         stroke="#fbfbfb"
         stroke-width="4"
         id="path12" />
    </g>
  </g>
</svg>
