<svg width="120" height="120" viewBox="0 0 120 120" fill="none" xmlns="http://www.w3.org/2000/svg">
<path d="M91.4462 31.181C91.4462 47.2165 77.8462 60.362 60.8853 60.362C43.9245 60.362 30.3244 47.2165 30.3244 31.181C30.3244 15.1456 43.9245 2.00006 60.8853 2.00006C77.8462 2.00006 91.4462 15.1456 91.4462 31.181Z" stroke="#FBFBFB" stroke-width="4"/>
<path d="M91.4462 88.8191C91.4462 104.855 77.8462 118 60.8853 118C43.9245 118 30.3244 104.855 30.3244 88.8191C30.3244 72.7837 43.9245 59.6382 60.8853 59.6382C77.8462 59.6382 91.4462 72.7837 91.4462 88.8191Z" stroke="#FBFBFB" stroke-width="4"/>
<path d="M118 73.5619C118 89.5974 104.4 102.743 87.4391 102.743C70.4782 102.743 56.8782 89.5974 56.8782 73.5619C56.8782 57.5265 70.4782 44.381 87.4391 44.381C104.4 44.381 118 57.5265 118 73.5619Z" stroke="#FBFBFB" stroke-width="4"/>
<path d="M63.1218 73.5619C63.1218 89.5974 49.5218 102.743 32.5609 102.743C15.6001 102.743 2 89.5974 2 73.5619C2 57.5265 15.6001 44.381 32.5609 44.381C49.5218 44.381 63.1218 57.5265 63.1218 73.5619Z" stroke="#FBFBFB" stroke-width="4"/>
<path d="M118 48.1334C118 64.1689 104.4 77.3144 87.4391 77.3144C70.4782 77.3144 56.8782 64.1689 56.8782 48.1334C56.8782 32.098 70.4782 18.9525 87.4391 18.9525C104.4 18.9525 118 32.098 118 48.1334Z" stroke="#FBFBFB" stroke-width="4"/>
<path d="M63.1218 46.4382C63.1218 62.4736 49.5218 75.6191 32.5609 75.6191C15.6001 75.6191 2 62.4736 2 46.4382C2 30.4027 15.6001 17.2572 32.5609 17.2572C49.5218 17.2572 63.1218 30.4027 63.1218 46.4382Z" stroke="#FBFBFB" stroke-width="4"/>
</svg>
