<svg width="51" height="51" viewBox="0 0 51 51" fill="none" xmlns="http://www.w3.org/2000/svg">
<path d="M3.625 11.5413V31.4163C3.625 33.527 4.46346 35.5513 5.95594 37.0437C7.44842 38.5362 9.47265 39.3747 11.5833 39.3747H15.5625V45.333L27.5833 39.3747H39.5208C41.6315 39.3747 43.6557 38.5362 45.1482 37.0437C46.6407 35.5513 47.4792 33.527 47.4792 31.4163V11.5413C47.4792 9.43066 46.6407 7.40643 45.1482 5.91395C43.6557 4.42147 41.6315 3.58301 39.5208 3.58301H11.5833C9.47265 3.58301 7.44842 4.42147 5.95594 5.91395C4.46346 7.40643 3.625 9.43066 3.625 11.5413Z" stroke="#C6C6C6" stroke-width="3" stroke-miterlimit="10"/>
<path d="M33.4585 21.4795H37.4377" stroke="#C6C6C6" stroke-width="3" stroke-miterlimit="10"/>
<path d="M23.521 21.4795H27.4793" stroke="#C6C6C6" stroke-width="3" stroke-miterlimit="10"/>
<path d="M13.5625 21.4795H17.5417" stroke="#C6C6C6" stroke-width="3" stroke-miterlimit="10"/>
</svg>
