<svg width="17" height="17" viewBox="0 0 17 17" fill="none" xmlns="http://www.w3.org/2000/svg">
<path d="M4.94487 2.125C5.10318 1.80592 5.34745 1.5374 5.65015 1.34967C5.95285 1.16195 6.30197 1.06249 6.65816 1.0625H10.3594C11.4161 1.0625 12.4295 1.48228 13.1768 2.2295C13.924 2.97671 14.3438 3.99015 14.3438 5.04688V12.1832C14.3439 12.5394 14.2444 12.8887 14.0567 13.1915C13.869 13.4943 13.6004 13.7386 13.2812 13.897V5.04688C13.2812 4.66317 13.2057 4.28322 13.0588 3.92872C12.912 3.57422 12.6968 3.25212 12.4255 2.9808C12.1541 2.70948 11.832 2.49425 11.4775 2.34741C11.123 2.20058 10.7431 2.125 10.3594 2.125H4.94487ZM4.64844 3.1875C4.12008 3.1875 3.61336 3.39739 3.23975 3.771C2.86614 4.14461 2.65625 4.65133 2.65625 5.17969V15.4062C2.65632 15.5044 2.68356 15.6006 2.73495 15.6841C2.78635 15.7677 2.85989 15.8355 2.94742 15.8798C3.03495 15.9241 3.13305 15.9434 3.23085 15.9354C3.32865 15.9274 3.42232 15.8924 3.50147 15.8344L7.191 13.1293L11.3985 15.8525C11.4787 15.9045 11.5715 15.9339 11.6671 15.9376C11.7626 15.9413 11.8574 15.9191 11.9414 15.8734C12.0254 15.8277 12.0955 15.7602 12.1443 15.678C12.1931 15.5957 12.2188 15.5019 12.2188 15.4062V5.17969C12.2188 4.65133 12.0089 4.14461 11.6353 3.771C11.2616 3.39739 10.7549 3.1875 10.2266 3.1875H4.64844ZM3.71875 5.17969C3.71875 4.66597 4.13525 4.25 4.64844 4.25H10.2266C10.7397 4.25 11.1562 4.66597 11.1562 5.17969V14.4298L7.46034 12.0381C7.36992 11.9798 7.2639 11.9502 7.15632 11.9535C7.04874 11.9567 6.94467 11.9925 6.85791 12.0562L3.71875 14.3576V5.17969Z" fill="white"/>
</svg>
