<svg fill="none" height="22" viewBox="0 0 22 22" width="22" xmlns="http://www.w3.org/2000/svg"><g stroke="#fefefe" stroke-linecap="round" stroke-linejoin="round" stroke-width="1.5"><path d="m6.19666 20.1668h9.60664c2.53 0 3.5384-1.5491 3.6575-3.4375l.4767-7.57164c.1283-1.98-1.4483-3.6575-3.4375-3.6575-.5592 0-1.0725-.32083-1.3292-.81583l-.66-1.32917c-.4216-.83416-1.5216-1.52166-2.4566-1.52166h-2.09921c-.94417 0-2.04417.6875-2.46583 1.52166l-.66 1.32917c-.25667.495-.77.81583-1.32917.81583-1.98917 0-3.56583 1.6775-3.4375 3.6575l.47667 7.57164c.11 1.8884 1.1275 3.4375 3.6575 3.4375z"/><path d="m9.625 7.3335h2.75"/><path d="m11 16.4998c1.6409 0 2.9792-1.3383 2.9792-2.9791 0-1.6409-1.3383-2.9792-2.9792-2.9792-1.64079 0-2.97913 1.3383-2.97913 2.9792 0 1.6408 1.33834 2.9791 2.97913 2.9791z"/></g></svg>