<svg fill="none" height="20" viewBox="0 0 20 20" width="20" xmlns="http://www.w3.org/2000/svg"><g stroke="#fff" stroke-linecap="round" stroke-linejoin="round" stroke-width="1.5"><path d="m9.16669 1.66699h-1.66667c-4.16667 0-5.83333 1.66667-5.83333 5.83334v4.99997c0 4.1667 1.66666 5.8334 5.83333 5.8334h4.99998c4.1667 0 5.8334-1.6667 5.8334-5.8334v-1.6666"/><g stroke-miterlimit="10"><path d="m13.3667 2.51639-6.56668 6.56667c-.25.25-.5.74166-.55 1.10004l-.35833 2.5083c-.13334.9083.50833 1.5417 1.41666 1.4167l2.50834-.3584c.35001-.05.84171-.3 1.10001-.55l6.5667-6.56664c1.1333-1.13334 1.6666-2.45 0-4.11667-1.6667-1.666668-2.9834-1.13333-4.1167 0z"/><path d="m12.425 3.45801c.5583 1.99166 2.1167 3.55 4.1167 4.11666"/></g></g></svg>