<svg width="20" height="20" viewBox="0 0 20 20" fill="none" xmlns="http://www.w3.org/2000/svg">
<path d="M9.85268 0.399902C7.41516 0.399902 5.07747 1.41133 3.35388 3.21168C1.63029 5.01203 0.661987 7.45382 0.661987 9.9999C0.66205 11.2606 0.899837 12.5089 1.36177 13.6736C1.8237 14.8383 2.50074 15.8966 3.35422 16.788C4.2077 17.6794 5.22091 18.3865 6.336 18.8688C7.45109 19.3512 8.64622 19.5995 9.85316 19.5994C11.0601 19.5993 12.2552 19.351 13.3703 18.8685C14.4853 18.386 15.4984 17.6788 16.3518 16.7873C17.2052 15.8958 17.8821 14.8375 18.344 13.6727C18.8058 12.508 19.0434 11.2596 19.0434 9.9989C19.0434 4.6979 14.9277 0.399902 9.85268 0.399902ZM9.85268 17.5989C8.89023 17.6104 7.93515 17.4224 7.04277 17.0456C6.15038 16.6689 5.33843 16.111 4.65393 15.4041C3.96944 14.6973 3.42601 13.8557 3.05512 12.9279C2.68423 12.0002 2.49326 11.0048 2.49326 9.9994C2.49326 8.99402 2.68423 7.99863 3.05512 7.07088C3.42601 6.14314 3.96944 5.30148 4.65393 4.59466C5.33843 3.88783 6.15038 3.32989 7.04277 2.95316C7.93515 2.57642 8.89023 2.38837 9.85268 2.3999C10.8151 2.38837 11.7702 2.57642 12.6626 2.95316C13.555 3.32989 14.3669 3.88783 15.0514 4.59466C15.7359 5.30148 16.2794 6.14314 16.6503 7.07088C17.0211 7.99863 17.2121 8.99402 17.2121 9.9994C17.2121 11.0048 17.0211 12.0002 16.6503 12.9279C16.2794 13.8557 15.7359 14.6973 15.0514 15.4041C14.3669 16.111 13.555 16.6689 12.6626 17.0456C11.7702 17.4224 10.8151 17.6104 9.85268 17.5989ZM7.46023 9.7499C8.25293 9.7499 8.89532 8.9669 8.89532 7.9999C8.89532 7.0329 8.25197 6.2499 7.45927 6.2499C6.66658 6.2499 6.02323 7.0329 6.02323 7.9999C6.02323 8.9669 6.66658 9.7499 7.46023 9.7499ZM12.2461 9.7499C13.0398 9.7499 13.6821 8.9669 13.6821 7.9999C13.6821 7.0329 13.0388 6.2499 12.2461 6.2499C11.4534 6.2499 10.81 7.0339 10.81 7.9999C10.81 8.9659 11.4534 9.7499 12.2461 9.7499ZM14.0086 11.3359C13.8396 11.2469 13.644 11.2305 13.4636 11.2903C13.2832 11.3501 13.1324 11.4814 13.0436 11.6559C13.011 11.7219 12.2116 13.2489 9.85364 13.2489C7.50714 13.2489 6.70296 11.7359 6.66275 11.6569C6.57667 11.4793 6.42659 11.3448 6.24553 11.2828C6.06446 11.2208 5.86724 11.2365 5.69725 11.3264C5.52725 11.4163 5.39842 11.5731 5.33908 11.7622C5.27974 11.9513 5.29476 12.1573 5.38084 12.3349C5.4287 12.4339 6.57563 14.7489 9.85364 14.7489C13.1326 14.7489 14.2776 12.4329 14.3245 12.3339C14.4089 12.1577 14.423 11.9538 14.3638 11.7668C14.3046 11.5798 14.1769 11.4248 14.0086 11.3359Z" fill="#FEFEFE"/>
</svg>
