<svg width="210" height="205" viewBox="0 0 210 205" fill="none" xmlns="http://www.w3.org/2000/svg">
<g clip-path="url(#clip0_9438_6740)">
<path d="M75.8894 37.97C75.8941 44.0909 74.4182 50.122 71.5877 55.5481C68.7573 60.9742 64.6566 65.634 59.6357 69.1296C58.2215 70.1201 56.7405 71.0115 55.2033 71.7975C54.6932 72.0593 54.1796 72.3081 53.6563 72.5438C53.1851 72.7599 52.7109 72.9628 52.23 73.1559C46.266 75.5725 39.7873 76.4375 33.3988 75.6699C32.2932 75.539 31.2017 75.359 30.1244 75.1298C30.0787 75.12 30.0295 75.1102 29.9838 75.1003C27.7278 74.6229 25.5211 73.9358 23.3926 73.0479C17.0471 70.4119 11.5357 66.1014 7.44651 60.5762C3.35735 55.051 0.84383 48.5185 0.174131 41.6757C-0.495569 34.8329 0.703682 27.9365 3.64393 21.7224C6.58418 15.5082 11.1551 10.2095 16.869 6.39153C22.5829 2.57356 29.2254 0.379596 36.0877 0.0437342C42.95 -0.292127 49.7748 1.24272 55.8337 4.4845C61.8926 7.72628 66.9584 12.5534 70.4905 18.4507C74.0227 24.3481 75.8887 31.0945 75.8894 37.97Z" fill="#122D46"/>
<path d="M44.9323 30.8829C44.8995 30.8436 44.8636 30.8076 44.8277 30.7716C42.8003 28.7231 40.0473 27.5577 37.1665 27.5282C34.2856 27.4988 31.5094 28.6078 29.4407 30.6145C29.4179 30.6341 29.3983 30.6538 29.3786 30.6734C29.3524 30.6963 29.3296 30.7192 29.3066 30.7422C28.2878 31.7591 27.4797 32.9673 26.9285 34.2975C26.3773 35.6277 26.0939 37.0536 26.0945 38.4936V45.3678C26.0951 45.7583 26.2503 46.1326 26.5263 46.4087C26.8022 46.6849 27.1762 46.8402 27.5664 46.8408H46.5384C46.9286 46.8402 47.3027 46.6849 47.5786 46.4087C47.8545 46.1326 48.0098 45.7583 48.0104 45.3678V38.4936C48.0131 35.6525 46.9089 32.9223 44.9323 30.8829Z" fill="#3A4D64"/>
<path d="M37.492 46.7727C41.929 46.7727 45.526 43.1732 45.526 38.7329C45.526 34.2926 41.929 30.693 37.492 30.693C33.0549 30.693 29.458 34.2926 29.458 38.7329C29.458 43.1732 33.0549 46.7727 37.492 46.7727Z" fill="#FFB7B7"/>
<path d="M45.9366 38.0488L44.988 31.4169C44.9587 31.2133 44.855 31.0278 44.6969 30.8964C44.6435 30.8536 44.5853 30.8173 44.5234 30.7884C39.6659 28.5133 34.7399 28.5133 29.8824 30.7818C29.8175 30.8118 29.757 30.8503 29.7023 30.8964C29.6829 30.9127 29.6632 30.9324 29.6436 30.952C29.5137 31.0862 29.433 31.2604 29.4145 31.4463L28.78 38.0881C28.7693 38.2016 28.7824 38.3162 28.8184 38.4244C28.8545 38.5326 28.9127 38.6321 28.9894 38.7166C29.1129 38.8527 29.279 38.9427 29.4604 38.9719C29.5045 38.9813 29.5495 38.9857 29.5945 38.985H31.2039C31.3595 38.9845 31.5117 38.9399 31.6431 38.8565C31.7745 38.7731 31.8796 38.6542 31.9464 38.5136L32.6431 37.0209C32.6877 36.9242 32.7626 36.8446 32.8565 36.7944C32.9504 36.7442 33.0581 36.726 33.1632 36.7427C33.2684 36.7594 33.3652 36.81 33.439 36.8868C33.5128 36.9636 33.5595 37.0624 33.572 37.1682L33.7094 38.2681C33.7349 38.4657 33.8312 38.6473 33.9804 38.7792C34.1296 38.911 34.3216 38.9842 34.5207 38.985H45.1286C45.2674 38.9857 45.404 38.9495 45.5244 38.8803C45.6082 38.8346 45.6834 38.7748 45.7469 38.7035C45.8235 38.6143 45.8801 38.5097 45.9129 38.3968C45.9456 38.2838 45.9537 38.1651 45.9366 38.0488Z" fill="#3A4D64"/>
<path d="M57.359 61.5028L59.6356 69.1299C58.2214 70.1204 56.7404 71.0118 55.2032 71.7977C54.6931 72.0596 54.1795 72.3084 53.6562 72.5441L51.2977 62.4259L50.3818 58.5011L56.2697 57.8464L57.359 61.5028Z" fill="#FFB7B7"/>
<path d="M30.2651 60.2356L30.0688 70.5403L29.9838 75.1002C27.7277 74.6227 25.5211 73.9356 23.3926 73.0477L24.1744 63.2864L24.3707 60.8248L30.2651 60.2356Z" fill="#FFB7B7"/>
<path d="M57.359 61.5023L51.445 62.3894L51.517 63.3616L52.23 73.1557C46.2659 75.5723 39.7872 76.4372 33.3987 75.6697C32.2931 75.5387 31.2017 75.3587 30.1243 75.1296C30.6084 73.0935 31.0272 71.2604 30.5104 70.9003C30.3546 70.7912 30.207 70.6708 30.0688 70.5402C27.658 68.239 28.5478 63.0441 28.5478 63.0441L24.1744 63.2864L22.6599 63.3714C22.6599 63.3714 23.3141 52.8965 26.258 52.8965H29.8562L47.1926 51.2598C47.1926 51.2598 52.0992 49.6231 53.4076 51.9145C54.0945 53.1158 55.3178 55.6626 56.3287 57.8165C57.2445 59.774 57.987 61.4074 57.987 61.4074L57.359 61.5023Z" fill="#3A4D64"/>
<path d="M209.999 38.3882C209.938 44.3841 208.457 50.28 205.677 55.592C202.898 60.904 198.899 65.4806 194.01 68.9463C193.925 69.0052 193.836 69.0674 193.748 69.1296C193.656 69.1951 193.562 69.2606 193.467 69.3228C192.917 69.7025 192.357 70.0658 191.785 70.4128C190.981 70.9038 190.157 71.3654 189.316 71.7975C189.29 71.8106 189.26 71.8237 189.234 71.8367C188.75 72.0855 188.261 72.3212 187.769 72.5438C187.752 72.5504 187.739 72.5569 187.723 72.5634C187.608 72.6158 187.487 72.6715 187.369 72.7206C186.457 73.1265 185.524 73.4964 184.576 73.8237C183.768 74.1085 182.948 74.3638 182.116 74.5897C180.415 75.0593 178.682 75.4072 176.932 75.6307C175.439 75.8228 173.936 75.9255 172.431 75.9384C172.306 75.9416 172.182 75.9416 172.058 75.9416C171.237 75.9416 170.419 75.9154 169.611 75.8631C168.904 75.8172 168.205 75.755 167.511 75.6699C166.441 75.5423 165.385 75.3721 164.345 75.1495C164.299 75.1429 164.253 75.1331 164.207 75.1233C164.171 75.1167 164.132 75.1069 164.096 75.1004C163.049 74.881 162.019 74.6126 161.008 74.3049C160.056 74.0169 159.122 73.6917 158.205 73.3294C157.969 73.2378 157.737 73.1461 157.505 73.0479C156.926 72.8057 156.354 72.5536 155.791 72.282C155.627 72.2067 155.467 72.1281 155.307 72.0495C154.764 71.7844 154.227 71.5062 153.704 71.2115C153.073 70.8613 152.452 70.4936 151.843 70.1084C151.074 69.6239 150.322 69.1133 149.592 68.5732C143.111 63.8081 138.311 57.1058 135.884 49.4333C133.456 41.7607 133.527 33.5149 136.087 25.8855C138.647 18.2561 143.562 11.6379 150.124 6.9857C156.687 2.33353 164.556 -0.111944 172.597 0.00216358C193.404 0.291386 210.224 17.5659 209.999 38.3882Z" fill="#122D46"/>
<path d="M164.096 75.1003C163.049 74.881 162.019 74.6126 161.008 74.3049L164.479 52.7691L168.074 52.6578L174.593 52.4516L177.936 52.3468C177.936 52.3468 180.307 62.7759 182.116 74.5896C180.415 75.0593 178.682 75.4071 176.932 75.6306C175.439 75.8227 173.936 75.9255 172.431 75.9383C172.306 75.9416 172.182 75.9416 172.058 75.9416C171.237 75.9416 170.419 75.9154 169.611 75.863C168.904 75.8172 168.205 75.755 167.511 75.6699C166.441 75.5422 165.385 75.372 164.345 75.1494C164.299 75.1429 164.253 75.133 164.207 75.1232C164.171 75.1167 164.132 75.1069 164.096 75.1003Z" fill="#FFB674"/>
<path d="M164.345 75.1492C164.299 75.1426 164.253 75.1328 164.207 75.123C164.171 75.1165 164.132 75.1066 164.096 75.1001C163.049 74.8808 162.019 74.6123 161.008 74.3046C160.056 74.0166 159.122 73.6914 158.205 73.3292C157.97 73.2375 157.737 73.1459 157.505 73.0477C156.926 72.8054 156.354 72.5534 155.791 72.2817C155.627 72.2064 155.467 72.1278 155.307 72.0493L155.019 55.9244L163.851 52.1371C163.851 52.1371 163.88 52.3728 168.074 52.6576C168.872 55.2632 164.345 75.1492 164.345 75.1492Z" fill="#3A4D64"/>
<path d="M190.742 55.1623L189.077 63.9186L189.234 71.837C188.75 72.0858 188.261 72.3215 187.768 72.5441C187.752 72.5506 187.739 72.5572 187.723 72.5637C187.608 72.6161 187.487 72.6718 187.369 72.7209C186.457 73.1268 185.524 73.4967 184.576 73.824C183.768 74.1088 182.948 74.3641 182.116 74.59C180.415 75.0596 178.682 75.4075 176.931 75.6309C175.439 75.8231 173.936 75.9258 172.43 75.9386L172.257 61.9055C171.891 57.3817 173.104 54.3897 174.593 52.4519C182.525 51.3913 182.348 51.2964 182.348 51.2964L190.758 55.0837L190.742 55.1623Z" fill="#3A4D64"/>
<path d="M158.803 57.1881L158.205 73.3293C157.969 73.2376 157.737 73.146 157.505 73.0478C156.926 72.8055 156.353 72.5535 155.791 72.2818C155.627 72.2065 155.467 72.128 155.306 72.0494C154.763 71.7842 154.227 71.506 153.704 71.2114C153.072 70.8611 152.452 70.4934 151.843 70.1082L155.019 55.9245L158.803 57.1881Z" fill="#3A4D64"/>
<path d="M194.01 68.9462C193.925 69.0051 193.836 69.0673 193.748 69.1295C193.657 69.195 193.562 69.2605 193.467 69.3227C192.917 69.7024 192.357 70.0657 191.785 70.4127C190.981 70.9037 190.158 71.3653 189.316 71.7974C189.29 71.8105 189.26 71.8235 189.234 71.8366C188.735 72.0929 188.232 72.3354 187.724 72.5639L187.723 72.5633L187.124 56.3665L190.742 55.1619L190.909 55.1062L194.01 68.9462Z" fill="#3A4D64"/>
<path d="M181.086 40.1731C182.54 35.211 179.709 30.0121 174.763 28.5611C169.818 27.11 164.63 29.9563 163.176 34.9184C161.722 39.8805 164.553 45.0794 169.499 46.5304C174.445 47.9815 179.632 45.1352 181.086 40.1731Z" fill="#9F616A"/>
<path d="M162.733 39.8931V36.2494C162.733 36.2494 159.796 32.7886 163.026 31.9168C163.026 31.9168 163.907 23.1991 171.542 27.2674C171.542 27.2674 182.112 25.5239 180.938 31.6262C180.938 31.6262 183.58 30.0331 182.7 34.1014L180.996 40.6546C180.996 40.6546 181.819 36.3257 179.176 35.7445L177.708 34.8728C177.708 34.8728 173.597 38.941 167.431 34.001C167.431 34.001 164.788 33.3698 165.082 35.9851C165.375 38.6004 162.733 39.8931 162.733 39.8931Z" fill="#3A4D64"/>
<path d="M142.946 152.54C142.95 158.66 141.474 164.691 138.644 170.118C135.813 175.544 131.713 180.204 126.692 183.699C126.6 183.765 126.505 183.83 126.411 183.892C125.861 184.272 125.3 184.635 124.729 184.982C123.925 185.473 123.101 185.935 122.259 186.367C121.749 186.629 121.236 186.878 120.712 187.113C120.581 187.172 120.447 187.234 120.313 187.29C119.401 187.696 118.468 188.066 117.52 188.393C115.042 189.263 112.48 189.868 109.875 190.2C108.259 190.408 106.631 190.512 105.002 190.511C104.181 190.511 103.363 190.485 102.555 190.433C101.848 190.387 101.148 190.325 100.455 190.239C99.3394 190.105 98.237 189.925 97.1511 189.693C97.1152 189.686 97.0759 189.676 97.0399 189.67C94.7838 189.192 92.5772 188.505 90.4487 187.617C89.8699 187.375 89.2974 187.123 88.7348 186.851C88.025 186.518 87.3293 186.161 86.6479 185.781C80.7911 182.543 75.8941 177.812 72.4533 172.069C69.0126 166.326 67.1505 159.775 67.0558 153.08C66.9611 146.384 68.6373 139.783 71.9142 133.945C75.1912 128.106 79.9525 123.239 85.7154 119.837C91.4783 116.434 98.0378 114.616 104.729 114.569C111.42 114.521 118.005 116.245 123.815 119.565C129.626 122.886 134.456 127.685 137.816 133.476C141.175 139.266 142.945 145.843 142.946 152.54Z" fill="#122D46"/>
<path d="M103.959 161.898C108.639 161.898 112.432 158.102 112.432 153.419C112.432 148.736 108.639 144.94 103.959 144.94C99.2798 144.94 95.4863 148.736 95.4863 153.419C95.4863 158.102 99.2798 161.898 103.959 161.898Z" fill="#FFB8B8"/>
<path d="M100.455 190.239C99.3394 190.105 98.237 189.925 97.1511 189.693L98.1815 166.491L98.3287 166.337L100.438 164.108H107.147L109.624 166.507L109.833 166.713L115.129 171.79L117.52 188.393C115.042 189.263 112.48 189.868 109.875 190.2C108.259 190.408 106.631 190.512 105.002 190.511C104.181 190.511 103.363 190.485 102.555 190.433C101.848 190.387 101.148 190.325 100.455 190.239Z" fill="#FF8775"/>
<path d="M88.7346 186.852C88.0248 186.518 87.3292 186.161 86.6477 185.781C86.579 179.496 86.5332 175.323 86.5332 175.323L87.3313 174.835C87.3408 174.83 87.3506 174.826 87.3607 174.822L96.4182 169.316L98.3187 166.226L98.3286 166.337L98.8879 172.851C100.572 178.606 101.798 184.485 102.555 190.433C101.848 190.387 101.148 190.325 100.455 190.24C99.3393 190.105 98.2369 189.925 97.151 189.693C97.115 189.686 97.0757 189.677 97.0398 189.67C94.7837 189.193 92.5771 188.505 90.4486 187.618C89.8697 187.375 89.2973 187.123 88.7346 186.852Z" fill="#3A4D64"/>
<path d="M117.52 188.393C115.042 189.263 112.48 189.869 109.876 190.2C109.515 188.088 109.382 185.942 109.48 183.801C110.186 172.498 108.557 166.226 109.264 166.226L109.624 166.507L114.069 170.023L119.921 172.17H119.924L123.951 173.647L124.661 173.909V174.246C124.664 175.411 124.67 179.49 124.729 184.983C123.925 185.474 123.101 185.935 122.26 186.367C121.749 186.629 121.236 186.878 120.713 187.114C120.582 187.172 120.448 187.235 120.313 187.29C119.401 187.696 118.469 188.066 117.52 188.393Z" fill="#3A4D64"/>
<path d="M95.9435 156.071C95.9435 156.071 96.6634 154.806 96.496 150.58C96.3287 146.353 102.76 148.744 108.134 148.341C113.508 147.937 112.37 155.397 112.37 155.397C112.37 155.397 112.758 154.953 113.588 151.353C114.418 147.753 112.533 144.165 112.533 144.165C111.978 140.382 108.987 141.595 108.987 141.595C110.428 142.156 110.151 143.356 110.151 143.356C108.931 141.217 105.94 142.429 105.94 142.429C101.95 139.924 97.9068 143.223 97.9068 143.223C93.087 144.318 95.9136 148.153 95.9136 148.153C91.0666 150.605 95.9435 156.071 95.9435 156.071Z" fill="#3A4D64"/>
<path d="M82.5364 183.143C82.6608 180.265 82.7164 178.409 82.6509 178.151C82.3141 176.802 86.9131 174.995 87.3318 174.835C87.3413 174.83 87.3511 174.826 87.3611 174.822L88.2968 175.323L88.735 186.852C88.0253 186.518 87.3296 186.161 86.6482 185.781C85.222 184.992 83.8485 184.11 82.5364 183.143Z" fill="#3A4D64"/>
<path d="M124.729 184.983C123.925 185.474 123.102 185.935 122.26 186.367C121.75 186.629 121.236 186.878 120.713 187.114C120.582 187.172 120.448 187.235 120.314 187.29L118.842 172.746L119.702 172.118C119.702 172.118 119.78 172.138 119.921 172.17H119.924C120.614 172.341 122.734 172.904 123.951 173.647C124.223 173.801 124.463 174.004 124.661 174.246C124.781 174.39 124.841 174.575 124.827 174.763C124.788 175.143 125.443 178.743 126.411 183.892C125.861 184.272 125.301 184.636 124.729 184.983Z" fill="#3A4D64"/>
<path d="M51.6891 160.275H37.6184V97.1491H38.2726V159.621H51.6891V160.275Z" fill="#3A4D64"/>
<path d="M172.388 160.276H158.317V159.621H171.733V96.5641H172.388V160.276Z" fill="#3A4D64"/>
<path d="M37.258 90.7742C45.1147 90.7742 51.4838 84.4051 51.4838 76.5484C51.4838 68.6917 45.1147 62.3226 37.258 62.3226C29.4013 62.3226 23.0322 68.6917 23.0322 76.5484C23.0322 84.4051 29.4013 90.7742 37.258 90.7742Z" fill="#F79B43"/>
<path d="M171.387 90.7742C179.244 90.7742 185.613 84.4051 185.613 76.5484C185.613 68.6917 179.244 62.3226 171.387 62.3226C163.53 62.3226 157.161 68.6917 157.161 76.5484C157.161 84.4051 163.53 90.7742 171.387 90.7742Z" fill="#F79B43"/>
<path d="M103.645 204.581C111.502 204.581 117.871 198.212 117.871 190.355C117.871 182.498 111.502 176.129 103.645 176.129C95.7885 176.129 89.4194 182.498 89.4194 190.355C89.4194 198.212 95.7885 204.581 103.645 204.581Z" fill="#F79B43"/>
<path d="M32.4621 70.4515L31.1614 71.7522L42.0545 82.6454L43.3552 81.3447L32.4621 70.4515Z" fill="white"/>
<path d="M166.591 70.4515L165.29 71.7522L176.183 82.6454L177.484 81.3447L166.591 70.4515Z" fill="white"/>
<path d="M98.849 184.258L97.5483 185.559L108.441 196.452L109.742 195.151L98.849 184.258Z" fill="white"/>
<path d="M43.3549 71.7525L42.0542 70.4518L31.1611 81.3449L32.4617 82.6456L43.3549 71.7525Z" fill="white"/>
<path d="M177.484 71.7525L176.183 70.4518L165.29 81.3449L166.591 82.6456L177.484 71.7525Z" fill="white"/>
<path d="M109.742 185.559L108.441 184.258L97.5483 195.151L98.8489 196.452L109.742 185.559Z" fill="white"/>
<path d="M79.8147 35.1876H130.352" stroke="#3A4D64" stroke-width="0.5"/>
</g>
<defs>
<clipPath id="clip0_9438_6740">
<rect width="210" height="204.581" fill="white"/>
</clipPath>
</defs>
</svg>
