<svg width="210" height="205" viewBox="0 0 210 205" fill="none" xmlns="http://www.w3.org/2000/svg">
<g clip-path="url(#clip0_9438_6815)">
<path d="M133.317 46.1006H76.7307C75.4412 46.1022 74.205 46.6151 73.2932 47.527C72.3814 48.4388 71.8684 49.675 71.8668 50.9645V176.727L71.2183 176.925L57.3369 181.176C56.679 181.377 55.9684 181.308 55.3611 180.985C54.7538 180.662 54.2994 180.112 54.0977 179.454L12.8068 44.5799C12.6059 43.922 12.6743 43.2112 12.9972 42.6038C13.3201 41.9964 13.8709 41.542 14.5286 41.3406L35.9199 34.7906L97.9338 15.8086L119.325 9.25865C119.65 9.15846 119.993 9.12345 120.332 9.15563C120.671 9.1878 121 9.28652 121.301 9.44615C121.602 9.60577 121.868 9.82316 122.085 10.0859C122.302 10.3486 122.465 10.6515 122.564 10.9772L133.119 45.4521L133.317 46.1006Z" fill="#2C3A4C"/>
<path d="M145.664 45.452L132.944 3.90184C132.732 3.20954 132.386 2.56573 131.926 2.00719C131.465 1.44865 130.899 0.986334 130.26 0.646662C129.62 0.30699 128.92 0.0966141 128.2 0.0275641C127.479 -0.0414858 126.752 0.0321432 126.06 0.244236L95.9851 9.44987L33.9745 28.4351L3.89972 37.6439C2.5026 38.0729 1.33278 39.0388 0.647023 40.3294C-0.0387334 41.62 -0.184398 43.13 0.24201 44.5279L43.7183 186.529C44.0647 187.658 44.7636 188.646 45.7125 189.348C46.6615 190.05 47.8104 190.429 48.9908 190.43C49.5371 190.43 50.0803 190.348 50.6022 190.187L71.2185 183.877L71.867 183.676V182.998L71.2185 183.196L50.411 189.568C49.1778 189.944 47.8458 189.815 46.7073 189.21C45.5687 188.605 44.7165 187.574 44.3377 186.341L0.864714 44.3366C0.676999 43.726 0.611576 43.0844 0.672187 42.4484C0.732799 41.8125 0.918251 41.1948 1.21793 40.6306C1.51762 40.0665 1.92565 39.567 2.41865 39.1608C2.91164 38.7546 3.47993 38.4496 4.09097 38.2633L34.1657 29.0544L96.1765 10.0724L126.251 0.863572C126.715 0.722131 127.197 0.650013 127.681 0.649561C128.721 0.651896 129.733 0.987163 130.569 1.60625C131.404 2.22535 132.02 3.09573 132.325 4.08992L144.987 45.452L145.188 46.1005H145.862L145.664 45.452Z" fill="#BBC7DB"/>
<path d="M39.7801 41.4465C39.1551 41.446 38.5467 41.2453 38.0442 40.8738C37.5417 40.5022 37.1714 39.9794 36.9878 39.382L32.8113 25.74C32.699 25.3736 32.6601 24.9886 32.6967 24.6071C32.7332 24.2256 32.8446 23.855 33.0244 23.5166C33.2042 23.1781 33.4489 22.8784 33.7446 22.6345C34.0402 22.3907 34.381 22.2074 34.7475 22.0953L91.7968 4.62963C92.5368 4.4038 93.3363 4.48082 94.0196 4.84379C94.703 5.20676 95.2144 5.82603 95.4416 6.56567L99.6182 20.2079C99.8439 20.9479 99.7668 21.7473 99.4038 22.4306C99.0409 23.1139 98.4217 23.6254 97.6821 23.8527L40.6327 41.3184C40.3564 41.4032 40.0691 41.4463 39.7801 41.4465Z" fill="#F79B43"/>
<path d="M61.6585 14.5767C65.2401 14.5767 68.1436 11.6732 68.1436 8.09157C68.1436 4.50993 65.2401 1.60645 61.6585 1.60645C58.0768 1.60645 55.1733 4.50993 55.1733 8.09157C55.1733 11.6732 58.0768 14.5767 61.6585 14.5767Z" fill="#F79B43"/>
<path d="M61.6583 12.1985C63.9263 12.1985 65.7649 10.3599 65.7649 8.09193C65.7649 5.82393 63.9263 3.98535 61.6583 3.98535C59.3903 3.98535 57.5518 5.82393 57.5518 8.09193C57.5518 10.3599 59.3903 12.1985 61.6583 12.1985Z" fill="white"/>
<path d="M195.408 188.774H85.8099C85.0792 188.773 84.3786 188.482 83.8619 187.965C83.3452 187.449 83.0546 186.748 83.0537 186.017V54.6937C83.0545 53.9629 83.3452 53.2624 83.8619 52.7457C84.3786 52.229 85.0792 51.9383 85.8099 51.9375H195.408C196.139 51.9383 196.84 52.229 197.356 52.7457C197.873 53.2624 198.164 53.963 198.165 54.6937V186.017C198.164 186.748 197.873 187.449 197.356 187.965C196.84 188.482 196.139 188.773 195.408 188.774Z" fill="#4B607B"/>
<path d="M144.987 45.4521H76.7309C75.2695 45.4542 73.8686 46.0356 72.8353 47.069C71.802 48.1023 71.2206 49.5032 71.2185 50.9645V183.196L71.867 182.998V50.9645C71.8686 49.675 72.3815 48.4388 73.2933 47.527C74.2051 46.6152 75.4414 46.1022 76.7309 46.1007H145.188L144.987 45.4521ZM204.488 45.4521H76.7309C75.2695 45.4542 73.8686 46.0356 72.8353 47.069C71.802 48.1023 71.2206 49.5032 71.2185 50.9645V199.474C71.2206 200.935 71.802 202.336 72.8353 203.369C73.8686 204.403 75.2695 204.984 76.7309 204.986H204.488C205.949 204.984 207.35 204.403 208.383 203.369C209.417 202.336 209.998 200.935 210 199.474V50.9645C209.998 49.5032 209.417 48.1023 208.383 47.069C207.35 46.0356 205.949 45.4542 204.488 45.4521ZM209.352 199.474C209.35 200.763 208.837 202 207.925 202.911C207.013 203.823 205.777 204.336 204.488 204.338H76.7309C75.4414 204.336 74.2051 203.823 73.2933 202.911C72.3815 202 71.8686 200.763 71.867 199.474V50.9645C71.8686 49.675 72.3815 48.4388 73.2933 47.527C74.2051 46.6152 75.4414 46.1022 76.7309 46.1007H204.488C205.777 46.1022 207.013 46.6152 207.925 47.527C208.837 48.4388 209.35 49.675 209.352 50.9645V199.474Z" fill="#BBC7DB"/>
<path d="M170.441 59.7196H110.778C110.004 59.7187 109.262 59.411 108.715 58.8639C108.168 58.3168 107.86 57.575 107.859 56.8013V42.534C107.86 41.7603 108.168 41.0185 108.715 40.4714C109.262 39.9243 110.004 39.6166 110.778 39.6157H170.441C171.215 39.6166 171.956 39.9243 172.503 40.4714C173.05 41.0185 173.358 41.7603 173.359 42.534V56.8013C173.358 57.575 173.05 58.3168 172.503 58.8639C171.956 59.411 171.215 59.7187 170.441 59.7196Z" fill="#F79B43"/>
<path d="M140.609 40.5884C144.191 40.5884 147.094 37.6849 147.094 34.1033C147.094 30.5217 144.191 27.6182 140.609 27.6182C137.028 27.6182 134.124 30.5217 134.124 34.1033C134.124 37.6849 137.028 40.5884 140.609 40.5884Z" fill="#F79B43"/>
<path d="M140.609 38.0534C142.791 38.0534 144.559 36.2849 144.559 34.1034C144.559 31.9218 142.791 30.1533 140.609 30.1533C138.428 30.1533 136.659 31.9218 136.659 34.1034C136.659 36.2849 138.428 38.0534 140.609 38.0534Z" fill="white"/>
</g>
<defs>
<clipPath id="clip0_9438_6815">
<rect width="210" height="204.986" fill="white"/>
</clipPath>
</defs>
</svg>
