<svg width="210" height="158" viewBox="0 0 210 158" fill="none" xmlns="http://www.w3.org/2000/svg">
<path d="M27.8972 0C27.1291 0.000901698 26.3927 0.30643 25.8496 0.84956C25.3064 1.39269 25.0009 2.12907 25 2.89718V35.1039C25.0009 35.872 25.3064 36.6084 25.8496 37.1515C26.3927 37.6947 27.1291 38.0002 27.8972 38.0011H182.103C182.871 38.0002 183.607 37.6947 184.15 37.1515C184.694 36.6084 184.999 35.872 185 35.1039V2.89718C184.999 2.12907 184.694 1.39269 184.15 0.84956C183.607 0.30643 182.871 0.000901698 182.103 0H27.8972Z" fill="#3A4D64"/>
<path d="M28.9391 2.25903C28.4937 2.25948 28.0667 2.43658 27.7517 2.75149C27.4368 3.06639 27.2596 3.49339 27.259 3.93877V34.0621C27.2596 34.5074 27.4368 34.9344 27.7517 35.2493C28.0667 35.5642 28.4937 35.7413 28.9391 35.7418H181.061C181.507 35.7413 181.933 35.5642 182.248 35.2493C182.563 34.9343 182.74 34.5074 182.741 34.0621V3.93877C182.74 3.49345 182.563 3.06648 182.248 2.75157C181.933 2.43665 181.507 2.25952 181.061 2.25903H28.9391Z" fill="#122D46"/>
<path d="M171.511 27.4812C172.235 27.4818 172.929 27.195 173.441 26.6839C173.954 26.1728 174.242 25.4792 174.243 24.7556C174.244 24.032 173.957 23.3376 173.447 22.8251C172.936 22.3126 172.242 22.024 171.519 22.0226C171.516 22.0226 171.514 22.0226 171.511 22.0226H42.8428C42.1196 22.0236 41.4264 22.3117 40.9154 22.8234C40.4044 23.3351 40.1174 24.0287 40.1174 24.7519C40.1174 25.4751 40.4044 26.1687 40.9154 26.6804C41.4264 27.1922 42.1196 27.4802 42.8428 27.4812H171.511Z" fill="#3A4D64"/>
<path d="M98.2074 15.6231C98.5661 15.6236 98.9215 15.5534 99.2531 15.4165C99.5847 15.2795 99.886 15.0786 100.14 14.8251C100.394 14.5716 100.595 14.2705 100.733 13.9391C100.87 13.6077 100.941 13.2525 100.941 12.8938C100.941 12.535 100.87 12.1798 100.733 11.8484C100.595 11.517 100.394 11.2159 100.14 10.9624C99.886 10.7089 99.5847 10.508 99.2531 10.371C98.9215 10.2341 98.5661 10.1639 98.2074 10.1644H42.841C42.4822 10.1639 42.1269 10.2341 41.7953 10.371C41.4637 10.508 41.1623 10.7089 40.9085 10.9624C40.6546 11.2159 40.4532 11.517 40.3158 11.8484C40.1784 12.1798 40.1077 12.535 40.1077 12.8938C40.1077 13.2525 40.1784 13.6077 40.3158 13.9391C40.4532 14.2705 40.6546 14.5716 40.9085 14.8251C41.1623 15.0786 41.4637 15.2795 41.7953 15.4165C42.1269 15.5534 42.4822 15.6236 42.841 15.6231H98.2074Z" fill="#1A446C"/>
<path d="M7.34132 56.6748C6.35048 56.676 5.40056 57.0701 4.69994 57.7707C3.99931 58.4713 3.60517 59.4213 3.604 60.4121V101.958C3.60517 102.949 3.99931 103.899 4.69994 104.599C5.40056 105.3 6.35048 105.694 7.34132 105.695H206.263C207.254 105.694 208.203 105.3 208.904 104.599C209.605 103.899 209.999 102.949 210 101.958V60.4121C209.999 59.4213 209.605 58.4714 208.904 57.7707C208.203 57.0701 207.254 56.676 206.263 56.6748L7.34132 56.6748Z" fill="#3A4D64"/>
<path d="M8.68261 59.5907C8.10807 59.5913 7.55722 59.8197 7.15092 60.226C6.74462 60.6322 6.51607 61.183 6.51538 61.7575V100.616C6.51608 101.19 6.74464 101.741 7.15092 102.147C7.5572 102.554 8.10802 102.782 8.68255 102.783H204.916C205.491 102.782 206.042 102.554 206.448 102.147C206.854 101.741 207.082 101.19 207.083 100.616V61.7575C207.082 61.1831 206.854 60.6323 206.448 60.2261C206.042 59.8198 205.491 59.5913 204.916 59.5907H8.68261Z" fill="#122D46"/>
<path d="M192.596 92.1271C193.528 92.1248 194.42 91.7535 195.078 91.0945C195.737 90.4355 196.107 89.5425 196.108 88.6111C196.109 87.6796 195.742 86.7857 195.085 86.1249C194.429 85.4641 193.537 85.0904 192.606 85.0856C192.603 85.0856 192.599 85.0856 192.596 85.0856H26.6171C25.6858 85.0894 24.7939 85.462 24.1368 86.1218C23.4796 86.7817 23.1106 87.675 23.1106 88.6063C23.1106 89.5376 23.4796 90.431 24.1368 91.0908C24.7939 91.7507 25.6858 92.1233 26.6171 92.1271H192.596Z" fill="#3A4D64"/>
<path d="M98.0394 76.8311C98.5021 76.8316 98.9604 76.741 99.388 76.5643C99.8157 76.3876 100.204 76.1284 100.532 75.8014C100.859 75.4744 101.119 75.0861 101.296 74.6586C101.473 74.2312 101.564 73.773 101.564 73.3103C101.564 72.8476 101.473 72.3894 101.296 71.962C101.119 71.5345 100.859 71.1462 100.532 70.8192C100.204 70.4922 99.8157 70.233 99.388 70.0563C98.9604 69.8796 98.5021 69.789 98.0394 69.7896H26.6181C26.1554 69.789 25.6971 69.8796 25.2695 70.0563C24.8418 70.233 24.4532 70.4922 24.1258 70.8192C23.7984 71.1462 23.5386 71.5345 23.3614 71.962C23.1842 72.3894 23.093 72.8476 23.093 73.3103C23.093 73.773 23.1842 74.2312 23.3614 74.6586C23.5386 75.0861 23.7984 75.4744 24.1258 75.8014C24.4532 76.1284 24.8418 76.3876 25.2695 76.5643C25.6971 76.741 26.1554 76.8316 26.6181 76.8311H98.0394Z" fill="#1A446C"/>
<path d="M27.8972 119.695C27.1291 119.696 26.3927 120.002 25.8496 120.545C25.3064 121.088 25.0009 121.824 25 122.592V154.799C25.0009 155.567 25.3064 156.304 25.8496 156.847C26.3927 157.39 27.1291 157.696 27.8972 157.696H182.103C182.871 157.696 183.607 157.39 184.15 156.847C184.694 156.304 184.999 155.567 185 154.799V122.592C184.999 121.824 184.694 121.088 184.15 120.545C183.607 120.002 182.871 119.696 182.103 119.695H27.8972Z" fill="#3A4D64"/>
<path d="M28.9391 121.954C28.4937 121.955 28.0667 122.132 27.7517 122.447C27.4368 122.762 27.2596 123.189 27.259 123.634V153.757C27.2596 154.203 27.4368 154.63 27.7517 154.945C28.0667 155.26 28.4937 155.437 28.9391 155.437H181.061C181.507 155.437 181.933 155.259 182.248 154.945C182.563 154.63 182.74 154.203 182.741 153.757V123.634C182.74 123.189 182.563 122.762 182.248 122.447C181.933 122.132 181.507 121.955 181.061 121.954H28.9391Z" fill="#122D46"/>
<path d="M171.511 147.177C172.235 147.177 172.929 146.89 173.441 146.379C173.954 145.868 174.242 145.175 174.243 144.451C174.244 143.727 173.957 143.033 173.447 142.52C172.936 142.008 172.242 141.719 171.519 141.718C171.516 141.718 171.514 141.718 171.511 141.718H42.8428C42.1196 141.719 41.4264 142.007 40.9154 142.519C40.4044 143.03 40.1174 143.724 40.1174 144.447C40.1174 145.17 40.4044 145.864 40.9154 146.376C41.4264 146.887 42.1196 147.176 42.8428 147.177H171.511Z" fill="#3A4D64"/>
<path d="M98.2074 135.318C98.5661 135.319 98.9215 135.249 99.2531 135.112C99.5847 134.975 99.886 134.774 100.14 134.52C100.394 134.267 100.595 133.966 100.733 133.634C100.87 133.303 100.941 132.948 100.941 132.589C100.941 132.23 100.87 131.875 100.733 131.544C100.595 131.212 100.394 130.911 100.14 130.658C99.886 130.404 99.5847 130.203 99.2531 130.066C98.9215 129.929 98.5661 129.859 98.2074 129.86H42.841C42.4822 129.859 42.1269 129.929 41.7953 130.066C41.4637 130.203 41.1623 130.404 40.9085 130.658C40.6546 130.911 40.4532 131.212 40.3158 131.544C40.1784 131.875 40.1077 132.23 40.1077 132.589C40.1077 132.948 40.1784 133.303 40.3158 133.634C40.4532 133.966 40.6546 134.267 40.9085 134.52C41.1623 134.774 41.4637 134.975 41.7953 135.112C42.1269 135.249 42.4822 135.319 42.841 135.318H98.2074Z" fill="#1A446C"/>
</svg>
