<svg width="185" height="155" viewBox="0 0 185 155" fill="none" xmlns="http://www.w3.org/2000/svg">
<path d="M86.895 155C127.246 155 159.957 153.323 159.957 151.256C159.957 149.188 127.246 147.512 86.895 147.512C46.5438 147.512 13.8327 149.188 13.8327 151.256C13.8327 153.323 46.5438 155 86.895 155Z" fill="#2F313E"/>
<path d="M129.322 35.9729H128.492V13.1876C128.492 9.69001 127.106 6.3357 124.638 3.86255C122.17 1.38941 118.823 3.86156e-06 115.333 0H67.1599C63.6697 -6.61977e-06 60.3224 1.38938 57.8545 3.86252C55.3865 6.33566 54 9.68996 54 13.1875V138.19C54 141.687 55.3865 145.042 57.8544 147.515C60.3224 149.988 63.6697 151.377 67.1599 151.377H115.333C118.823 151.377 122.17 149.988 124.638 147.515C127.106 145.042 128.492 141.687 128.492 138.19V52.1919H129.322L129.322 35.9729Z" fill="#2F313E"/>
<path d="M125.95 13.2794V138.098C125.95 140.71 124.915 143.215 123.071 145.062C121.228 146.909 118.729 147.947 116.122 147.947H67.7182C65.1116 147.947 62.6118 146.909 60.7687 145.062C58.9256 143.215 57.8901 140.71 57.8901 138.098V13.2794C57.8901 10.6674 58.9256 8.16235 60.7687 6.31536C62.6119 4.46836 65.1116 3.43071 67.7182 3.43066H73.5902C73.3016 4.14118 73.1918 4.91187 73.2702 5.67493C73.3486 6.43799 73.613 7.17005 74.04 7.8067C74.4671 8.44334 75.0437 8.96508 75.7191 9.32601C76.3946 9.68694 77.1482 9.876 77.9137 9.87657H105.511C106.277 9.87599 107.03 9.68693 107.706 9.326C108.381 8.96507 108.958 8.44333 109.385 7.80668C109.812 7.17004 110.076 6.43799 110.155 5.67493C110.233 4.91187 110.123 4.14118 109.835 3.43066H116.122C118.729 3.43071 121.228 4.46836 123.071 6.31536C124.915 8.16235 125.95 10.6674 125.95 13.2794V13.2794Z" fill="#292D32"/>
<path d="M110.357 67.1002C110.035 67.2687 109.708 67.4282 109.375 67.5786C109.072 67.7159 108.764 67.8449 108.451 67.9655C108.337 68.0092 108.221 68.0529 108.105 68.0965C107.186 68.4305 106.242 68.6913 105.282 68.8765C104.806 68.9701 104.325 69.0436 103.837 69.097C103.434 69.1428 103.028 69.1754 102.617 69.1948C102.324 69.2093 102.031 69.2156 101.737 69.2156C100.569 69.216 99.4047 69.1067 98.2578 68.889C97.9589 68.8349 97.6663 68.7704 97.3736 68.6997C95.9579 68.3597 94.5874 67.8529 93.2908 67.1897C93.1746 67.1314 93.0583 67.069 92.9421 67.0087C92.7698 66.9172 92.6017 66.8215 92.4336 66.7217C92.5145 66.6093 92.6017 66.4991 92.6909 66.3909C93.6622 65.1848 94.8762 64.1972 96.2538 63.4927C97.6314 62.7882 99.1417 62.3824 100.686 62.302C102.231 62.2215 103.775 62.4681 105.218 63.0257C106.661 63.5833 107.971 64.4394 109.061 65.5381C109.44 65.9189 109.791 66.3262 110.112 66.757C110.197 66.8693 110.278 66.9837 110.357 67.1002Z" fill="#EC2758"/>
<path d="M102.151 57.9637C107.184 57.9637 111.265 53.8746 111.265 48.8305C111.265 43.7863 107.184 39.6973 102.151 39.6973C97.1173 39.6973 93.0368 43.7863 93.0368 48.8305C93.0368 53.8746 97.1173 57.9637 102.151 57.9637Z" fill="#2F313E"/>
<path d="M104.575 57.9772C107.862 56.1765 109.07 52.0463 107.273 48.7521C105.476 45.458 101.355 44.2473 98.0675 46.0481C94.7803 47.8488 93.5722 51.979 95.3691 55.2732C97.1661 58.5673 101.288 59.778 104.575 57.9772Z" fill="#A0616A"/>
<path d="M108.449 47.7368C106.899 48.8074 105.059 49.3772 103.176 49.3696C103.848 49.8362 104.612 50.1514 105.417 50.2935C102.914 50.8315 100.327 50.8461 97.8183 50.3362C97.2607 50.2466 96.7225 50.0614 96.2276 49.7887C95.981 49.6507 95.7661 49.4622 95.5969 49.2355C95.4277 49.0088 95.3081 48.7489 95.2457 48.4728C95.079 47.5184 95.8211 46.6513 96.5924 46.0669C97.7732 45.1858 99.1347 44.5788 100.578 44.2897C102.022 44.0006 103.512 44.0367 104.94 44.3953C105.872 44.6369 106.806 45.045 107.412 45.7954C108.018 46.5458 108.197 47.7027 107.62 48.4754L108.449 47.7368Z" fill="#2F313E"/>
<path d="M101.737 31.7764C97.6625 31.7758 93.7 33.11 90.453 35.5757C87.206 38.0415 84.8525 41.5035 83.7512 45.4341C82.65 49.3647 82.8613 53.5483 84.3531 57.3473C85.845 61.1464 88.5354 64.3524 92.0143 66.4769L92.1347 66.5476C92.2344 66.608 92.334 66.6662 92.4336 66.7223C92.6018 66.8222 92.7698 66.9179 92.9421 67.0094C93.0583 67.0697 93.1746 67.1321 93.2908 67.1903C94.5874 67.8535 95.9579 68.3604 97.3736 68.7004C97.6663 68.7711 97.9589 68.8356 98.2578 68.8897C99.4047 69.1074 100.569 69.2167 101.737 69.2163C102.031 69.2163 102.324 69.21 102.617 69.1955C103.028 69.1767 103.434 69.1442 103.837 69.0977C104.325 69.0436 104.806 68.9701 105.282 68.8772C106.242 68.692 107.186 68.4312 108.105 68.0972C108.221 68.0535 108.337 68.0099 108.451 67.9662C108.765 67.8455 109.072 67.7166 109.375 67.5793C109.707 67.4295 110.034 67.2701 110.357 67.1009C113.588 65.4051 116.259 62.8061 118.045 59.6192C118.053 59.6025 118.064 59.5859 118.072 59.5692C119.025 57.8556 119.701 56.0016 120.075 54.076C120.6 51.3652 120.52 48.5716 119.842 45.8953C119.163 43.2189 117.903 40.726 116.15 38.595C114.398 36.464 112.197 34.7476 109.705 33.5688C107.213 32.39 104.492 31.7779 101.737 31.7764H101.737ZM117.731 59.3259C117.715 59.355 117.7 59.3841 117.684 59.4112C115.933 62.5511 113.3 65.1059 110.112 66.7577C109.794 66.9241 109.471 67.0801 109.142 67.2257C108.871 67.3484 108.592 67.4649 108.312 67.5731C108.194 67.6188 108.074 67.6646 107.953 67.7062C107.159 67.9968 106.345 68.2304 105.518 68.4051C104.905 68.536 104.285 68.6339 103.661 68.6983C103.277 68.7399 102.886 68.7691 102.494 68.7836C102.243 68.794 101.99 68.8003 101.737 68.8003C100.607 68.8016 99.4798 68.6964 98.3699 68.4862C97.6947 68.3614 97.0273 68.1975 96.371 67.9953C95.3713 67.6858 94.3999 67.2913 93.4673 66.8159C93.3593 66.7598 93.2514 66.7036 93.1455 66.6454C92.994 66.5643 92.8404 66.4811 92.6909 66.3916C92.5788 66.3292 92.4667 66.2627 92.3568 66.1961C92.2924 66.1587 92.2281 66.1192 92.1637 66.0796C89.1135 64.2025 86.6803 61.4693 85.1661 58.219C83.6519 54.9687 83.1233 51.3445 83.6458 47.7959C84.1683 44.2473 85.719 40.9306 88.1055 38.2571C90.4919 35.5836 93.6092 33.6711 97.0704 32.7568C100.532 31.8425 104.185 31.9667 107.576 33.1139C110.968 34.2611 113.948 36.3809 116.149 39.2103C118.349 42.0396 119.672 45.4541 119.953 49.03C120.234 52.6059 119.462 56.1859 117.731 59.3259H117.731Z" fill="#5A5A5A"/>
<path d="M97.5354 39.8238C97.4373 38.7905 96.1741 38.1543 95.1862 38.4664C94.1983 38.7786 93.5497 39.7753 93.3537 40.7946C93.2594 41.2238 93.2505 41.6675 93.3276 42.1002C93.4047 42.5329 93.5663 42.9461 93.8031 43.316C94.3025 44.0362 95.2201 44.4856 96.076 44.3028C97.053 44.0941 97.7298 43.1381 97.9235 42.156C98.1172 41.1739 97.9249 40.1614 97.7329 39.1791L97.5354 39.8238Z" fill="#2F313E"/>
<path d="M111.438 41.2994C111.34 40.266 110.077 39.6299 109.089 39.942C108.101 40.2541 107.453 41.2509 107.257 42.2702C107.162 42.6994 107.154 43.1431 107.231 43.5758C107.308 44.0085 107.469 44.4216 107.706 44.7916C108.206 45.5118 109.123 45.9612 109.979 45.7784C110.956 45.5697 111.633 44.6137 111.827 43.6316C112.02 42.6495 111.828 41.637 111.636 40.6546L111.438 41.2994Z" fill="#2F313E"/>
<path d="M69.4473 57.9778C69.318 57.9777 69.1902 57.9505 69.0721 57.8981C68.9539 57.8456 68.8479 57.7691 68.7609 57.6732L58.4612 46.4135C58.3444 46.286 58.2024 46.1842 58.0442 46.1145C57.8861 46.0448 57.7153 46.0087 57.5425 46.0085H3.11537C2.28941 46.0076 1.49754 45.6783 0.913495 45.0931C0.32945 44.5078 0.000927347 43.7143 0 42.8866V23.2176C0.000926798 22.3899 0.32945 21.5964 0.913495 21.0111C1.49754 20.4258 2.28941 20.0966 3.11537 20.0957H73.6298C74.4558 20.0966 75.2476 20.4258 75.8317 21.0111C76.4157 21.5964 76.7443 22.3899 76.7452 23.2176V42.8866C76.7443 43.7143 76.4157 44.5078 75.8317 45.0931C75.2476 45.6784 74.4558 46.0076 73.6298 46.0085H71.6307C71.3003 46.0089 70.9835 46.1406 70.7498 46.3748C70.5161 46.6089 70.3847 46.9264 70.3844 47.2575V57.0404C70.3852 57.2293 70.3286 57.4139 70.2222 57.5698C70.1158 57.7257 69.9646 57.8454 69.7886 57.9131C69.6799 57.9558 69.5641 57.9777 69.4473 57.9778V57.9778Z" fill="#292D32"/>
<path d="M69.4473 57.9778C69.318 57.9777 69.1902 57.9505 69.0721 57.8981C68.9539 57.8456 68.8479 57.7691 68.7609 57.6732L58.4612 46.4135C58.3444 46.286 58.2024 46.1842 58.0442 46.1145C57.8861 46.0448 57.7153 46.0087 57.5425 46.0085H3.11537C2.28941 46.0076 1.49754 45.6783 0.913495 45.0931C0.32945 44.5078 0.000927347 43.7143 0 42.8866V23.2176C0.000926798 22.3899 0.32945 21.5964 0.913495 21.0111C1.49754 20.4258 2.28941 20.0966 3.11537 20.0957H73.6298C74.4558 20.0966 75.2476 20.4258 75.8317 21.0111C76.4157 21.5964 76.7443 22.3899 76.7452 23.2176V42.8866C76.7443 43.7143 76.4157 44.5078 75.8317 45.0931C75.2476 45.6784 74.4558 46.0076 73.6298 46.0085H71.6307C71.3003 46.0089 70.9835 46.1406 70.7498 46.3748C70.5161 46.6089 70.3847 46.9264 70.3844 47.2575V57.0404C70.3852 57.2293 70.3286 57.4139 70.2222 57.5698C70.1158 57.7257 69.9646 57.8454 69.7886 57.9131C69.6799 57.9558 69.5641 57.9777 69.4473 57.9778V57.9778ZM3.11537 20.5117C2.39947 20.5125 1.71312 20.7979 1.2069 21.3051C0.700682 21.8124 0.415934 22.5002 0.415126 23.2176V42.8866C0.415936 43.604 0.700685 44.2918 1.2069 44.7991C1.71312 45.3063 2.39947 45.5917 3.11537 45.5925H57.5425C57.7728 45.5928 58.0005 45.6409 58.2113 45.7338C58.4221 45.8267 58.6114 45.9625 58.7672 46.1324L69.0669 57.3921C69.1376 57.4694 69.23 57.5235 69.3319 57.5473C69.4339 57.5711 69.5406 57.5635 69.6381 57.5255C69.7356 57.4874 69.8194 57.4208 69.8785 57.3342C69.9376 57.2477 69.9692 57.1453 69.9692 57.0404V47.2575C69.9697 46.8161 70.1449 46.3929 70.4564 46.0807C70.7679 45.7686 71.1902 45.593 71.6307 45.5925H73.6298C74.3457 45.5917 75.0321 45.3063 75.5383 44.7991C76.0445 44.2918 76.3292 43.604 76.33 42.8866V23.2176C76.3292 22.5002 76.0445 21.8124 75.5383 21.3051C75.0321 20.7979 74.3457 20.5125 73.6298 20.5117H3.11537Z" fill="#2F313E"/>
<path d="M7.64165 28.7722C9.14722 28.7722 10.3677 27.5491 10.3677 26.0404C10.3677 24.5317 9.14722 23.3086 7.64165 23.3086C6.13608 23.3086 4.91557 24.5317 4.91557 26.0404C4.91557 27.5491 6.13608 28.7722 7.64165 28.7722Z" fill="#EC2758"/>
<path d="M70.4494 41.1561H6.29579C6.10472 41.1563 5.91547 41.1188 5.73888 41.0457C5.56228 40.9726 5.4018 40.8653 5.2666 40.73C5.13141 40.5947 5.02416 40.434 4.95099 40.2571C4.87781 40.0802 4.84015 39.8906 4.84015 39.6991C4.84015 39.5077 4.87781 39.3181 4.95099 39.1412C5.02416 38.9643 5.13141 38.8036 5.2666 38.6683C5.4018 38.533 5.56228 38.4257 5.73888 38.3526C5.91547 38.2795 6.10472 38.242 6.29579 38.2422H70.4494C70.8347 38.2426 71.2041 38.3964 71.4763 38.6695C71.7486 38.9427 71.9016 39.313 71.9016 39.6991C71.9016 40.0853 71.7486 40.4556 71.4763 40.7288C71.2041 41.0019 70.8347 41.1556 70.4494 41.1561V41.1561Z" fill="#4A4A4A"/>
<path d="M49.5495 34.9637H6.29579C6.10472 34.964 5.91547 34.9264 5.73888 34.8533C5.56228 34.7802 5.4018 34.6729 5.2666 34.5376C5.13141 34.4023 5.02416 34.2416 4.95099 34.0647C4.87781 33.8878 4.84015 33.6982 4.84015 33.5068C4.84015 33.3153 4.87781 33.1257 4.95099 32.9488C5.02416 32.7719 5.13141 32.6112 5.2666 32.4759C5.4018 32.3406 5.56228 32.2333 5.73888 32.1602C5.91547 32.0871 6.10472 32.0496 6.29579 32.0498H49.5495C49.9351 32.0498 50.3049 32.2033 50.5776 32.4765C50.8502 32.7498 51.0034 33.1204 51.0034 33.5068C51.0034 33.8932 50.8502 34.2638 50.5776 34.537C50.3049 34.8102 49.9351 34.9637 49.5495 34.9637Z" fill="#4A4A4A"/>
<path d="M115.211 124.681C115.035 124.613 114.884 124.493 114.778 124.337C114.671 124.181 114.615 123.997 114.616 123.808V114.025C114.615 113.694 114.484 113.376 114.25 113.142C114.017 112.908 113.7 112.776 113.369 112.776H111.37C110.544 112.775 109.752 112.446 109.168 111.861C108.584 111.275 108.256 110.482 108.255 109.654V89.9852C108.256 89.1575 108.584 88.364 109.168 87.7787C109.752 87.1934 110.544 86.8642 111.37 86.8633H181.885C182.711 86.8642 183.502 87.1934 184.086 87.7787C184.671 88.364 184.999 89.1575 185 89.9852V109.654C184.999 110.482 184.671 111.275 184.086 111.861C183.502 112.446 182.711 112.775 181.885 112.776H127.457C127.285 112.776 127.114 112.812 126.956 112.882C126.798 112.952 126.656 113.054 126.539 113.181L116.239 124.441C116.152 124.537 116.046 124.613 115.928 124.666C115.81 124.718 115.682 124.745 115.553 124.745C115.436 124.745 115.32 124.723 115.211 124.681V124.681Z" fill="#292D32"/>
<path d="M115.211 124.681C115.035 124.613 114.884 124.493 114.778 124.337C114.671 124.181 114.615 123.997 114.616 123.808V114.025C114.615 113.694 114.484 113.376 114.25 113.142C114.017 112.908 113.7 112.776 113.369 112.776H111.37C110.544 112.775 109.752 112.446 109.168 111.861C108.584 111.275 108.256 110.482 108.255 109.654V89.9852C108.256 89.1575 108.584 88.364 109.168 87.7787C109.752 87.1934 110.544 86.8642 111.37 86.8633H181.885C182.711 86.8642 183.502 87.1934 184.086 87.7787C184.671 88.364 184.999 89.1575 185 89.9852V109.654C184.999 110.482 184.671 111.275 184.086 111.861C183.502 112.446 182.711 112.775 181.885 112.776H127.457C127.285 112.776 127.114 112.812 126.956 112.882C126.798 112.952 126.656 113.054 126.539 113.181L116.239 124.441C116.152 124.537 116.046 124.613 115.928 124.666C115.81 124.718 115.682 124.745 115.553 124.745C115.436 124.745 115.32 124.723 115.211 124.681V124.681ZM111.37 87.2793C110.654 87.2801 109.968 87.5654 109.462 88.0727C108.955 88.58 108.671 89.2678 108.67 89.9852V109.654C108.671 110.372 108.955 111.059 109.462 111.567C109.968 112.074 110.654 112.359 111.37 112.36H113.369C113.81 112.361 114.232 112.536 114.544 112.848C114.855 113.16 115.03 113.584 115.031 114.025V123.808C115.031 123.913 115.062 124.015 115.121 124.102C115.181 124.188 115.264 124.255 115.362 124.293C115.459 124.331 115.566 124.339 115.668 124.315C115.77 124.291 115.862 124.237 115.933 124.16L126.233 112.9C126.389 112.73 126.578 112.594 126.789 112.501C126.999 112.408 127.227 112.36 127.457 112.36H181.885C182.601 112.359 183.287 112.074 183.793 111.567C184.299 111.059 184.584 110.372 184.585 109.654V89.9852C184.584 89.2678 184.299 88.58 183.793 88.0727C183.287 87.5654 182.601 87.2801 181.885 87.2793H111.37Z" fill="#2F313E"/>
<path d="M93.2328 130.771C90.3411 132.627 86.9908 133.638 83.5575 133.693C80.1242 133.748 76.7435 132.843 73.7944 131.081C74.3132 130.113 74.9705 129.227 75.7456 128.45C76.9414 127.246 78.3967 126.332 79.9997 125.78C81.6027 125.227 83.3107 125.051 84.9926 125.263C86.6745 125.475 88.2854 126.071 89.7016 127.005C91.1178 127.938 92.3016 129.185 93.1621 130.648C93.1849 130.688 93.2099 130.729 93.2328 130.771Z" fill="#EC2758"/>
<path d="M82.702 120.824C87.769 120.824 91.8766 116.708 91.8766 111.63C91.8766 106.553 87.769 102.437 82.702 102.437C77.635 102.437 73.5274 106.553 73.5274 111.63C73.5274 116.708 77.635 120.824 82.702 120.824Z" fill="#2F313E"/>
<path d="M89.5288 118.116C91.3377 114.8 90.1215 110.642 86.8124 108.829C83.5034 107.017 79.3544 108.235 77.5455 111.551C75.7366 114.867 76.9527 119.025 80.2618 120.838C83.5709 122.651 87.7199 121.432 89.5288 118.116Z" fill="#FFB8B8"/>
<path d="M76.3621 110.53C77.9224 111.607 79.7745 112.181 81.6696 112.173C80.9936 112.643 80.224 112.96 79.4139 113.103C81.9336 113.645 84.5377 113.659 87.0633 113.146C87.6247 113.056 88.1664 112.87 88.6646 112.595C88.9129 112.456 89.1292 112.266 89.2995 112.038C89.4698 111.81 89.5902 111.548 89.653 111.27C89.8208 110.31 89.0738 109.437 88.2974 108.849C87.1087 107.962 85.7382 107.351 84.2849 107.06C82.8316 106.768 81.332 106.805 79.8944 107.166C78.9558 107.409 78.0154 107.82 77.4058 108.575C76.7961 109.331 76.6155 110.495 77.1963 111.273L76.3621 110.53Z" fill="#2F313E"/>
<path d="M83.2634 133.904C78.7702 133.902 74.4281 132.278 71.0336 129.328C67.6392 126.377 65.4199 122.3 64.783 117.843C64.146 113.385 65.1341 108.848 67.5659 105.061C69.9977 101.275 73.7102 98.4944 78.0225 97.2294C82.3348 95.9643 86.9576 96.2997 91.043 98.1741C95.1285 100.048 98.4026 103.336 100.265 107.434C102.127 111.532 102.452 116.165 101.181 120.483C99.9103 124.802 97.1281 128.517 93.3449 130.946C90.3365 132.88 86.8372 133.906 83.2634 133.904V133.904ZM83.2634 96.88C79.6504 96.8796 76.1183 97.953 73.114 99.9643C70.1097 101.976 67.7681 104.835 66.3853 108.18C65.0024 111.525 64.6406 115.205 65.3453 118.756C66.0501 122.308 67.79 125.57 70.3448 128.13C72.8996 130.69 76.1547 132.433 79.6984 133.14C83.242 133.846 86.9151 133.483 90.2531 132.098C93.5911 130.712 96.444 128.365 98.4511 125.355C100.458 122.344 101.529 118.805 101.529 115.184C101.524 110.331 99.5974 105.679 96.1731 102.247C92.7488 98.8157 88.1061 96.8855 83.2634 96.88V96.88Z" fill="#5A5A5A"/>
<path d="M117.027 95.3318C118.533 95.3318 119.754 94.1087 119.754 92.6C119.754 91.0912 118.533 89.8682 117.027 89.8682C115.522 89.8682 114.301 91.0912 114.301 92.6C114.301 94.1087 115.522 95.3318 117.027 95.3318Z" fill="#EC2758"/>
<path d="M179.835 107.716H115.682C115.491 107.716 115.301 107.678 115.125 107.605C114.948 107.532 114.788 107.425 114.652 107.29C114.517 107.154 114.41 106.994 114.337 106.817C114.264 106.64 114.226 106.45 114.226 106.259C114.226 106.067 114.264 105.878 114.337 105.701C114.41 105.524 114.517 105.363 114.652 105.228C114.788 105.093 114.948 104.985 115.125 104.912C115.301 104.839 115.491 104.802 115.682 104.802H179.835C180.221 104.802 180.591 104.955 180.863 105.228C181.136 105.502 181.289 105.872 181.289 106.259C181.289 106.645 181.136 107.016 180.863 107.289C180.591 107.562 180.221 107.716 179.835 107.716Z" fill="#4A4A4A"/>
<path d="M158.935 101.524H115.682C115.491 101.525 115.301 101.487 115.125 101.414C114.948 101.341 114.788 101.233 114.652 101.098C114.517 100.963 114.41 100.802 114.337 100.625C114.264 100.448 114.226 100.259 114.226 100.067C114.226 99.8758 114.264 99.6862 114.337 99.5094C114.41 99.3325 114.517 99.1718 114.652 99.0365C114.788 98.9012 114.948 98.7939 115.125 98.7208C115.301 98.6476 115.491 98.6101 115.682 98.6104H158.935C159.321 98.6108 159.69 98.7645 159.962 99.0377C160.235 99.3109 160.387 99.6812 160.387 100.067C160.387 100.453 160.235 100.824 159.962 101.097C159.69 101.37 159.321 101.524 158.935 101.524V101.524Z" fill="#4A4A4A"/>
<path d="M115.124 126.542C117.933 126.542 120.21 126.289 120.21 125.977C120.21 125.664 117.933 125.411 115.124 125.411C112.315 125.411 110.037 125.664 110.037 125.977C110.037 126.289 112.315 126.542 115.124 126.542Z" fill="#F2F2F2"/>
<path d="M69.6672 59.9829C72.4762 59.9829 74.7533 59.7297 74.7533 59.4172C74.7533 59.1048 72.4762 58.8516 69.6672 58.8516C66.8583 58.8516 64.5811 59.1048 64.5811 59.4172C64.5811 59.7297 66.8583 59.9829 69.6672 59.9829Z" fill="#F2F2F2"/>
</svg>
