<svg width="210" height="220" viewBox="0 0 210 220" fill="none" xmlns="http://www.w3.org/2000/svg">
<g clip-path="url(#clip0_9438_6793)">
<path d="M81.2351 219.333C126.1 219.333 162.47 212.92 162.47 205.008C162.47 197.097 126.1 190.684 81.2351 190.684C36.3702 190.684 0 197.097 0 205.008C0 212.92 36.3702 219.333 81.2351 219.333Z" fill="#122D46"/>
<path d="M130.609 158.488C174.456 158.488 210.001 123.009 210.001 79.2439C210.001 35.4787 174.456 0 130.609 0C86.762 0 51.217 35.4787 51.217 79.2439C51.217 123.009 86.762 158.488 130.609 158.488Z" fill="#3A4D64"/>
<path opacity="0.1" d="M130.608 144.662C166.805 144.662 196.149 115.373 196.149 79.2433C196.149 43.1137 166.805 13.825 130.608 13.825C94.4114 13.825 65.0679 43.1137 65.0679 79.2433C65.0679 115.373 94.4114 144.662 130.608 144.662Z" fill="#7288A6"/>
<path opacity="0.1" d="M130.609 132.86C160.275 132.86 184.325 108.855 184.325 79.2435C184.325 49.6322 160.275 25.6274 130.609 25.6274C100.942 25.6274 76.8923 49.6322 76.8923 79.2435C76.8923 108.855 100.942 132.86 130.609 132.86Z" fill="#7288A6"/>
<path opacity="0.1" d="M130.608 117.685C151.879 117.685 169.122 100.474 169.122 79.2435C169.122 58.0127 151.879 40.8018 130.608 40.8018C109.338 40.8018 92.095 58.0127 92.095 79.2435C92.095 100.474 109.338 117.685 130.608 117.685Z" fill="#A1B2CA"/>
<path d="M51.9196 86.335C51.9196 86.335 45.6778 103.872 48.4519 110.102C51.2261 116.332 55.6184 122.331 55.6184 122.331C55.6184 122.331 54.0002 87.4887 51.9196 86.335Z" fill="#FFF0E1"/>
<path opacity="0.1" d="M51.4284 86.4648C51.4284 86.4648 45.1866 104.002 47.9607 110.232C50.7349 116.462 55.1272 122.461 55.1272 122.461C55.1272 122.461 53.509 87.6186 51.4284 86.4648Z" fill="black"/>
<path d="M56.3117 126.947C56.3117 126.947 55.8493 131.331 55.6182 131.562C55.387 131.793 55.8493 132.254 55.6182 132.946C55.387 133.638 55.1558 134.561 55.6182 134.792C56.0805 135.023 53.0752 155.329 53.0752 155.329C53.0752 155.329 45.6775 165.02 48.6829 180.249L49.6076 195.709C49.6076 195.709 56.7741 196.171 56.7741 193.633C56.7741 193.633 56.3117 190.633 56.3117 189.248C56.3117 187.864 57.4676 187.864 56.7741 187.172C56.0805 186.479 56.0805 186.018 56.0805 186.018C56.0805 186.018 57.2364 185.095 57.0052 184.864C56.7741 184.633 59.0858 168.25 59.0858 168.25C59.0858 168.25 61.6288 165.712 61.6288 164.328V162.943C61.6288 162.943 62.7847 159.944 62.7847 159.713C62.7847 159.482 69.0265 145.407 69.0265 145.407L71.5694 155.559L74.3435 170.096C74.3435 170.096 75.7306 183.249 78.5047 188.325C78.5047 188.325 83.3595 204.939 83.3595 204.478C83.3595 204.016 91.4507 202.862 91.2195 200.786C90.9883 198.709 86.3648 169.635 86.3648 169.635L87.5206 126.485L56.3117 126.947Z" fill="#4B607B"/>
<path d="M50.0698 194.556C50.0698 194.556 43.8281 206.786 47.9892 207.247C52.1504 207.709 53.7687 207.709 55.6181 205.863C56.6292 204.853 58.6767 203.499 60.3252 202.479C61.302 201.885 62.091 201.027 62.6019 200.005C63.1128 198.983 63.3247 197.838 63.2135 196.702C63.0916 195.573 62.669 194.643 61.6287 194.556C58.8546 194.325 55.6181 191.787 55.6181 191.787L50.0698 194.556Z" fill="#3A4D64"/>
<path d="M84.5166 203.555C84.5166 203.555 78.2748 215.784 82.436 216.246C86.5972 216.707 88.2155 216.707 90.0649 214.861C91.076 213.852 93.1235 212.498 94.772 211.478C95.7487 210.883 96.5378 210.026 97.0487 209.004C97.5595 207.982 97.7715 206.837 97.6603 205.701C97.5384 204.572 97.1158 203.641 96.0755 203.555C93.3014 203.324 90.0649 200.786 90.0649 200.786L84.5166 203.555Z" fill="#3A4D64"/>
<path d="M77.9185 66.3218C83.2855 66.3218 87.6363 61.9791 87.6363 56.6221C87.6363 51.2651 83.2855 46.9224 77.9185 46.9224C72.5515 46.9224 68.2007 51.2651 68.2007 56.6221C68.2007 61.9791 72.5515 66.3218 77.9185 66.3218Z" fill="#AF8282"/>
<path d="M71.672 59.8098C71.672 59.8098 64.7307 72.558 64.1754 72.558C63.6201 72.558 76.6698 76.715 76.6698 76.715C76.6698 76.715 80.2793 64.5211 80.8346 63.4126L71.672 59.8098Z" fill="#AF8282"/>
<path d="M81.8283 73.889C81.8283 73.889 67.9577 66.2744 66.5706 66.5051C65.1835 66.7359 50.3882 79.6577 50.6194 84.9649C50.8506 90.272 52.7 99.0404 52.7 99.0404C52.7 99.0404 53.3935 123.5 54.7806 123.73C56.1676 123.961 54.5494 128.114 55.0117 128.114C55.4741 128.114 87.3766 128.114 87.6078 127.422C87.8389 126.73 81.8283 73.889 81.8283 73.889Z" fill="#FFF0E1"/>
<path d="M90.0635 128.562C90.0635 128.562 94.4559 141.945 90.757 141.484C87.0582 141.022 85.4399 129.946 85.4399 129.946L90.0635 128.562Z" fill="#AF8282"/>
<path d="M77.7835 73.0827C77.7835 73.0827 69.2299 74.9286 70.617 86.466C72.0041 98.0033 74.547 109.541 74.547 109.541L83.1006 128.231L84.0253 131.692L90.2671 130.077L85.6435 103.31C85.6435 103.31 84.0253 74.6979 81.9447 73.7749C80.6327 73.2166 79.206 72.9793 77.7835 73.0827Z" fill="#FFF0E1"/>
<path opacity="0.1" d="M73.072 109.065L83.7063 127.986L74.7468 108.048L73.072 109.065Z" fill="black"/>
<path d="M87.5935 53.7667L87.6256 53.0255L89.1029 53.3925C89.087 53.1545 89.0197 52.9228 88.9054 52.7134C88.7911 52.504 88.6326 52.3218 88.4409 52.1794L90.0145 52.0916C88.6941 50.2188 87.0071 48.6325 85.0553 47.4285C83.1036 46.2246 80.9276 45.428 78.6588 45.0868C75.2552 44.5944 71.4653 45.3069 69.1313 47.8283C67.9992 49.0512 67.2878 50.6064 66.7818 52.1931C65.8499 55.1153 65.66 58.5988 67.6033 60.9741C69.5784 63.3883 73.0283 63.8612 76.1365 64.1599C77.2302 64.2651 78.3763 64.3629 79.3898 63.9394C79.5026 62.7791 79.3537 61.6083 78.9542 60.5128C78.7879 60.1737 78.7084 59.7987 78.7228 59.4214C78.861 58.4985 80.0944 58.2659 81.021 58.3906C81.9476 58.5153 83.0617 58.7061 83.6706 57.9979C84.0899 57.5101 84.0652 56.7996 84.1208 56.1592C84.272 54.4156 87.5776 54.1322 87.5935 53.7667Z" fill="#2C3A4C"/>
<path d="M147.197 206.98C153.451 206.98 158.52 201.92 158.52 195.678C158.52 189.436 153.451 184.376 147.197 184.376C140.944 184.376 135.875 189.436 135.875 195.678C135.875 201.92 140.944 206.98 147.197 206.98Z" fill="#10273D"/>
<path d="M14.2191 203.037C20.4726 203.037 25.542 197.977 25.542 191.735C25.542 185.494 20.4726 180.434 14.2191 180.434C7.96567 180.434 2.89624 185.494 2.89624 191.735C2.89624 197.977 7.96567 203.037 14.2191 203.037Z" fill="#10273D"/>
<path d="M14.2192 184.903C18.7275 184.903 22.3822 181.255 22.3822 176.755C22.3822 172.255 18.7275 168.607 14.2192 168.607C9.71086 168.607 6.05615 172.255 6.05615 176.755C6.05615 181.255 9.71086 184.903 14.2192 184.903Z" fill="#10273D"/>
<path d="M14.2186 169.921C17.4181 169.921 20.0117 167.332 20.0117 164.139C20.0117 160.945 17.4181 158.356 14.2186 158.356C11.0192 158.356 8.42554 160.945 8.42554 164.139C8.42554 167.332 11.0192 169.921 14.2186 169.921Z" fill="#10273D"/>
</g>
<defs>
<clipPath id="clip0_9438_6793">
<rect width="210" height="219.333" fill="white"/>
</clipPath>
</defs>
</svg>
