<svg fill="none" height="133" viewBox="0 0 214 133" width="214" xmlns="http://www.w3.org/2000/svg"><path d="m53.4075 0h160.0415v52.5389h-6.062v13.7408l-13.741-13.7408h-140.2385z" fill="#2f313e"/><path d="m209.224 47.3678h-151.5916v-42.4718h118.5786c8.752.00987 17.144 3.49112 23.332 9.68 6.189 6.1889 9.671 14.58 9.681 23.3325z" fill="#242632"/><path d="m160.041 66.7202h-160.041v52.5388h6.062v13.741l13.7412-13.741h140.2378z" fill="#2f313e"/><path d="m155.816 114.088h-124.652c-7.1421-.008-13.9894-2.849-19.0397-7.899-5.0502-5.05-7.89099-11.8976-7.89908-19.0397v-15.5331h151.59078z" fill="#242632"/><path d="m144.883 84.5117h-127.0701v2.2086h127.0701z" fill="#ec2758"/><path d="m144.654 92.1519h-126.8411v2.2085h126.8411z" fill="#4a4a4a"/><path d="m144.529 99.792h-126.7161v2.209h126.7161z" fill="#4a4a4a"/><g fill="#ec2758"><path d="m106.369 34.8741-8.0495-8.0499c-1.0833-1.0832-1.7044-2.5442-1.7328-4.0759-.0283-1.5317.5383-3.0147 1.5808-4.1372s2.4795-1.7971 4.0095-1.8818c1.529-.0848 3.032.4269 4.192 1.4273 1.161-1.0003 2.663-1.5118 4.193-1.427 1.529.0849 2.966.7594 4.009 1.8818 1.042 1.1225 1.609 2.6053 1.581 4.1369s-.649 2.9926-1.732 4.0759zm-3.865-17.2461c-.991-.0006-1.961.2929-2.7852.8435-.8247.5506-1.4675 1.3335-1.847 2.2495-.3796.9161-.4788 1.9242-.2852 2.8967.1937.9725.6715 1.8656 1.3729 2.5665l7.4095 7.4098 7.411-7.4098c.465-.4655.835-1.0182 1.087-1.6266.253-.6083.383-1.2605.383-1.9191s-.13-1.3108-.382-1.9193c-.251-.6085-.621-1.1614-1.087-1.6271-.465-.4657-1.018-.8351-1.627-1.087-.608-.252-1.26-.3816-1.919-.3814s-1.311.1301-1.919.3824-1.161.622-1.627 1.0879l-.32.32-.32-.32c-.465-.4657-1.017-.835-1.626-1.0866-.608-.2516-1.26-.3805-1.919-.3794z"/><path d="m134.43 21.7034c-.248-.2473-.584-.3861-.935-.3858-.35.0002-.686.1395-.934.3872-.247.2478-.387.5837-.387.9341 0 .3503.138.6865.386.9347v.0001l1.87 1.8703 1.87-1.8703c.124-.1227.221-.2685.288-.429.067-.1606.101-.3327.101-.5065.001-.1739-.034-.3461-.1-.5067-.066-.1607-.164-.3067-.287-.4296-.123-.123-.269-.2205-.429-.2869-.161-.0665-.333-.1007-.507-.1005-.174.0001-.346.0345-.507.1012-.16.0667-.306.1645-.429.2876z"/><path d="m126.736 21.7034c-.248-.2477-.584-.3869-.935-.3868-.35.0001-.687.1394-.935.3873s-.387.5841-.387.9347.139.6869.387.935v.0001l1.87 1.8703 1.87-1.8703c.124-.1227.221-.2685.288-.429.067-.1606.101-.3327.101-.5065.001-.1739-.034-.3461-.1-.5067-.066-.1607-.164-.3067-.287-.4296-.123-.123-.269-.2205-.429-.2869-.161-.0665-.333-.1007-.507-.1005-.174.0001-.346.0345-.507.1012-.16.0667-.306.1645-.429.2876z"/><path d="m130.756 35.7276c-1.97 0-3.895-.584-5.532-1.6781-1.638-1.0941-2.914-2.6492-3.667-4.4686-.754-1.8194-.951-3.8214-.567-5.7529s1.332-3.7056 2.725-5.0982c1.392-1.3925 3.167-2.3408 5.098-2.725 1.932-.3842 3.934-.187 5.753.5666s3.375 2.0299 4.469 3.6673 1.678 3.5625 1.678 5.5318c-.003 2.6399-1.053 5.1708-2.92 7.0374-1.867 1.8667-4.398 2.9167-7.037 2.9197zm0-19.0089c-1.791 0-3.541.5309-5.029 1.5255-1.489.9946-2.649 2.4083-3.334 4.0623s-.865 3.4741-.515 5.23c.349 1.7558 1.211 3.3687 2.477 4.6347 1.266 1.2659 2.879 2.128 4.635 2.4773 1.756.3492 3.576.17 5.23-.5151 1.654-.6852 3.067-1.8454 4.062-3.3339.995-1.4886 1.525-3.2387 1.525-5.029 0-1.1887-.234-2.3657-.689-3.464-.454-1.0982-1.121-2.0961-1.962-2.9366-.84-.8405-1.838-1.5073-2.936-1.9622-1.099-.4549-2.276-.689-3.464-.689z"/><path d="m155.196 35.7276c-1.97 0-3.895-.584-5.532-1.6781-1.638-1.0941-2.914-2.6492-3.667-4.4686-.754-1.8194-.951-3.8214-.567-5.7529s1.332-3.7056 2.725-5.0982c1.392-1.3925 3.167-2.3408 5.098-2.725 1.932-.3842 3.934-.187 5.753.5666s3.375 2.0299 4.469 3.6673 1.678 3.5625 1.678 5.5318c-.003 2.6399-1.053 5.1708-2.92 7.0374-1.867 1.8667-4.397 2.9167-7.037 2.9197zm0-19.0089c-1.791 0-3.541.5309-5.029 1.5255-1.489.9946-2.649 2.4083-3.334 4.0623s-.865 3.4741-.515 5.23c.349 1.7558 1.211 3.3687 2.477 4.6347 1.266 1.2659 2.879 2.128 4.635 2.4773 1.756.3492 3.576.17 5.23-.5151 1.654-.6852 3.067-1.8454 4.062-3.3339.995-1.4886 1.526-3.2387 1.526-5.029 0-1.1887-.235-2.3657-.689-3.464-.455-1.0982-1.122-2.0961-1.963-2.9366-.84-.8405-1.838-1.5073-2.936-1.9622-1.099-.4549-2.276-.689-3.464-.689z"/><path d="m159.269 24.8663c1.25 0 2.263-1.0132 2.263-2.263s-1.013-2.263-2.263-2.263-2.263 1.0132-2.263 2.263 1.013 2.263 2.263 2.263z"/><path d="m151.575 24.8663c1.25 0 2.263-1.0132 2.263-2.263s-1.013-2.263-2.263-2.263-2.263 1.0132-2.263 2.263 1.013 2.263 2.263 2.263z"/><path d="m152.375 27.5815c-.924 6.3882 6.404 7.6839 5.671-.0003.043-.0052-5.376.0042-5.671.0003z"/><path d="m127.269 28.9072c2.069 2.7823 5.647 3.0321 7.56 0z"/></g><path d="m209.592 86.99c.083-.1312-.133-.4171-.483-.6387-.35-.2215-.701-.2947-.784-.1635-.083.1311.133.4171.483.6386.35.2216.701.2948.784.1636z" fill="#3f3d56"/><path d="m209.61 85.5593-.2.3167 1.267.8022.2-.3167z" fill="#d0cde1"/><path d="m211.352 86.6628-.2.3167 1.267.8022.2-.3167z" fill="#d0cde1"/></svg>