<svg width="210" height="140" viewBox="0 0 210 140" fill="none" xmlns="http://www.w3.org/2000/svg">
<g clip-path="url(#clip0_9438_6645)">
<path d="M195.399 84.6972C192.847 85.9633 189.459 84.3353 189.459 84.3353C189.459 84.3353 190.212 80.6552 192.766 79.3907C195.318 78.1244 198.705 79.7508 198.705 79.7508C198.705 79.7508 197.952 83.4309 195.399 84.6972Z" fill="#2C3A4C"/>
<path d="M16.7408 83.3874C20.4681 85.6214 25.8154 83.5564 25.8154 83.5564C25.8154 83.5564 25.1163 77.8703 21.3867 75.6389C17.6594 73.405 12.3145 75.4676 12.3145 75.4676C12.3145 75.4676 13.0135 81.1535 16.7408 83.3874Z" fill="#2C3A4C"/>
<path d="M186.407 45.4003C185.45 45.4003 184.674 46.1764 184.674 47.1338C184.674 48.0911 185.45 48.8672 186.407 48.8672C187.365 48.8672 188.141 48.0911 188.141 47.1338C188.141 46.1764 187.365 45.4003 186.407 45.4003Z" fill="#2C3A4C"/>
<path d="M150.843 113.751C149.043 113.751 147.583 115.211 147.583 117.011C147.583 118.812 149.043 120.271 150.843 120.271C152.644 120.271 154.104 118.812 154.104 117.011C154.104 115.211 152.644 113.751 150.843 113.751Z" fill="#2C3A4C"/>
<path d="M56.2539 109.592C54.8246 109.592 53.666 108.433 53.666 107.004C53.666 105.575 54.8246 104.416 56.2539 104.416C57.6832 104.416 58.8418 105.575 58.8418 107.004C58.8418 108.433 57.6832 109.592 56.2539 109.592Z" fill="#2C3A4C"/>
<path d="M178.902 67.0548C177.945 67.0548 177.17 66.2792 177.17 65.3223C177.17 64.3655 177.945 63.5898 178.902 63.5898C179.859 63.5898 180.635 64.3655 180.635 65.3223C180.635 66.2792 179.859 67.0548 178.902 67.0548Z" fill="#2C3A4C"/>
<path d="M25.3839 117.269C23.6068 117.269 22.1662 115.829 22.1662 114.052C22.1662 112.275 23.6068 110.834 25.3839 110.834C27.161 110.834 28.6016 112.275 28.6016 114.052C28.6016 115.829 27.161 117.269 25.3839 117.269Z" fill="#2C3A4C"/>
<path d="M188.989 119.902C187.636 119.902 186.54 118.805 186.54 117.453C186.54 116.1 187.636 115.004 188.989 115.004C190.341 115.004 191.438 116.1 191.438 117.453C191.438 118.805 190.341 119.902 188.989 119.902Z" fill="#2C3A4C"/>
<path d="M162.084 31.9946C160.384 31.9946 159.005 30.6164 159.005 28.9163C159.005 27.2161 160.384 25.8379 162.084 25.8379C163.784 25.8379 165.162 27.2161 165.162 28.9163C165.162 30.6164 163.784 31.9946 162.084 31.9946Z" fill="#2C3A4C"/>
<path d="M41.1704 57.4378C41.5198 58.7421 40.7458 60.0827 39.4416 60.4321C38.1373 60.7816 36.7967 60.0076 36.4472 58.7034C36.0978 57.3991 36.8718 56.0585 38.176 55.709C39.4803 55.3595 40.8209 56.1335 41.1704 57.4378Z" fill="#2C3A4C"/>
<path d="M66.5833 30.8393C64.7869 30.8393 63.3306 29.383 63.3306 27.5867C63.3306 25.7903 64.7869 24.334 66.5833 24.334C68.3797 24.334 69.8359 25.7903 69.8359 27.5867C69.8359 29.383 68.3797 30.8393 66.5833 30.8393Z" fill="#2C3A4C"/>
<path d="M174.562 90.0167C173.181 90.0167 172.06 89.1206 172.06 88.0152C172.06 86.9098 173.181 86.0137 174.562 86.0137C175.944 86.0137 177.064 86.9098 177.064 88.0152C177.064 89.1206 175.944 90.0167 174.562 90.0167Z" fill="#2C3A4C"/>
<path d="M145.557 11.9158C146.284 14.6302 144.673 17.4203 141.959 18.1477C139.245 18.875 136.454 17.2641 135.727 14.5497C135 11.8353 136.611 9.04515 139.325 8.31782C142.04 7.59049 144.83 9.20135 145.557 11.9158Z" fill="#2C3A4C"/>
<path d="M43.0728 30.6641H43.1085C43.3194 33.6542 45.5436 33.7004 45.5436 33.7004C45.5436 33.7004 43.091 33.7483 43.091 37.2037C43.091 33.7483 40.6387 33.7004 40.6387 33.7004C40.6387 33.7004 42.8619 33.6542 43.0728 30.6641ZM45.2463 126.605H45.2806C45.4831 129.587 47.6184 129.633 47.6184 129.633C47.6184 129.633 45.264 129.68 45.264 133.125C45.264 129.68 42.9095 129.633 42.9095 129.633C42.9095 129.633 45.0438 129.587 45.2463 126.605Z" fill="#2C3A4C"/>
<path d="M104.733 126.204C92.7975 126.204 83.122 116.529 83.122 104.593C83.122 92.6579 92.7975 82.9824 104.733 82.9824C116.668 82.9824 126.344 92.6579 126.344 104.593C126.344 116.529 116.668 126.204 104.733 126.204Z" fill="#2C3A4C"/>
<path fill-rule="evenodd" clip-rule="evenodd" d="M112.185 112.155V113.218C112.185 113.5 112.073 113.771 111.873 113.97C111.674 114.17 111.403 114.282 111.121 114.281H98.3459C98.0638 114.282 97.7931 114.17 97.5935 113.97C97.3938 113.771 97.2815 113.5 97.2812 113.218V112.138C97.2812 108.92 100.963 106.83 104.733 106.83C108.504 106.83 112.185 108.921 112.185 112.138M107.368 97.4878C108.823 98.9429 108.823 101.302 107.368 102.757C105.913 104.212 103.554 104.212 102.099 102.757C100.644 101.302 100.644 98.9429 102.099 97.4878C103.554 96.0327 105.913 96.0327 107.368 97.4878Z" fill="#7288A6"/>
<path d="M145.639 102.662C136.83 102.662 129.688 95.5201 129.688 86.7107C129.688 77.9012 136.83 70.7598 145.639 70.7598C154.448 70.7598 161.59 77.9012 161.59 86.7107C161.59 95.5201 154.448 102.662 145.639 102.662Z" fill="#2C3A4C"/>
<path fill-rule="evenodd" clip-rule="evenodd" d="M151.139 92.2932V93.0781C151.139 93.2864 151.056 93.486 150.909 93.6332C150.761 93.7804 150.562 93.863 150.353 93.8628H140.924C140.716 93.863 140.516 93.7804 140.369 93.6332C140.222 93.486 140.139 93.2864 140.138 93.0781V92.2806C140.138 89.9057 142.856 88.3627 145.639 88.3627C148.422 88.3627 151.139 89.9064 151.139 92.2806M147.583 81.4675C148.657 82.5415 148.657 84.2829 147.583 85.3569C146.51 86.4309 144.768 86.4309 143.694 85.3569C142.62 84.2829 142.62 82.5415 143.694 81.4675C144.768 80.3937 146.51 80.3937 147.583 81.4675Z" fill="#7288A6"/>
<path d="M95.0863 46.0638C86.7741 46.0638 80.0358 39.3255 80.0358 31.0134C80.0358 22.7012 86.7741 15.9629 95.0863 15.9629C103.398 15.9629 110.137 22.7012 110.137 31.0134C110.137 39.3255 103.398 46.0638 95.0863 46.0638Z" fill="#2C3A4C"/>
<path fill-rule="evenodd" clip-rule="evenodd" d="M100.276 36.2791V37.0197C100.276 37.2162 100.198 37.4046 100.059 37.5435C99.9196 37.6824 99.7311 37.7604 99.5346 37.7603H90.6378C90.4413 37.7603 90.2529 37.6823 90.1139 37.5434C89.9749 37.4046 89.8967 37.2162 89.8965 37.0197V36.2674C89.8965 34.0265 92.4601 32.5705 95.0863 32.5705C97.7122 32.5705 100.276 34.0272 100.276 36.2674M96.921 26.0647C97.9344 27.0781 97.9344 28.721 96.921 29.7343C95.9076 30.7477 94.2645 30.7477 93.2511 29.7343C92.2378 28.721 92.2378 27.0781 93.2511 26.0647C94.2645 25.0513 95.9076 25.0513 96.921 26.0647Z" fill="#7288A6"/>
<path d="M155.142 48.3227V38.1347L151.474 32.1849L127.186 31.207L117.324 34.3855L116.672 46.7741L117.324 57.6957L121.97 60.6299L123.518 68.5357L135.336 61.5264L147.236 60.6299L155.142 56.3916V48.3227Z" fill="#2C3A4C"/>
<path fill-rule="evenodd" clip-rule="evenodd" d="M125.152 58.8744V65.6191L136.188 59.0979L137.342 59.079C141.929 59.0039 146.056 58.5419 149.143 58.0724C151.091 57.7761 152.444 56.4165 152.738 54.7096C153.146 52.342 153.493 49.3423 153.493 46.0091C153.493 42.6759 153.146 39.6762 152.738 37.3086C152.444 35.6015 151.091 34.2421 149.143 33.9458C145.767 33.432 141.151 32.9284 136.053 32.9284C130.955 32.9284 126.338 33.432 122.963 33.9458C121.015 34.2421 119.661 35.6015 119.367 37.3086C118.959 39.6762 118.612 42.6759 118.612 46.0091C118.612 49.3423 118.959 52.342 119.367 54.7096C119.623 56.192 120.658 57.3799 122.168 57.882L125.152 58.8744ZM115.07 36.5684C115.703 32.8955 118.622 30.1956 122.307 29.6352C125.837 29.098 130.68 28.5684 136.053 28.5684C141.425 28.5684 146.268 29.098 149.799 29.6352C153.483 30.1956 156.402 32.8955 157.035 36.5684C157.476 39.1281 157.854 42.3798 157.854 46.0091C157.854 49.6384 157.476 52.8901 157.035 55.4498C156.402 59.1224 153.483 61.8223 149.799 62.383C146.569 62.8744 142.241 63.3595 137.413 63.4384L124.081 71.3164C122.628 72.1753 120.792 71.1277 120.792 69.4395V62.0195C117.842 61.0383 115.613 58.6026 115.07 55.4498C114.629 52.8901 114.252 49.6384 114.252 46.0091C114.252 42.3798 114.629 39.1281 115.07 36.5684Z" fill="#2C3A4C"/>
<path fill-rule="evenodd" clip-rule="evenodd" d="M125.153 39.5176C124.574 39.5176 124.02 39.7473 123.611 40.1561C123.202 40.5649 122.973 41.1194 122.973 41.6976C122.973 42.2758 123.202 42.8303 123.611 43.2391C124.02 43.648 124.574 43.8776 125.153 43.8776H146.953C148.157 43.8776 149.134 42.9016 149.134 41.6976C149.134 40.4936 148.157 39.5176 146.953 39.5176H125.153ZM125.153 48.2377C123.949 48.2377 122.973 49.214 122.973 50.418C122.973 50.9962 123.202 51.5507 123.611 51.9595C124.02 52.3683 124.574 52.598 125.153 52.598H133.873C134.451 52.598 135.006 52.3683 135.415 51.9595C135.823 51.5507 136.053 50.9962 136.053 50.418C136.053 49.214 135.077 48.2377 133.873 48.2377H125.153Z" fill="#7288A6"/>
<path d="M47.7578 66.5886V56.4006L51.4256 50.4508L75.7137 49.4727L85.5756 52.6514L86.2277 65.04L85.5756 75.9616L80.9299 78.8958L79.3815 86.8016L67.5634 79.7922L55.6638 78.8958L47.7578 74.6575V66.5886Z" fill="#2C3A4C"/>
<path fill-rule="evenodd" clip-rule="evenodd" d="M77.7461 77.14V83.8847L66.7102 77.3635L65.5566 77.3447C60.9699 77.2695 56.8423 76.8078 53.7557 76.3381C51.8079 76.0417 50.4543 74.6823 50.1603 72.9752C49.7524 70.6076 49.4052 67.6079 49.4052 64.2747C49.4052 60.9415 49.7524 57.9418 50.1603 55.5742C50.4543 53.8671 51.8079 52.5077 53.7557 52.2114C57.1316 51.6976 61.7481 51.194 66.8457 51.194C71.9436 51.194 76.5601 51.6976 79.9357 52.2114C81.8836 52.5077 83.2372 53.8671 83.5312 55.5742C83.939 57.9418 84.2865 60.9415 84.2865 64.2747C84.2865 67.6079 83.939 70.6076 83.5312 72.9752C83.2759 74.4576 82.2404 75.6457 80.7305 76.1476L77.7461 77.14ZM87.828 54.8341C87.1954 51.1611 84.2762 48.4615 80.5916 47.9008C77.0615 47.3636 72.2185 46.834 66.8457 46.834C61.4732 46.834 56.6302 47.3636 53.0998 47.9008C49.4155 48.4615 46.496 51.1611 45.8635 54.8341C45.4225 57.3937 45.0449 60.6454 45.0449 64.2747C45.0449 67.904 45.4225 71.1557 45.8635 73.7154C46.496 77.388 49.4155 80.088 53.0998 80.6487C56.3296 81.14 60.658 81.6251 65.4852 81.7042L78.8171 89.582C80.2706 90.4409 82.1064 89.3933 82.1064 87.7053V80.2851C85.0569 79.3039 87.285 76.8682 87.828 73.7154C88.269 71.1557 88.6465 67.904 88.6465 64.2747C88.6465 60.6454 88.269 57.3937 87.828 54.8341Z" fill="#2C3A4C"/>
<path fill-rule="evenodd" clip-rule="evenodd" d="M77.7465 57.7832C78.3246 57.7832 78.8791 58.0129 79.288 58.4217C79.6968 58.8306 79.9265 59.3851 79.9265 59.9632C79.9265 60.5414 79.6968 61.0959 79.288 61.5048C78.8791 61.9136 78.3246 62.1433 77.7465 62.1433H55.9457C55.3675 62.1433 54.813 61.9136 54.4041 61.5048C53.9953 61.0959 53.7656 60.5414 53.7656 59.9632C53.7656 59.3851 53.9953 58.8306 54.4041 58.4217C54.813 58.0129 55.3675 57.7832 55.9457 57.7832H77.7465ZM77.7465 66.5033C78.9505 66.5033 79.9265 67.4796 79.9265 68.6836C79.9265 68.9699 79.8701 69.2534 79.7605 69.5179C79.651 69.7824 79.4904 70.0227 79.288 70.2251C79.0855 70.4276 78.8452 70.5881 78.5807 70.6977C78.3162 70.8073 78.0327 70.8636 77.7465 70.8636H69.0261C68.7398 70.8636 68.4563 70.8073 68.1918 70.6977C67.9273 70.5881 67.687 70.4276 67.4846 70.2251C67.2821 70.0227 67.1216 69.7824 67.012 69.5179C66.9024 69.2534 66.8461 68.9699 66.8461 68.6836C66.8461 67.4796 67.8221 66.5033 69.0261 66.5033H77.7465Z" fill="#7288A6"/>
</g>
<defs>
<clipPath id="clip0_9438_6645">
<rect width="210" height="140" fill="white"/>
</clipPath>
</defs>
</svg>
