<svg width="210" height="189" viewBox="0 0 210 189" fill="none" xmlns="http://www.w3.org/2000/svg">
<g clip-path="url(#clip0_9438_6674)">
<path d="M107.548 0.410899L100.715 2.173L16.5304 23.8825L9.69738 25.6446C6.3807 26.5038 3.54032 28.6437 1.79937 31.5946C0.058416 34.5455 -0.44092 38.0664 0.410906 41.385L30.0404 156.282C30.8997 159.598 33.0395 162.439 35.9904 164.18C38.9413 165.921 42.4623 166.42 45.7809 165.568L45.7985 165.564L143.614 140.339L143.631 140.335C146.948 139.475 149.788 137.335 151.529 134.385C153.27 131.434 153.77 127.913 152.918 124.594L123.288 9.69743C122.429 6.38075 120.289 3.54035 117.338 1.79939C114.387 0.0584258 110.866 -0.440921 107.548 0.410899Z" fill="#3A4D64"/>
<path d="M108.477 4.01316L100.384 6.10025L18.7195 27.1598L10.6263 29.2468C8.26445 29.8587 6.24173 31.3826 5.00196 33.484C3.76218 35.5854 3.40658 38.0927 4.01319 40.456L33.6427 155.353C34.2546 157.714 35.7784 159.737 37.8798 160.977C39.9812 162.217 42.4886 162.572 44.8519 161.966L44.8695 161.961L142.685 136.737L142.702 136.732C145.064 136.12 147.087 134.596 148.327 132.495C149.566 130.394 149.922 127.886 149.315 125.523L119.686 10.6263C119.074 8.26446 117.55 6.24176 115.449 5.00198C113.347 3.7622 110.84 3.40659 108.477 4.01316Z" fill="#122D46"/>
<path d="M102.366 41.2197L52.8835 53.9802C52.3308 54.1228 51.7442 54.0399 51.2526 53.7499C50.761 53.4599 50.4048 52.9864 50.2623 52.4338C50.1198 51.8811 50.2026 51.2945 50.4926 50.8029C50.7826 50.3113 51.2561 49.9551 51.8087 49.8126L101.291 37.0521C101.843 36.9101 102.43 36.9933 102.921 37.2834C103.412 37.5735 103.768 38.0467 103.91 38.599C104.053 39.1514 103.97 39.7377 103.68 40.2291C103.391 40.7205 102.918 41.0768 102.366 41.2197Z" fill="#F1F4F8"/>
<path d="M112.775 46.0359L54.6972 61.0131C54.1445 61.1556 53.5579 61.0727 53.0663 60.7827C52.5747 60.4927 52.2185 60.0193 52.076 59.4666C51.9335 58.9139 52.0163 58.3273 52.3063 57.8357C52.5964 57.3442 53.0698 56.9879 53.6224 56.8454L111.701 41.8682C112.253 41.7257 112.84 41.8086 113.331 42.0986C113.823 42.3886 114.179 42.862 114.322 43.4147C114.464 43.9673 114.381 44.554 114.091 45.0456C113.801 45.5371 113.328 45.8934 112.775 46.0359Z" fill="#F1F4F8"/>
<path d="M110.494 72.7378L61.0114 85.4983C60.7378 85.5688 60.4529 85.5848 60.1731 85.5453C59.8932 85.5058 59.6239 85.4115 59.3805 85.2679C59.1371 85.1243 58.9244 84.9342 58.7545 84.7084C58.5845 84.4826 58.4608 84.2255 58.3902 83.9518C58.3196 83.6782 58.3036 83.3933 58.3432 83.1135C58.3827 82.8336 58.4769 82.5643 58.6206 82.3209C58.7642 82.0775 58.9543 81.8648 59.1801 81.6949C59.4059 81.525 59.663 81.4012 59.9367 81.3306L109.419 68.5701C109.693 68.4996 109.977 68.4836 110.257 68.5231C110.537 68.5626 110.806 68.6569 111.05 68.8005C111.293 68.9441 111.506 69.1342 111.676 69.36C111.846 69.5859 111.97 69.8429 112.04 70.1166C112.111 70.3902 112.127 70.6751 112.087 70.9549C112.048 71.2348 111.953 71.5041 111.81 71.7475C111.666 71.9909 111.476 72.2036 111.25 72.3735C111.024 72.5434 110.767 72.6672 110.494 72.7378Z" fill="#F1F4F8"/>
<path d="M120.903 77.554L62.8249 92.5311C62.5512 92.6017 62.2663 92.6177 61.9865 92.5782C61.7067 92.5386 61.4374 92.4444 61.194 92.3008C60.9506 92.1572 60.7379 91.967 60.5679 91.7412C60.398 91.5154 60.2742 91.2583 60.2037 90.9847C60.1331 90.711 60.1171 90.4262 60.1566 90.1463C60.1962 89.8665 60.2904 89.5972 60.434 89.3538C60.5776 89.1104 60.7678 88.8977 60.9936 88.7277C61.2194 88.5578 61.4765 88.434 61.7501 88.3635L119.828 73.3863C120.381 73.2438 120.968 73.3266 121.459 73.6167C121.951 73.9067 122.307 74.3801 122.449 74.9328C122.592 75.4854 122.509 76.0721 122.219 76.5636C121.929 77.0552 121.456 77.4114 120.903 77.554Z" fill="#F1F4F8"/>
<path d="M118.621 104.256L69.1391 117.016C68.5866 117.158 68.0003 117.075 67.509 116.785C67.0178 116.495 66.6618 116.022 66.5194 115.469C66.3769 114.917 66.4596 114.33 66.7493 113.839C67.039 113.348 67.512 112.991 68.0644 112.848L117.547 100.088C118.099 99.9454 118.686 100.028 119.178 100.318C119.669 100.608 120.025 101.082 120.168 101.634C120.31 102.187 120.227 102.774 119.937 103.265C119.647 103.757 119.174 104.113 118.621 104.256Z" fill="#F2F2F2"/>
<path d="M129.031 109.072L70.9527 124.049C70.679 124.12 70.3939 124.136 70.1139 124.097C69.8339 124.057 69.5644 123.963 69.3208 123.82C69.0772 123.676 68.8643 123.486 68.6942 123.26C68.5241 123.034 68.4003 122.777 68.3297 122.503C68.259 122.229 68.2431 121.944 68.2827 121.664C68.3223 121.384 68.4167 121.115 68.5605 120.871C68.7043 120.628 68.8946 120.415 69.1207 120.245C69.3468 120.075 69.6041 119.952 69.878 119.881L127.956 104.904C128.509 104.762 129.095 104.844 129.587 105.134C130.079 105.424 130.435 105.898 130.577 106.451C130.72 107.003 130.637 107.59 130.347 108.081C130.057 108.573 129.583 108.929 129.031 109.072Z" fill="#F2F2F2"/>
<path d="M44.436 67.0641L26.9247 71.58C26.6597 71.648 26.3786 71.6081 26.143 71.4691C25.9073 71.3301 25.7365 71.1033 25.6679 70.8384L21.6482 55.2509C21.5801 54.9859 21.62 54.7048 21.759 54.4692C21.898 54.2335 22.1249 54.0627 22.3897 53.9941L39.901 49.4782C40.166 49.4102 40.4471 49.4501 40.6828 49.5891C40.9184 49.7281 41.0893 49.9549 41.1579 50.2198L45.1776 65.8073C45.2456 66.0723 45.2057 66.3534 45.0667 66.589C44.9277 66.8247 44.7009 66.9955 44.436 67.0641Z" fill="#BBC7DB"/>
<path d="M52.564 98.5822L35.0527 103.098C34.7877 103.166 34.5065 103.126 34.2709 102.987C34.0353 102.848 33.8644 102.621 33.7958 102.356L29.7761 86.769C29.7081 86.504 29.7479 86.2229 29.887 85.9872C30.026 85.7516 30.2528 85.5807 30.5176 85.5121L48.0289 80.9963C48.2939 80.9283 48.5751 80.9682 48.8107 81.1072C49.0463 81.2462 49.2172 81.473 49.2858 81.7378L53.3055 97.3253C53.3735 97.5903 53.3336 97.8715 53.1946 98.1071C53.0556 98.3427 52.8288 98.5136 52.564 98.5822Z" fill="#BBC7DB"/>
<path d="M60.6919 130.1L43.1806 134.616C42.9156 134.684 42.6345 134.644 42.3988 134.505C42.1632 134.366 41.9923 134.139 41.9237 133.874L37.904 118.287C37.836 118.022 37.8759 117.741 38.0149 117.505C38.1539 117.269 38.3807 117.099 38.6456 117.03L56.1569 112.514C56.4218 112.446 56.703 112.486 56.9386 112.625C57.1743 112.764 57.3451 112.991 57.4137 113.256L61.4334 128.843C61.5015 129.108 61.4616 129.389 61.3226 129.625C61.1836 129.861 60.9567 130.031 60.6919 130.1Z" fill="#BBC7DB"/>
<path d="M175.794 29.5356H74.742C71.3158 29.5395 68.031 30.9023 65.6084 33.3249C63.1857 35.7476 61.8229 39.0324 61.8191 42.4585V161.114C61.8229 164.54 63.1857 167.825 65.6084 170.248C68.031 172.67 71.3158 174.033 74.742 174.037H175.794C179.22 174.033 182.504 172.67 184.927 170.248C187.35 167.825 188.713 164.54 188.716 161.114V42.4585C188.713 39.0324 187.35 35.7476 184.927 33.3249C182.504 30.9023 179.22 29.5395 175.794 29.5356Z" fill="#3A4D64"/>
<path d="M175.794 33.2559H74.7417C72.3019 33.2586 69.9627 34.229 68.2375 35.9543C66.5122 37.6795 65.5418 40.0187 65.5391 42.4585V161.114C65.5418 163.554 66.5122 165.893 68.2375 167.618C69.9627 169.344 72.3019 170.314 74.7417 170.317H175.794C178.233 170.314 180.572 169.344 182.298 167.618C184.023 165.893 184.993 163.554 184.996 161.114V42.4585C184.993 40.0187 184.023 37.6796 182.298 35.9543C180.572 34.2291 178.233 33.2586 175.794 33.2559Z" fill="#122D46"/>
<path d="M186.41 188.474C199.438 188.474 210 177.912 210 164.883C210 151.855 199.438 141.293 186.41 141.293C173.381 141.293 162.82 151.855 162.82 164.883C162.82 177.912 173.381 188.474 186.41 188.474Z" fill="#7288A6"/>
<path d="M197.692 161.806H189.487V153.601C189.487 152.785 189.163 152.002 188.586 151.425C188.009 150.848 187.226 150.524 186.41 150.524C185.594 150.524 184.811 150.848 184.234 151.425C183.657 152.002 183.333 152.785 183.333 153.601V161.806H175.128C174.311 161.806 173.529 162.131 172.952 162.708C172.375 163.285 172.051 164.067 172.051 164.883C172.051 165.699 172.375 166.482 172.952 167.059C173.529 167.636 174.311 167.96 175.128 167.96H183.333V176.166C183.333 176.982 183.657 177.764 184.234 178.341C184.811 178.918 185.594 179.243 186.41 179.243C187.226 179.243 188.009 178.918 188.586 178.341C189.163 177.764 189.487 176.982 189.487 176.166V167.96H197.692C198.508 167.96 199.291 167.636 199.868 167.059C200.445 166.482 200.769 165.699 200.769 164.883C200.769 164.067 200.445 163.285 199.868 162.708C199.291 162.131 198.508 161.806 197.692 161.806Z" fill="white"/>
<path d="M160.356 98.5408H109.255C108.972 98.5411 108.692 98.4857 108.43 98.3777C108.169 98.2697 107.931 98.1112 107.731 97.9114C107.531 97.7115 107.372 97.4742 107.264 97.2129C107.156 96.9517 107.1 96.6716 107.1 96.3888C107.1 96.106 107.156 95.826 107.264 95.5647C107.372 95.3035 107.531 95.0661 107.731 94.8663C107.931 94.6664 108.169 94.5079 108.43 94.3999C108.692 94.2919 108.972 94.2365 109.255 94.2368H160.356C160.926 94.2375 161.473 94.4645 161.876 94.868C162.279 95.2715 162.505 95.8185 162.505 96.3888C162.505 96.9592 162.279 97.5062 161.876 97.9097C161.473 98.3132 160.926 98.5402 160.356 98.5408Z" fill="#D6DDEA"/>
<path d="M169.462 105.72H109.484C109.201 105.72 108.921 105.665 108.66 105.557C108.398 105.449 108.161 105.29 107.961 105.091C107.761 104.891 107.602 104.653 107.494 104.392C107.385 104.131 107.33 103.851 107.33 103.568C107.33 103.285 107.385 103.005 107.494 102.744C107.602 102.483 107.761 102.245 107.961 102.045C108.161 101.846 108.398 101.687 108.66 101.579C108.921 101.471 109.201 101.416 109.484 101.416H169.462C170.033 101.416 170.58 101.643 170.984 102.046C171.387 102.45 171.614 102.997 171.614 103.568C171.614 104.139 171.387 104.686 170.984 105.09C170.58 105.493 170.033 105.72 169.462 105.72Z" fill="#D6DDEA"/>
<path d="M160.585 131.006H109.484C109.201 131.006 108.921 130.951 108.66 130.843C108.398 130.735 108.161 130.576 107.961 130.376C107.761 130.177 107.602 129.939 107.494 129.678C107.385 129.417 107.33 129.137 107.33 128.854C107.33 128.571 107.385 128.291 107.494 128.03C107.602 127.769 107.761 127.531 107.961 127.331C108.161 127.132 108.398 126.973 108.66 126.865C108.921 126.757 109.201 126.702 109.484 126.702H160.585C161.156 126.702 161.703 126.929 162.107 127.332C162.51 127.736 162.737 128.283 162.737 128.854C162.737 129.425 162.51 129.972 162.107 130.376C161.703 130.779 161.156 131.006 160.585 131.006Z" fill="#D6DDEA"/>
<path d="M169.462 138.269H109.484C109.201 138.269 108.921 138.214 108.66 138.106C108.398 137.998 108.161 137.839 107.961 137.639C107.761 137.44 107.602 137.202 107.494 136.941C107.385 136.68 107.33 136.4 107.33 136.117C107.33 135.834 107.385 135.554 107.494 135.293C107.602 135.032 107.761 134.794 107.961 134.594C108.161 134.394 108.398 134.236 108.66 134.128C108.921 134.02 109.201 133.965 109.484 133.965H169.462C169.745 133.965 170.025 134.02 170.286 134.128C170.548 134.236 170.785 134.394 170.985 134.594C171.185 134.794 171.344 135.032 171.453 135.293C171.561 135.554 171.617 135.834 171.617 136.117C171.617 136.4 171.561 136.68 171.453 136.941C171.344 137.202 171.185 137.44 170.985 137.639C170.785 137.839 170.548 137.998 170.286 138.106C170.025 138.214 169.745 138.269 169.462 138.269Z" fill="#D6DDEA"/>
<path d="M98.0372 109.017H79.953C79.6794 109.017 79.4172 108.908 79.2237 108.714C79.0303 108.521 78.9214 108.259 78.9211 107.985V91.8876C78.9214 91.614 79.0303 91.3517 79.2237 91.1583C79.4172 90.9648 79.6794 90.856 79.953 90.8557H98.0372C98.3108 90.856 98.5731 90.9648 98.7666 91.1583C98.96 91.3517 99.0688 91.614 99.0691 91.8876V107.985C99.0688 108.259 98.96 108.521 98.7666 108.714C98.5731 108.908 98.3108 109.017 98.0372 109.017Z" fill="#BBC7DB"/>
<path d="M98.0372 141.566H79.953C79.6794 141.566 79.4172 141.457 79.2237 141.263C79.0303 141.07 78.9214 140.808 78.9211 140.534V124.437C78.9214 124.163 79.0303 123.901 79.2237 123.707C79.4172 123.514 79.6794 123.405 79.953 123.405H98.0372C98.3108 123.405 98.5731 123.514 98.7666 123.707C98.96 123.901 99.0688 124.163 99.0691 124.437V140.534C99.0688 140.808 98.96 141.07 98.7666 141.263C98.5731 141.457 98.3108 141.566 98.0372 141.566Z" fill="#BBC7DB"/>
<path d="M160.642 62.2234H122.967C122.396 62.2234 121.849 61.9967 121.445 61.5931C121.042 61.1896 120.815 60.6422 120.815 60.0714C120.815 59.5007 121.042 58.9533 121.445 58.5497C121.849 58.1462 122.396 57.9194 122.967 57.9194H160.642C161.213 57.9194 161.76 58.1462 162.164 58.5497C162.567 58.9533 162.794 59.5007 162.794 60.0714C162.794 60.6422 162.567 61.1896 162.164 61.5931C161.76 61.9967 161.213 62.2234 160.642 62.2234Z" fill="#899DB9"/>
<path d="M169.519 69.4864H122.967C122.685 69.4864 122.405 69.4307 122.144 69.3226C121.883 69.2144 121.645 69.0559 121.445 68.8561C121.246 68.6562 121.087 68.419 120.979 68.1579C120.871 67.8968 120.815 67.617 120.815 67.3344C120.815 67.0518 120.871 66.7719 120.979 66.5108C121.087 66.2497 121.246 66.0125 121.445 65.8127C121.645 65.6128 121.883 65.4543 122.144 65.3462C122.405 65.238 122.685 65.1824 122.967 65.1824H169.519C170.09 65.1824 170.637 65.4091 171.041 65.8127C171.444 66.2163 171.671 66.7636 171.671 67.3344C171.671 67.9051 171.444 68.4525 171.041 68.8561C170.637 69.2597 170.09 69.4864 169.519 69.4864Z" fill="#899DB9"/>
<path d="M114.629 78.2883H79.8961C79.6226 78.288 79.3603 78.1792 79.1668 77.9857C78.9734 77.7922 78.8646 77.53 78.8643 77.2564V50.1493C78.8646 49.8757 78.9734 49.6134 79.1668 49.42C79.3603 49.2265 79.6226 49.1177 79.8961 49.1174H114.629C114.903 49.1177 115.165 49.2265 115.358 49.42C115.552 49.6134 115.661 49.8757 115.661 50.1493V77.2564C115.661 77.53 115.552 77.7922 115.358 77.9857C115.165 78.1792 114.903 78.288 114.629 78.2883Z" fill="#7288A6"/>
</g>
<defs>
<clipPath id="clip0_9438_6674">
<rect width="210" height="188.474" fill="white"/>
</clipPath>
</defs>
</svg>
