<svg width="210" height="137" viewBox="0 0 210 137" fill="none" xmlns="http://www.w3.org/2000/svg">
<path d="M42.398 18.1056C47.3977 18.1056 51.4508 14.0525 51.4508 9.05279C51.4508 4.05307 47.3977 0 42.398 0C37.3983 0 33.3452 4.05307 33.3452 9.05279C33.3452 14.0525 37.3983 18.1056 42.398 18.1056Z" fill="#899DB9"/>
<path d="M63.3057 3.01685C62.906 3.01756 62.5229 3.17684 62.2405 3.45972C61.9582 3.74259 61.7996 4.12596 61.7996 4.52565C61.7996 4.92534 61.9582 5.30869 62.2405 5.59157C62.5229 5.87444 62.906 6.03372 63.3057 6.03444H173.466C173.865 6.03372 174.248 5.87444 174.531 5.59157C174.813 5.30869 174.972 4.92534 174.972 4.52565C174.972 4.12596 174.813 3.74259 174.531 3.45972C174.248 3.17684 173.865 3.01756 173.466 3.01685H63.3057Z" fill="#899DB9"/>
<path d="M63.3059 12.0706C62.9058 12.0697 62.5217 12.2279 62.2381 12.5102C61.9546 12.7926 61.7948 13.176 61.7939 13.5762C61.7931 13.9763 61.9513 14.3604 62.2336 14.644C62.516 14.9275 62.8994 15.0873 63.2996 15.0882H132.944C133.142 15.0885 133.339 15.0497 133.522 14.9741C133.705 14.8984 133.872 14.7873 134.012 14.6472C134.153 14.5071 134.264 14.3406 134.34 14.1574C134.416 13.9741 134.455 13.7777 134.455 13.5794C134.455 13.381 134.416 13.1846 134.34 13.0013C134.264 12.8181 134.153 12.6517 134.012 12.5115C133.872 12.3714 133.705 12.2603 133.522 12.1846C133.339 12.109 133.142 12.0702 132.944 12.0706H63.3059Z" fill="#899DB9"/>
<path d="M0 34.5288V136.017H202.005V34.5288H0ZM201.033 59.658H151.746V35.5H201.033V59.658ZM101.488 59.658V35.5H150.775V59.658H101.488ZM150.775 60.6292V84.7872H101.488V60.6292H150.775ZM100.517 59.658H51.2295V35.5H100.517V59.658ZM100.517 60.6292V84.7872H51.2295V60.6292H100.517ZM50.2584 84.7872H0.971176V60.6292H50.2584V84.7872ZM50.2584 85.7583V109.916H0.971176V85.7583H50.2584ZM51.2295 85.7583H100.517V109.916H51.2295V85.7583ZM100.517 110.888V135.046H51.2295V110.888H100.517ZM101.488 110.888H150.775V135.046H101.488V110.888ZM101.488 109.916V85.7583H150.775V109.916H101.488ZM151.746 85.7583H201.033V109.916H151.746V85.7583ZM151.746 84.7872V60.6292H201.033V84.7872H151.746ZM50.2584 35.5V59.658H0.971176V35.5H50.2584ZM0.971176 110.888H50.2584V135.046H0.971176V110.888ZM151.746 135.046V110.888H201.033V135.046H151.746Z" fill="#BBC7DB"/>
<path d="M82.9248 61.8323L62.825 61.3772C60.8145 53.589 61.7197 46.1735 63.3241 39.3401L83.4238 39.7952C81.3907 46.9796 81.219 54.5632 82.9248 61.8323Z" fill="#122D46"/>
<path d="M66.7673 44.2108L66.778 43.446L77.1915 43.818L77.1803 44.5828L66.7673 44.2108Z" fill="#899DB9"/>
<path d="M66.7239 47.2694L66.7346 46.5046L77.1475 46.8771L77.1368 47.6419L66.7239 47.2694Z" fill="#899DB9"/>
<path d="M66.6792 50.329L66.6904 49.5642L77.1033 49.9367L77.0926 50.7015L66.6792 50.329Z" fill="#899DB9"/>
<path d="M66.6355 53.3876L66.6462 52.6228L77.0596 52.9952L77.0484 53.76L66.6355 53.3876Z" fill="#899DB9"/>
<path d="M66.592 56.4472L66.6027 55.6824L77.0162 56.0548L77.005 56.8196L66.592 56.4472Z" fill="#899DB9"/>
<path d="M39.2219 118.161L19.1221 117.706C17.1116 109.917 18.0168 102.502 19.6212 95.6685L39.7209 96.1235C37.6878 103.308 37.5161 110.892 39.2219 118.161Z" fill="#A1B2CA"/>
<path d="M23.0645 100.539L23.0751 99.7742L33.4886 100.146L33.4774 100.911L23.0645 100.539Z" fill="#899DB9"/>
<path d="M23.0208 103.598L23.0314 102.833L33.4444 103.205L33.4337 103.97L23.0208 103.598Z" fill="#899DB9"/>
<path d="M22.9763 106.657L22.9875 105.892L33.4004 106.265L33.3897 107.03L22.9763 106.657Z" fill="#899DB9"/>
<path d="M22.9326 109.716L22.9433 108.951L33.3567 109.323L33.3456 110.088L22.9326 109.716Z" fill="#899DB9"/>
<path d="M22.8889 112.775L22.8996 112.01L33.313 112.383L33.3019 113.148L22.8889 112.775Z" fill="#899DB9"/>
<path d="M144.109 92.4243L124.009 91.9692C121.999 84.181 122.904 76.7655 124.508 69.9321L144.608 70.3872C142.575 77.5716 142.403 85.1552 144.109 92.4243Z" fill="#A1B2CA"/>
<path d="M127.951 74.8029L127.962 74.0381L138.376 74.41L138.364 75.1748L127.951 74.8029Z" fill="#899DB9"/>
<path d="M127.908 77.8615L127.919 77.0967L138.332 77.4691L138.321 78.2339L127.908 77.8615Z" fill="#899DB9"/>
<path d="M127.863 80.921L127.874 80.1562L138.287 80.5287L138.277 81.2935L127.863 80.921Z" fill="#899DB9"/>
<path d="M127.82 83.9796L127.83 83.2148L138.244 83.5873L138.233 84.3521L127.82 83.9796Z" fill="#899DB9"/>
<path d="M127.776 87.0392L127.787 86.2744L138.2 86.6469L138.189 87.4117L127.776 87.0392Z" fill="#899DB9"/>
<path d="M135.368 87.5686L115.268 87.1135C113.258 79.3253 114.163 71.9098 115.767 65.0764L135.867 65.5315C133.834 72.7159 133.662 80.2995 135.368 87.5686Z" fill="#122D46"/>
<path d="M119.211 69.9469L119.222 69.1821L129.635 69.5541L129.624 70.3189L119.211 69.9469Z" fill="#899DB9"/>
<path d="M119.167 73.0055L119.178 72.2407L129.591 72.6132L129.58 73.378L119.167 73.0055Z" fill="#899DB9"/>
<path d="M119.123 76.0651L119.134 75.3003L129.547 75.6727L129.536 76.4375L119.123 76.0651Z" fill="#899DB9"/>
<path d="M119.079 79.1237L119.09 78.3589L129.503 78.7313L129.492 79.4961L119.079 79.1237Z" fill="#899DB9"/>
<path d="M119.035 82.1833L119.046 81.4185L129.46 81.7909L129.448 82.5557L119.035 82.1833Z" fill="#899DB9"/>
<path d="M209.501 131.927L189.401 131.472C187.391 123.683 188.296 116.268 189.9 109.435L210 109.89C207.967 117.074 207.795 124.658 209.501 131.927Z" fill="#122D46"/>
<path d="M193.344 114.304L193.355 113.539L203.768 113.912L203.757 114.677L193.344 114.304Z" fill="#899DB9"/>
<path d="M193.3 117.364L193.311 116.599L203.724 116.972L203.713 117.736L193.3 117.364Z" fill="#899DB9"/>
<path d="M193.255 120.423L193.267 119.659L203.679 120.031L203.669 120.795L193.255 120.423Z" fill="#899DB9"/>
<path d="M193.212 123.483L193.223 122.718L203.636 123.09L203.625 123.855L193.212 123.483Z" fill="#899DB9"/>
<path d="M193.168 126.542L193.179 125.777L203.592 126.149L203.581 126.914L193.168 126.542Z" fill="#899DB9"/>
<path d="M187.812 65.7173L167.712 65.2622C165.701 57.474 166.607 50.0585 168.211 43.2251L188.311 43.6802C186.278 50.8646 186.106 58.4482 187.812 65.7173Z" fill="#A1B2CA"/>
<path d="M171.654 48.0954L171.665 47.3306L182.078 47.7025L182.067 48.4673L171.654 48.0954Z" fill="#899DB9"/>
<path d="M171.611 51.154L171.622 50.3892L182.034 50.7616L182.024 51.5264L171.611 51.154Z" fill="#899DB9"/>
<path d="M171.566 54.2135L171.577 53.4487L181.99 53.8212L181.98 54.586L171.566 54.2135Z" fill="#899DB9"/>
<path d="M171.522 57.2724L171.533 56.5076L181.947 56.88L181.935 57.6448L171.522 57.2724Z" fill="#899DB9"/>
<path d="M171.479 60.3319L171.49 59.5671L181.903 59.9396L181.892 60.7044L171.479 60.3319Z" fill="#899DB9"/>
</svg>
