<svg fill="none" height="21" viewBox="0 0 21 21" width="21" xmlns="http://www.w3.org/2000/svg"><g stroke="#fff" stroke-linecap="round" stroke-linejoin="round" stroke-width="1.5"><path d="m14.4028 15.6144h-3.3889l-3.77015 2.5077c-.55916.3728-1.31318-.0254-1.31318-.7032v-1.8045c-2.54167 0-4.23611-1.6945-4.23611-4.2362v-5.08334c0-2.54167 1.69444-4.23611 4.23611-4.23611h8.47223c2.5417 0 4.2361 1.69444 4.2361 4.23611v5.08334c0 2.5417-1.6944 4.2362-4.2361 4.2362z" stroke-miterlimit="10"/><path d="m10.1666 9.62444v-.17789c0-.57611.3559-.88112.7117-1.12682.3474-.23722.6947-.54221.6947-1.10138 0-.77944-.6269-1.40641-1.4064-1.40641-.77942 0-1.40635.62697-1.40635 1.40641"/><path d="m10.1628 11.6493h.0077"/></g></svg>