<svg width="210" height="178" viewBox="0 0 210 178" fill="none" xmlns="http://www.w3.org/2000/svg">
<g clip-path="url(#clip0_11055_15674)">
<path d="M112.32 24.9485C119.286 19.8021 129.095 17.8293 136.769 21.8441C128.129 25.5954 121.095 32.2817 116.911 40.7201C115.309 43.9803 113.866 47.7732 110.561 49.28C108.504 50.2175 106.077 50.0365 103.947 49.2795C101.818 48.5223 99.9234 47.2362 98.0553 45.9637L97.4951 45.8963C100.82 37.8983 105.353 30.0948 112.32 24.9485Z" fill="#D6DDEA"/>
<path d="M136.706 22.015C129.54 22.2395 122.628 24.7161 116.95 29.093C115.711 30.0135 114.625 31.1236 113.731 32.3824C112.9 33.6368 112.421 35.0906 112.342 36.593C112.241 37.9924 112.299 39.4355 111.859 40.7858C111.623 41.4737 111.245 42.104 110.749 42.6354C110.253 43.1668 109.65 43.5874 108.98 43.8695C107.329 44.6158 105.508 44.7243 103.723 44.7685C101.742 44.8176 99.6833 44.8372 97.8814 45.7701C97.663 45.8832 97.5004 45.5378 97.7184 45.4249C100.853 43.8018 104.517 44.8608 107.812 43.8948C109.349 43.444 110.76 42.5272 111.378 40.9932C111.917 39.6518 111.859 38.1636 111.949 36.7458C112.005 35.2791 112.418 33.8482 113.154 32.5781C113.98 31.2779 115.022 30.1278 116.234 29.1771C118.929 26.9931 121.951 25.2465 125.189 24.0012C128.876 22.5594 132.782 21.759 136.739 21.6346C136.984 21.627 136.949 22.0074 136.706 22.015Z" fill="#F1F4F8"/>
<path d="M118.691 27.576C118.086 26.5237 117.874 25.2906 118.095 24.0969C118.315 22.9032 118.952 21.8266 119.893 21.0595C120.084 20.9049 120.333 21.1943 120.142 21.349C119.265 22.0618 118.671 23.0647 118.468 24.1767C118.265 25.2887 118.467 26.4365 119.036 27.4131C119.159 27.6254 118.814 27.7872 118.691 27.576Z" fill="#F1F4F8"/>
<path d="M112.296 35.8768C114.686 36.5448 117.24 36.2875 119.448 35.1562C119.667 35.0439 119.83 35.3893 119.611 35.5014C117.311 36.6743 114.653 36.9367 112.167 36.2361C111.931 36.1692 112.061 35.8102 112.296 35.8768Z" fill="#F1F4F8"/>
<path d="M128.857 23.0654C129.006 23.5213 129.266 23.9331 129.614 24.2636C129.961 24.5942 130.386 24.8332 130.849 24.9592C131.086 25.0231 130.956 25.382 130.72 25.3185C130.209 25.1769 129.741 24.9124 129.356 24.548C128.971 24.1837 128.681 23.7306 128.511 23.2283C128.491 23.1823 128.49 23.1305 128.507 23.0833C128.524 23.0361 128.558 22.9971 128.603 22.9742C128.648 22.9529 128.701 22.9505 128.748 22.9676C128.796 22.9846 128.835 23.0198 128.857 23.0654Z" fill="#F1F4F8"/>
<path d="M142.854 50.5314C142.705 50.4957 142.555 50.46 142.403 50.4264C140.391 49.9571 138.344 49.652 136.283 49.5142C136.123 49.501 135.962 49.4901 135.803 49.4815C130.832 49.2024 125.854 49.8485 121.119 51.3869C119.236 52.0008 117.402 52.7571 115.633 53.6492C113.191 54.8815 110.641 56.4119 108.011 56.7552C107.737 56.7941 107.461 56.8159 107.185 56.8207L97.4566 46.5849C97.4461 46.5505 97.4333 46.5183 97.4227 46.4838L97.0156 46.0929C97.1036 46.0405 97.196 45.988 97.284 45.9357C97.3349 45.905 97.388 45.8767 97.439 45.8461C97.4736 45.8265 97.5083 45.8069 97.5385 45.7871C97.55 45.7806 97.5616 45.7741 97.5708 45.7697C97.6009 45.75 97.631 45.7348 97.6588 45.7173C98.1744 45.4228 98.6931 45.1313 99.2147 44.843C99.217 44.8408 99.217 44.8408 99.2215 44.8409C103.201 42.6542 107.399 40.7806 111.747 39.6036C111.878 39.5682 112.011 39.5305 112.146 39.4998C114.109 38.9802 116.112 38.6218 118.133 38.4284C119.24 38.326 120.352 38.2798 121.464 38.2898C124.337 38.3213 127.187 38.8044 129.909 39.7215C135.337 41.5506 140.119 45.095 142.663 50.1437C142.728 50.2729 142.791 50.4 142.854 50.5314Z" fill="#D6DDEA"/>
<path d="M142.698 50.6318C136.841 46.4969 129.831 44.3124 122.662 44.3886C121.119 44.3776 119.583 44.61 118.112 45.0772C116.694 45.5786 115.435 46.4507 114.468 47.6029C113.544 48.6591 112.722 49.8464 111.558 50.6597C110.956 51.0671 110.274 51.3427 109.558 51.4683C108.842 51.5939 108.107 51.5667 107.402 51.3885C105.635 50.9902 104.115 49.9805 102.664 48.9414C101.052 47.7877 99.3968 46.5639 97.3964 46.2239C97.154 46.1827 97.2321 45.809 97.4742 45.8502C100.955 46.4416 103.242 49.4929 106.454 50.7053C107.953 51.2711 109.632 51.3886 111.048 50.5354C112.287 49.7894 113.136 48.5658 114.062 47.4883C114.989 46.3505 116.181 45.457 117.533 44.886C118.976 44.3454 120.5 44.0542 122.04 44.025C125.507 43.9038 128.971 44.3285 132.306 45.2834C136.118 46.3522 139.719 48.0652 142.954 50.3483C143.154 50.4897 142.897 50.7723 142.698 50.6318Z" fill="#F1F4F8"/>
<path d="M124.972 44.2282C125.123 43.0237 125.697 41.9119 126.591 41.0914C127.486 40.2709 128.643 39.7951 129.856 39.7489C130.101 39.7404 130.126 40.1215 129.88 40.13C128.75 40.1709 127.673 40.6142 126.841 41.38C126.01 42.1457 125.48 43.1835 125.346 44.3059C125.317 44.5498 124.943 44.4707 124.972 44.2282Z" fill="#F1F4F8"/>
<path d="M114.867 47.0057C116.372 48.9778 118.566 50.3099 121.011 50.7363C121.253 50.7783 121.175 51.152 120.933 51.11C118.39 50.6616 116.11 49.2707 114.547 47.215C114.399 47.019 114.719 46.8107 114.867 47.0057Z" fill="#F1F4F8"/>
<path d="M135.801 46.7452C135.646 47.1991 135.605 47.6844 135.684 48.1577C135.763 48.631 135.958 49.0773 136.251 49.4566C136.402 49.6507 136.082 49.8587 135.932 49.666C135.609 49.2454 135.395 48.7522 135.307 48.2295C135.219 47.7068 135.26 47.1705 135.427 46.6674C135.439 46.6187 135.469 46.5763 135.511 46.5488C135.553 46.5213 135.603 46.5108 135.653 46.5194C135.702 46.53 135.746 46.5596 135.773 46.6019C135.801 46.6441 135.811 46.6956 135.801 46.7452Z" fill="#F1F4F8"/>
<path d="M110.484 32.6046H109.73V11.9528C109.73 10.3831 109.42 8.82881 108.82 7.37864C108.219 5.92846 107.339 4.6108 106.229 3.50088C105.119 2.39097 103.801 1.51054 102.351 0.909853C100.901 0.30917 99.3466 8.46209e-07 97.7769 0H54.0231C52.4534 -3.3847e-06 50.8991 0.30916 49.449 0.909838C47.9988 1.51052 46.6811 2.39095 45.5712 3.50086C44.4613 4.61077 43.5809 5.92843 42.9802 7.37861C42.3795 8.82878 42.0703 10.3831 42.0703 11.9527V125.251C42.0703 128.421 43.3296 131.461 45.5712 133.702C47.8128 135.944 50.853 137.203 54.0231 137.203H97.7769C100.947 137.203 103.987 135.944 106.229 133.703C108.47 131.461 109.73 128.421 109.73 125.251V47.305H110.484V32.6046Z" fill="#122D46"/>
<path d="M98.255 3.10963H92.5437C92.8063 3.75356 92.9066 4.4522 92.8356 5.144C92.7646 5.8358 92.5246 6.49954 92.1367 7.07674C91.7488 7.65394 91.2249 8.12688 90.6112 8.45391C89.9974 8.78094 89.3127 8.95202 88.6173 8.95207H63.5512C62.8558 8.95202 62.1711 8.78095 61.5573 8.45392C60.9436 8.12689 60.4197 7.65395 60.0318 7.07675C59.6439 6.49955 59.4038 5.83581 59.3329 5.144C59.2619 4.45219 59.3622 3.75355 59.6248 3.10962H54.2905C51.9231 3.10962 49.6527 4.05005 47.9787 5.72404C46.3047 7.39802 45.3643 9.66842 45.3643 12.0358V125.167C45.3643 126.34 45.5951 127.5 46.0437 128.583C46.4923 129.666 47.1498 130.65 47.9787 131.479C48.8075 132.308 49.7916 132.966 50.8745 133.414C51.9575 133.863 53.1182 134.094 54.2904 134.094H98.255C99.4272 134.094 100.588 133.863 101.671 133.414C102.754 132.966 103.738 132.308 104.567 131.479C105.396 130.65 106.053 129.666 106.502 128.583C106.95 127.5 107.181 126.34 107.181 125.167V12.0358C107.181 9.66842 106.241 7.39801 104.567 5.72404C102.893 4.05006 100.622 3.10963 98.255 3.10963Z" fill="#F1F4F8"/>
<path d="M77.1164 97.7515C73.8789 97.7546 70.6726 97.1191 67.681 95.8816C64.6893 94.644 61.9711 92.8287 59.6818 90.5394C57.3926 88.2502 55.5772 85.532 54.3397 82.5403C53.1022 79.5487 52.4667 76.3424 52.4697 73.1049C52.4651 68.5588 53.7198 64.1003 56.0945 60.2238C58.4693 56.3473 61.8713 53.2043 65.9234 51.1433C68.8606 49.6489 72.0672 48.7575 75.3543 48.5216C78.6413 48.2857 81.9424 48.71 85.0629 49.7696C90.5894 51.6529 95.268 55.4367 98.2653 60.4471C101.263 65.4575 102.384 71.3692 101.43 77.1293C100.476 82.8894 97.5089 88.1239 93.0562 91.9004C88.6036 95.677 82.9549 97.7505 77.1164 97.7515ZM77.1164 49.4248C73.3773 49.4138 69.69 50.2982 66.3628 52.0041C63.4545 53.4858 60.8839 55.5528 58.8124 58.0752C56.7408 60.5977 55.2132 63.5211 54.3252 66.662C53.4372 69.803 53.2082 73.0935 53.6524 76.3272C54.0967 79.5608 55.2046 82.6677 56.9067 85.4528C58.6087 88.238 60.8682 90.6411 63.5432 92.5115C66.2182 94.3819 69.2509 95.679 72.4511 96.3216C75.6512 96.9641 78.9497 96.9382 82.1393 96.2454C85.329 95.5526 88.3409 94.2078 90.9862 92.2956C92.2651 91.3728 93.4477 90.3235 94.5161 89.1635C97.641 85.7825 99.7121 81.5637 100.476 77.0236C101.24 72.4836 100.663 67.8193 98.8164 63.602C96.9698 59.3847 93.9335 55.7974 90.0793 53.2793C86.2251 50.7612 81.7202 49.4217 77.1164 49.4248Z" fill="#D6DDEA"/>
<path d="M23.7127 51.2317C24.3892 51.3166 25.0389 51.5487 25.616 51.9118C26.1931 52.2748 26.6836 52.76 27.0529 53.3332C27.4222 53.9063 27.6613 54.5535 27.7535 55.229C27.8456 55.9046 27.7885 56.5921 27.5862 57.2432L35.7751 64.0643L32.8437 70.0516L21.4147 60.2566C20.3434 59.8442 19.4606 59.0531 18.9336 58.0333C18.4065 57.0135 18.2719 55.8359 18.5552 54.7234C18.8384 53.611 19.5199 52.6411 20.4705 51.9976C21.421 51.354 22.5746 51.0815 23.7127 51.2317Z" fill="#FFB6B6"/>
<path d="M100.196 79.6773C100.031 77.9119 99.3523 74.7382 98.7763 73.5647C97.0052 68.9293 85.5621 65.1195 84.0254 64.6284L83.6356 60.2951L67.7361 58.5843L65.7191 64.1258L60.0167 66.265C59.6295 66.4094 59.2791 66.6377 58.9906 66.9335C58.702 67.2292 58.4825 67.5852 58.3477 67.9758L53.2316 69.4546L48.1831 70.9141L30.6437 58.5553L29.8156 59.0966L24.2807 62.7082L23.4268 63.2655L46.1243 83.7432L54.5557 81.765L60.8962 80.2733L61.4374 82.4706L60.036 90.19C64.0962 94.2517 69.4706 96.7339 75.1954 97.1915C80.9202 97.6491 86.6206 96.052 91.2744 92.6869L94.8763 89.4909C97.3867 86.7764 99.2397 83.5213 100.292 79.9769L100.196 79.6773Z" fill="#BBC7DB"/>
<path d="M80.6762 55.0404C86.6783 53.0532 89.9329 46.5766 87.9457 40.5746C85.9585 34.5726 79.4819 31.318 73.4799 33.3052C67.4779 35.2924 64.2233 41.7689 66.2105 47.7709C68.1977 53.773 74.6742 57.0276 80.6762 55.0404Z" fill="#FFB6B6"/>
<path d="M68.0374 31.122C69.1503 29.5327 70.8204 28.4202 72.7159 28.0056C74.59 27.6202 76.5406 27.978 78.1559 29.0035C79.9124 28.2959 81.8063 27.8265 83.667 28.0651C85.5277 28.3038 87.3513 29.3431 88.2123 31.0553C88.3934 31.4989 88.6131 31.9257 88.869 32.3307C89.6276 33.3427 91.0372 33.474 92.2821 33.5226C91.6527 33.8897 91.0232 34.2568 90.3936 34.6239C91.021 34.9162 91.6484 35.2085 92.2759 35.5009C91.4219 35.8269 90.5681 36.1529 89.7142 36.4788C91.7016 38.2258 92.1823 41.3348 91.4297 43.9414C90.7173 46.4092 89.0839 48.4867 87.2599 50.2652C86.9041 48.9381 87.2956 47.4993 87.5562 46.1254C87.8315 44.6736 87.8756 42.9761 86.8591 41.9511C86.1734 41.2597 85.1676 41.0508 84.2191 40.8831C79.4351 40.037 74.6068 39.4637 69.7577 39.166C69.1087 39.0763 68.4476 39.1438 67.8302 39.3628C66.6501 39.8872 66.176 41.3273 65.834 42.6042C65.6702 40.3629 65.801 38.1097 66.2232 35.9024C66.5467 34.213 67.0563 32.5221 68.0374 31.122Z" fill="#2F2E41"/>
<path d="M82.9128 108.799H69.3814C68.9114 108.799 68.4607 108.612 68.1284 108.28C67.7961 107.948 67.6094 107.497 67.6094 107.027C67.6094 106.557 67.7961 106.106 68.1284 105.774C68.4607 105.442 68.9114 105.255 69.3814 105.255H82.9128C83.3828 105.255 83.8335 105.442 84.1658 105.774C84.4981 106.106 84.6848 106.557 84.6848 107.027C84.6848 107.497 84.4981 107.948 84.1658 108.28C83.8335 108.612 83.3828 108.799 82.9128 108.799Z" fill="#67A24A"/>
<path d="M38.516 14.5383H1.29641C0.953427 14.5377 0.624675 14.4011 0.382344 14.1584C0.140013 13.9157 0.00390625 13.5867 0.00390625 13.2438C0.00390625 12.9008 0.140013 12.5718 0.382344 12.3291C0.624675 12.0864 0.953427 11.9498 1.29641 11.9492H38.516C38.8593 11.9492 39.1886 12.0856 39.4313 12.3284C39.6741 12.5712 39.8105 12.9004 39.8105 13.2438C39.8105 13.5871 39.6741 13.9164 39.4313 14.1591C39.1886 14.4019 38.8593 14.5383 38.516 14.5383Z" fill="#67A24A"/>
<path d="M60.0034 22.2417H1.29446C0.951145 22.2417 0.621894 22.1054 0.379136 21.8626C0.136378 21.6198 0 21.2906 0 20.9473C0 20.604 0.136378 20.2747 0.379136 20.032C0.621894 19.7892 0.951145 19.6528 1.29446 19.6528H60.0034C60.3467 19.6528 60.6759 19.7892 60.9187 20.032C61.1614 20.2747 61.2978 20.604 61.2978 20.9473C61.2978 21.2906 61.1614 21.6198 60.9187 21.8626C60.6759 22.1054 60.3467 22.2417 60.0034 22.2417Z" fill="#67A24A"/>
<path d="M48.7214 30.5959H1.29446C0.951145 30.5959 0.621893 30.4595 0.379136 30.2167C0.136378 29.974 0 29.6447 0 29.3014C0 28.9581 0.136378 28.6289 0.379136 28.3861C0.621893 28.1433 0.951145 28.007 1.29446 28.007H48.7214C49.0647 28.007 49.3939 28.1433 49.6367 28.3861C49.8794 28.6289 50.0158 28.9581 50.0158 29.3014C50.0158 29.6447 49.8794 29.974 49.6367 30.2167C49.3939 30.4595 49.0647 30.5959 48.7214 30.5959Z" fill="#D6DDEA"/>
<path d="M28.0382 38.3566H1.29446C0.951145 38.3566 0.621893 38.2202 0.379136 37.9775C0.136378 37.7347 0 37.4055 0 37.0622C0 36.7188 0.136378 36.3896 0.379136 36.1468C0.621893 35.9041 0.951145 35.7677 1.29446 35.7677H28.0382C28.3815 35.7677 28.7107 35.9041 28.9535 36.1468C29.1962 36.3896 29.3326 36.7188 29.3326 37.0622C29.3326 37.4055 29.1962 37.7347 28.9535 37.9775C28.7107 38.2202 28.3815 38.3566 28.0382 38.3566Z" fill="#D6DDEA"/>
<path d="M42.8138 46.1167H1.29632C0.953359 46.1162 0.624641 45.9796 0.382324 45.7369C0.140008 45.4942 0.00390625 45.1652 0.00390625 44.8223C0.00390625 44.4793 0.140008 44.1504 0.382324 43.9077C0.624641 43.665 0.953359 43.5284 1.29632 43.5278H42.8138C43.1568 43.5284 43.4855 43.665 43.7278 43.9077C43.9702 44.1504 44.1063 44.4793 44.1063 44.8223C44.1063 45.1652 43.9702 45.4942 43.7278 45.7369C43.4855 45.9796 43.1568 46.1162 42.8138 46.1167Z" fill="#D6DDEA"/>
<path d="M159.818 172.761L156.483 172.76L154.896 159.893L159.819 159.894L159.818 172.761Z" fill="#9F616A"/>
<path d="M161.13 177.377L148.394 177.377V177.216C148.394 175.901 148.916 174.64 149.846 173.711C150.775 172.781 152.036 172.259 153.351 172.259H153.351L155.677 170.494L160.018 172.259L161.13 172.259L161.13 177.377Z" fill="#2F2E41"/>
<path d="M157.873 112.288L156.402 94.3492L155.246 87.6161L161.717 86.1869L163.865 95.4049L161.994 112.786C162.371 113.248 162.602 113.813 162.656 114.407C162.71 115.002 162.585 115.599 162.297 116.122C162.009 116.644 161.571 117.069 161.04 117.341C160.509 117.614 159.908 117.721 159.316 117.649C158.723 117.578 158.166 117.331 157.715 116.94C157.264 116.549 156.94 116.032 156.785 115.456C156.629 114.879 156.65 114.27 156.844 113.705C157.038 113.141 157.397 112.647 157.873 112.288Z" fill="#9F616A"/>
<path d="M142.103 172.761L138.767 172.76L137.18 159.893L142.103 159.894L142.103 172.761Z" fill="#9F616A"/>
<path d="M136.76 116.354L135.282 118.912C135.282 118.912 133.657 119.356 134.188 124.653C134.719 129.95 134.742 161.333 137.312 165.195L137.777 168.511L142.632 168.975L142.754 166.032L148.542 125.153C148.542 125.153 151.951 165.284 154.771 166.266L155.789 169.609L160.238 169.611L159.975 165.671L160.262 115.94L136.76 116.354Z" fill="#2F2E41"/>
<path d="M135.137 118.718L135.035 118.691C138.088 107.274 137.207 92.4907 135.052 76.6158L135.052 76.5501L142.843 69.4136H149.609L156.316 73.742C160.652 75.9099 161.638 80.501 161.647 80.5473L161.654 80.5799L158.997 89.8535L160.998 116.673L161.001 116.704L160.989 116.733C160.342 118.375 158.606 118.141 156.596 117.87C154.59 117.6 147.196 120.073 144.929 120.073C140.499 120.073 135.454 118.799 135.137 118.718Z" fill="#BBC7DB"/>
<path d="M154.908 77.3565L157.815 76.092L161.644 80.7871L164.748 95.8321L154.116 94.2212L154.908 77.3565Z" fill="#BBC7DB"/>
<path d="M110.206 105.1L123.493 92.9581L128.11 87.9236L133.201 92.1669L127.225 99.5064L112.334 108.663C112.199 109.245 111.893 109.772 111.456 110.179C111.019 110.585 110.47 110.852 109.881 110.944C109.291 111.036 108.687 110.95 108.147 110.697C107.606 110.443 107.154 110.034 106.848 109.522C106.542 109.009 106.396 108.417 106.429 107.821C106.463 107.225 106.673 106.653 107.034 106.177C107.395 105.702 107.89 105.345 108.455 105.153C109.02 104.961 109.63 104.942 110.206 105.1Z" fill="#9F616A"/>
<path d="M123.201 93.0903L126.881 88.3113C126.912 88.2427 129.965 81.4199 132.611 78.4554C135.326 75.4144 137.463 76.9696 137.485 76.9863L137.538 77.0264L137.686 88.2564L127.496 100.432L123.201 93.0903Z" fill="#BBC7DB"/>
<path d="M151.676 62.6915C152.225 59.3104 149.929 56.1247 146.548 55.576C143.166 55.0273 139.981 57.3234 139.432 60.7046C138.883 64.0857 141.179 67.2715 144.561 67.8201C147.942 68.3688 151.127 66.0727 151.676 62.6915Z" fill="#9F616A"/>
<path d="M139.881 60.7773C139.881 60.7773 139.832 58.5969 139.556 57.6321C139.28 56.6674 138.729 55.8404 139.005 55.8404C139.28 55.8404 139.418 55.1513 139.418 55.1513C139.418 55.1513 139.694 55.0134 139.832 55.1513C139.97 55.2891 140.107 54.1865 140.107 54.1865C140.107 54.1865 140.245 53.773 140.383 54.0487C140.521 54.3243 140.521 54.1865 140.659 53.773C140.797 53.3595 141.486 53.0839 141.486 53.0839C141.486 53.0839 144.104 53.2217 144.518 52.6704C144.931 52.1191 149.617 52.5326 150.582 53.2217C151.547 53.9108 155.82 56.3917 155.13 58.4591C154.441 60.5265 152.458 65.2866 151.96 65.7639C151.174 66.5185 150.63 66.7906 146.911 67.5308C146.183 67.6756 142.467 65.2994 142.467 64.8859C142.467 64.4724 142.915 63.1612 142.195 62.9812C141.107 62.7091 140.984 64.0851 140.708 63.6717C140.433 63.2582 139.881 60.7773 139.881 60.7773Z" fill="#2F2E41"/>
<path d="M143.41 177.377L130.674 177.377V177.216C130.674 175.901 131.196 174.64 132.126 173.711C133.056 172.781 134.316 172.259 135.631 172.259H135.631L137.958 170.494L142.298 172.259L143.41 172.259L143.41 177.377Z" fill="#2F2E41"/>
<path d="M209.613 177.62H1.06916C0.967416 177.62 0.869849 177.58 0.797908 177.508C0.725967 177.436 0.685547 177.338 0.685547 177.237C0.685547 177.135 0.725967 177.037 0.797908 176.965C0.869849 176.894 0.967416 176.853 1.06916 176.853H209.613C209.715 176.853 209.813 176.894 209.885 176.965C209.957 177.037 209.997 177.135 209.997 177.237C209.997 177.338 209.957 177.436 209.885 177.508C209.813 177.58 209.715 177.62 209.613 177.62Z" fill="#D6DDEA"/>
</g>
<defs>
<clipPath id="clip0_11055_15674">
<rect width="210" height="177.62" fill="white"/>
</clipPath>
</defs>
</svg>
