<svg fill="none" height="21" viewBox="0 0 21 21" width="21" xmlns="http://www.w3.org/2000/svg"><g stroke="#fff" stroke-linecap="round" stroke-linejoin="round" stroke-width="1.5"><path d="m7.62501 18.6389h5.08329c4.2362 0 5.9306-1.6944 5.9306-5.9306v-5.08329c0-4.23611-1.6944-5.93055-5.9306-5.93055h-5.08329c-4.23611 0-5.93055 1.69444-5.93055 5.93055v5.08329c0 4.2362 1.69444 5.9306 5.93055 5.9306z"/><path d="m7.62499 8.47223c.93581 0 1.69444-.75863 1.69444-1.69444 0-.93582-.75863-1.69445-1.69444-1.69445-.93582 0-1.69445.75863-1.69445 1.69445 0 .93581.75863 1.69444 1.69445 1.69444z"/><path d="m2.26208 16.0549 4.17681-2.8043c.66931-.4491 1.63514-.3982 2.23667.1186l.27958.2457c.66083.5676 1.72836.5676 2.38916 0l3.5245-3.0246c.6608-.5677 1.7283-.5677 2.3891 0l1.381 1.1861"/></g></svg>