<svg width="22" height="22" viewBox="0 0 15 13" fill="none" xmlns="http://www.w3.org/2000/svg">
<path d="M4.36775 5.12512C4.87881 5.072 5.27406 5.16444 5.41538 5.23456C5.478 5.26833 5.54676 5.28918 5.6176 5.29587C5.68843 5.30255 5.75988 5.29494 5.82772 5.27349C5.89555 5.25204 5.95839 5.21718 6.01249 5.17098C6.0666 5.12478 6.11087 5.06818 6.14269 5.00455C6.17451 4.94091 6.19322 4.87154 6.19772 4.80053C6.20221 4.72953 6.1924 4.65834 6.16886 4.5912C6.14532 4.52406 6.10854 4.46234 6.06069 4.40968C6.01284 4.35703 5.9549 4.31452 5.89031 4.28469C5.51737 4.09769 4.90431 4.001 4.25725 4.069C3.23725 4.17525 2.1875 5.06137 2.1875 6.50956C2.1875 7.98112 3.30738 8.95331 4.63125 8.95331C5.2475 8.95331 5.8 8.66431 6.11556 8.36575C6.39394 8.10225 6.4375 7.75269 6.4375 7.53381V6.50956C6.4375 6.36867 6.38153 6.23354 6.2819 6.13391C6.18227 6.03428 6.04715 5.97831 5.90625 5.97831H5.04881C4.90792 5.97831 4.77279 6.03428 4.67316 6.13391C4.57353 6.23354 4.51756 6.36867 4.51756 6.50956C4.51756 6.65046 4.57353 6.78558 4.67316 6.88521C4.77279 6.98484 4.90792 7.04081 5.04881 7.04081H5.375V7.53381C5.37498 7.55909 5.37285 7.58433 5.36863 7.60925C5.16176 7.78382 4.90182 7.88308 4.63125 7.89081C3.85456 7.89081 3.25 7.35425 3.25 6.50956C3.25 5.64044 3.85244 5.17931 4.36775 5.12512ZM8.5625 4.59812C8.5625 4.45723 8.50653 4.3221 8.4069 4.22247C8.30727 4.12285 8.17215 4.06687 8.03125 4.06687C7.89035 4.06687 7.75523 4.12285 7.6556 4.22247C7.55597 4.3221 7.5 4.45723 7.5 4.59812V8.42313C7.5 8.56402 7.55597 8.69915 7.6556 8.79878C7.75523 8.8984 7.89035 8.95438 8.03125 8.95438C8.17215 8.95438 8.30727 8.8984 8.4069 8.79878C8.50653 8.69915 8.5625 8.56402 8.5625 8.42313V4.59812ZM10.1562 4.06687C10.0154 4.06687 9.88023 4.12285 9.7806 4.22247C9.68097 4.3221 9.625 4.45723 9.625 4.59812V8.42313C9.625 8.56402 9.68097 8.69915 9.7806 8.79878C9.88023 8.8984 10.0154 8.95438 10.1562 8.95438C10.2971 8.95438 10.4323 8.8984 10.5319 8.79878C10.6315 8.69915 10.6875 8.56402 10.6875 8.42313V7.03762L11.7532 7.03125C11.8941 7.0304 12.0289 6.97362 12.1279 6.8734C12.2269 6.77317 12.2821 6.63771 12.2812 6.49681C12.2804 6.35592 12.2236 6.22113 12.1234 6.1221C12.0232 6.02306 11.8877 5.9679 11.7468 5.96875L10.6875 5.97512V5.12831H12.2812C12.4221 5.12831 12.5573 5.07234 12.6569 4.97271C12.7565 4.87308 12.8125 4.73796 12.8125 4.59706C12.8125 4.45617 12.7565 4.32104 12.6569 4.22141C12.5573 4.12178 12.4221 4.06581 12.2812 4.06581H10.1562V4.06687ZM2.71875 0.125C2.01427 0.125 1.33864 0.404854 0.840498 0.902998C0.342354 1.40114 0.0625 2.07677 0.0625 2.78125V10.2188C0.0625 10.9232 0.342354 11.5989 0.840498 12.097C1.33864 12.5951 2.01427 12.875 2.71875 12.875H12.2812C12.9857 12.875 13.6614 12.5951 14.1595 12.097C14.6576 11.5989 14.9375 10.9232 14.9375 10.2188V2.78125C14.9375 2.07677 14.6576 1.40114 14.1595 0.902998C13.6614 0.404854 12.9857 0.125 12.2812 0.125H2.71875ZM1.125 2.78125C1.125 2.35856 1.29291 1.95318 1.5918 1.6543C1.89068 1.35541 2.29606 1.1875 2.71875 1.1875H12.2812C12.7039 1.1875 13.1093 1.35541 13.4082 1.6543C13.7071 1.95318 13.875 2.35856 13.875 2.78125V10.2188C13.875 10.6414 13.7071 11.0468 13.4082 11.3457C13.1093 11.6446 12.7039 11.8125 12.2812 11.8125H2.71875C2.29606 11.8125 1.89068 11.6446 1.5918 11.3457C1.29291 11.0468 1.125 10.6414 1.125 10.2188V2.78125Z" fill="white"/>
</svg>
