<svg fill="none" height="21" viewBox="0 0 21 21" width="21" xmlns="http://www.w3.org/2000/svg"><g stroke="#fff" stroke-linecap="round" stroke-linejoin="round" stroke-width="1.5"><path d="m15.25 6.06611c-.0508-.00847-.1101-.00847-.161 0-1.1691-.04236-2.1011-.99972-2.1011-2.18583 0-1.21153.9743-2.18584 2.1858-2.18584 1.2116 0 2.1859.98278 2.1859 2.18584-.0085 1.18611-.9404 2.14347-2.1096 2.18583z"/><path d="m14.3773 12.2339c1.1607.1949 2.4401-.0085 3.3381-.61 1.1946-.7964 1.1946-2.10112 0-2.89751-.9065-.60153-2.2028-.80486-3.3635-.60153"/><path d="m5.05783 6.06611c.05083-.00847.11013-.00847.16097 0 1.16916-.04236 2.10111-.99972 2.10111-2.18583 0-1.21153-.97431-2.18584-2.18583-2.18584-1.21153 0-2.18584.98278-2.18584 2.18584.00847 1.18611.94042 2.14347 2.10959 2.18583z"/><path d="m5.93052 12.2339c-1.16069.1949-2.43999-.0085-3.33805-.61-1.19458-.7964-1.19458-2.10112 0-2.89751.90653-.60153 2.20278-.80486 3.36347-.60153"/><path d="m10.1666 12.3949c-.0508-.0085-.1101-.0085-.1609 0-1.16921-.0424-2.10116-.9998-2.10116-2.1859 0-1.2115.9743-2.18581 2.18586-2.18581 1.2115 0 2.1858.98278 2.1858 2.18581-.0085 1.1861-.9404 2.152-2.1096 2.1859z"/><path d="m7.70124 15.0636c-1.19459.7964-1.19459 2.1011 0 2.8975 1.35555.9065 3.57526.9065 4.93086 0 1.1946-.7964 1.1946-2.1011 0-2.8975-1.3471-.898-3.57531-.898-4.93086 0z"/></g></svg>