<svg fill="none" height="35" viewBox="0 0 35 35" width="35" xmlns="http://www.w3.org/2000/svg" xmlns:xlink="http://www.w3.org/1999/xlink"><filter id="a" color-interpolation-filters="sRGB" filterUnits="userSpaceOnUse" height="45" width="45" x="-5" y="-5"><feFlood flood-opacity="0" result="BackgroundImageFix"/><feGaussianBlur in="BackgroundImage" stdDeviation="2.5"/><feComposite in2="SourceAlpha" operator="in" result="effect1_backgroundBlur_1172_7169"/><feBlend in="SourceGraphic" in2="effect1_backgroundBlur_1172_7169" mode="normal" result="shape"/></filter><g filter="url(#a)"><circle cx="17.5" cy="17.5" fill="#fff" fill-opacity=".2" r="17.5"/><circle cx="17.5" cy="17.5" r="17.25" stroke="#fff" stroke-width=".5"/></g><path clip-rule="evenodd" d="m10.85 12.7498c0-.252.1001-.4936.2783-.6717.1781-.1782.4198-.2783.6717-.2783h11.4c.252 0 .4936.1001.6718.2783.1781.1781.2782.4197.2782.6717s-.1001.4936-.2782.6718c-.1782.1781-.4198.2782-.6718.2782h-11.4c-.2519 0-.4936-.1001-.6717-.2782-.1782-.1782-.2783-.4198-.2783-.6718zm0 4.75c0-.252.1001-.4936.2783-.6717.1781-.1782.4198-.2783.6717-.2783h5.7c.252 0 .4936.1001.6718.2783.1781.1781.2782.4197.2782.6717s-.1001.4936-.2782.6718c-.1782.1781-.4198.2782-.6718.2782h-5.7c-.2519 0-.4936-.1001-.6717-.2782-.1782-.1782-.2783-.4198-.2783-.6718zm0 4.75c0-.252.1001-.4936.2783-.6717.1781-.1782.4198-.2783.6717-.2783h11.4c.252 0 .4936.1001.6718.2783.1781.1781.2782.4197.2782.6717s-.1001.4936-.2782.6718c-.1782.1781-.4198.2782-.6718.2782h-11.4c-.2519 0-.4936-.1001-.6717-.2782-.1782-.1782-.2783-.4198-.2783-.6718z" fill="#fff" fill-rule="evenodd"/></svg>