<svg enable-background="new 0 0 490.4 490.4" viewBox="0 0 490.4 490.4" xmlns="http://www.w3.org/2000/svg"><path d="m222.5 453.7c6.1 6.1 14.3 9.5 22.9 9.5 8.5 0 16.9-3.5 22.9-9.5l179.7-179.7c27.3-27.3 42.3-63.6 42.4-102.1 0-38.6-15-74.9-42.3-102.2s-63.5-42.3-102.1-42.3c-37.9 0-73.6 14.5-100.7 40.9-27.2-26.5-63-41.1-101-41.1-38.5 0-74.7 15-102 42.2-27.3 27.3-42.3 63.6-42.3 102.2 0 38.5 15.1 74.8 42.4 102.1zm-162.8-366.9c22.6-22.6 52.7-35.1 84.7-35.1s62.2 12.5 84.9 35.2l7.4 7.4c2.3 2.3 5.4 3.6 8.7 3.6 3.2 0 6.4-1.3 8.7-3.6l7.2-7.2c22.7-22.7 52.8-35.2 84.9-35.2 32 0 62.1 12.5 84.7 35.1 22.7 22.7 35.1 52.8 35.1 84.8s-12.5 62.1-35.2 84.8l-179.8 179.8c-2.9 2.9-8.2 2.9-11.2 0l-180-180c-22.7-22.7-35.2-52.8-35.2-84.8s12.5-62.1 35.1-84.8z"/></svg>