<svg width="68" height="68" viewBox="0 0 68 68" fill="none" xmlns="http://www.w3.org/2000/svg">
<path d="M54.9327 25.7665V21.5998C54.9327 12.5998 52.766 0.666504 33.9993 0.666504C15.2327 0.666504 13.066 12.5998 13.066 21.5998V25.7665C3.73268 26.9332 0.666016 31.6665 0.666016 43.2998V49.4998C0.666016 63.1665 4.83268 67.3332 18.4993 67.3332H49.4993C63.166 67.3332 67.3327 63.1665 67.3327 49.4998V43.2998C67.3327 31.6665 64.266 26.9332 54.9327 25.7665ZM33.9993 56.4665C28.4327 56.4665 23.9327 51.9332 23.9327 46.3998C23.9327 40.8332 28.466 36.3332 33.9993 36.3332C39.5327 36.3332 44.066 40.8665 44.066 46.3998C44.066 51.9665 39.566 56.4665 33.9993 56.4665ZM18.4993 25.4665C18.2327 25.4665 17.9993 25.4665 17.7327 25.4665V21.5998C17.7327 11.8332 20.4993 5.33317 33.9993 5.33317C47.4993 5.33317 50.266 11.8332 50.266 21.5998V25.4998C49.9993 25.4998 49.766 25.4998 49.4993 25.4998H18.4993V25.4665Z" fill="#33C481"/>
</svg>
