<svg width="80" height="80" viewBox="0 0 80 80" fill="none" xmlns="http://www.w3.org/2000/svg">
<path d="M39.9997 57.8335C43.0005 57.8335 45.4331 55.4009 45.4331 52.4001C45.4331 49.3994 43.0005 46.9668 39.9997 46.9668C36.999 46.9668 34.5664 49.3994 34.5664 52.4001C34.5664 55.4009 36.999 57.8335 39.9997 57.8335Z" fill="#33C481"/>
<path d="M60.9327 31.7665V27.5998C60.9327 18.5998 58.766 6.6665 39.9993 6.6665C21.2327 6.6665 19.066 18.5998 19.066 27.5998V31.7665C9.73268 32.9332 6.66602 37.6665 6.66602 49.2998V55.4998C6.66602 69.1665 10.8327 73.3332 24.4993 73.3332H55.4993C69.166 73.3332 73.3327 69.1665 73.3327 55.4998V49.2998C73.3327 37.6665 70.266 32.9332 60.9327 31.7665ZM39.9993 62.4665C34.4327 62.4665 29.9327 57.9332 29.9327 52.3998C29.9327 46.8332 34.466 42.3332 39.9993 42.3332C45.5327 42.3332 50.066 46.8665 50.066 52.3998C50.066 57.9665 45.566 62.4665 39.9993 62.4665ZM24.4993 31.4665C24.2327 31.4665 23.9993 31.4665 23.7327 31.4665V27.5998C23.7327 17.8332 26.4993 11.3332 39.9993 11.3332C53.4993 11.3332 56.266 17.8332 56.266 27.5998V31.4998C55.9993 31.4998 55.766 31.4998 55.4993 31.4998H24.4993V31.4665Z" fill="#33C481"/>
</svg>
