<svg viewBox="0 0 403.71 403.81" xmlns="http://www.w3.org/2000/svg" xmlns:xlink="http://www.w3.org/1999/xlink"><linearGradient id="a" gradientTransform="matrix(1 0 0 -1 0 1079)" gradientUnits="userSpaceOnUse" x1="348.88" x2="751.59" y1="550.25" y2="550.25"><stop offset="0" stop-color="#a5d8bf"/><stop offset=".11" stop-color="#a5d8bf"/><stop offset=".13" stop-color="#a2cfbb" stop-opacity=".99"/><stop offset=".15" stop-color="#99bdb5" stop-opacity=".98"/><stop offset=".19" stop-color="#8ca1ab" stop-opacity=".96"/><stop offset=".23" stop-color="#7d7e9d" stop-opacity=".94"/><stop offset=".27" stop-color="#6e568d" stop-opacity=".92"/><stop offset=".31" stop-color="#612a7e" stop-opacity=".9"/><stop offset=".34" stop-color="#5c2a80"/><stop offset=".36" stop-color="#5d2a7f"/><stop offset=".41" stop-color="#672c7b"/><stop offset=".74" stop-color="#a23c66"/><stop offset=".78" stop-color="#aa5073"/><stop offset=".84" stop-color="#b56986"/><stop offset=".9" stop-color="#bd7a95"/><stop offset=".95" stop-color="#c486a0"/><stop offset="1" stop-color="#c68aa4"/></linearGradient><radialGradient id="b" cx="550.24" cy="550.25" gradientTransform="matrix(1 0 0 -1 0 1079)" gradientUnits="userSpaceOnUse" r="201.88"><stop offset="0" stop-color="#433393"/><stop offset=".37" stop-color="#423291"/><stop offset=".53" stop-color="#3f308a"/><stop offset=".64" stop-color="#392c7e"/><stop offset=".74" stop-color="#31256c"/><stop offset=".82" stop-color="#271d55"/><stop offset=".89" stop-color="#1a1439"/><stop offset=".96" stop-color="#0b0818"/><stop offset="1"/></radialGradient><linearGradient id="c" gradientTransform="matrix(1 0 0 -1 4.43 1079)" gradientUnits="userSpaceOnUse" x1="300.68" x2="781.36" y1="550.25" y2="550.25"><stop offset="0" stop-color="#7fc6b9"/><stop offset=".11" stop-color="#a5d8bf"/><stop offset=".13" stop-color="#a2cfbb" stop-opacity=".99"/><stop offset=".15" stop-color="#99bdb5" stop-opacity=".98"/><stop offset=".19" stop-color="#8ca1ab" stop-opacity=".96"/><stop offset=".23" stop-color="#7d7e9d" stop-opacity=".94"/><stop offset=".27" stop-color="#6e568d" stop-opacity=".92"/><stop offset=".31" stop-color="#612a7e" stop-opacity=".9"/><stop offset=".34" stop-color="#5c2a80"/><stop offset=".36" stop-color="#6b2980"/><stop offset=".46" stop-color="#832d79"/><stop offset=".74" stop-color="#c53e62"/><stop offset=".77" stop-color="#ca516f"/><stop offset=".83" stop-color="#d16c85"/><stop offset=".89" stop-color="#d67d96"/><stop offset=".95" stop-color="#da88a1"/><stop offset=".99" stop-color="#db8ba5"/></linearGradient><path d="m558.1 327.35c2.71.24 5.42.5 8.13.7 82.89 6.13 154.95 64.95 177.57 144.95a204.47 204.47 0 0 1 7 73.78c-.11 1.23-.27 2.45-.43 3.79-1.78-.09-3.49-.19-5.2-.25-3.65-.13-7.31-.33-11-.33q-137 0-273.91 0c-11.14 0-19.89-6.7-22.41-17.11a22.16 22.16 0 0 1 20.6-27.18h2.61 243.53c-.76-4-1.3-7.79-2.23-11.49q-19.73-79-94.81-110.45c-21.29-8.9-43.73-12-66.77-10.59-68.06 4.2-125.37 51.4-141.78 117.53-21.81 88.11 33.81 171.57 116.6 190 45.63 10.18 88 1.42 126.13-25.83a15.32 15.32 0 0 1 12.27-2.69c6.6 1 12.63 3.09 17.36 8.1a16.21 16.21 0 0 1 4.15 10.27 87.46 87.46 0 0 1 0 11.1 22.47 22.47 0 0 1 -1.13 5.26c-.17.57-.84 1-1.37 1.45a201.17 201.17 0 0 1 -144.54 40.57c-43.58-4.92-81.76-22-114.08-51.69-32.92-30.19-53.61-67.41-61.94-111.31-1.72-9.06-2.19-18.36-3.24-27.54-.08-.73-.21-1.45-.31-2.17v-14.92c.11-.72.27-1.45.31-2.17a198 198 0 0 1 9.44-52.24c25-77.51 94.78-132.64 175.68-138.82 2.71-.21 5.42-.47 8.13-.7q7.81-.03 15.64-.02z" fill="url(#a)" stroke="url(#b)" stroke-miterlimit="10" transform="translate(-348.38 -326.85)"/><path d="m558.1 327.35c2.71.24 5.42.5 8.13.7 82.89 6.13 154.95 64.95 177.57 144.95a204.47 204.47 0 0 1 7 73.78c-.11 1.23-.27 2.45-.43 3.79-1.78-.09-3.49-.19-5.2-.25-3.65-.13-7.31-.33-11-.33q-137 0-273.91 0c-11.14 0-19.89-6.7-22.41-17.11a22.16 22.16 0 0 1 20.6-27.18h2.61 243.53c-.76-4-1.3-7.79-2.23-11.49q-19.73-79-94.81-110.45c-21.29-8.9-43.73-12-66.77-10.59-68.06 4.2-125.37 51.4-141.78 117.53-21.81 88.11 33.81 171.57 116.6 190 45.63 10.18 88 1.42 126.13-25.83a15.32 15.32 0 0 1 12.27-2.69c6.6 1 12.63 3.09 17.36 8.1a16.21 16.21 0 0 1 4.15 10.27 87.46 87.46 0 0 1 0 11.1 22.47 22.47 0 0 1 -1.13 5.26c-.17.57-.84 1-1.37 1.45a201.17 201.17 0 0 1 -144.54 40.57c-43.58-4.92-81.76-22-114.08-51.69-32.92-30.19-53.61-67.41-61.94-111.31-1.72-9.06-2.19-18.36-3.24-27.54-.08-.73-.21-1.45-.31-2.17v-14.92c.11-.72.27-1.45.31-2.17a198 198 0 0 1 9.44-52.24c25-77.51 94.78-132.64 175.68-138.82 2.71-.21 5.42-.47 8.13-.7q7.81-.03 15.64-.02z" fill="url(#c)" transform="translate(-348.38 -326.85)"/></svg>