<svg enable-background="new 0 0 1930 1080" viewBox="0 0 1930 1080" xmlns="http://www.w3.org/2000/svg" xmlns:xlink="http://www.w3.org/1999/xlink"><linearGradient id="a" gradientUnits="userSpaceOnUse" x1="170.858" x2="407.5636" y1="518.8874" y2="518.8874"><stop offset="0" stop-color="#a5d8bf"/><stop offset=".1082" stop-color="#a5d8bf"/><stop offset=".1256" stop-color="#a2cfbb" stop-opacity=".9915"/><stop offset=".1533" stop-color="#99bdb5" stop-opacity=".9779"/><stop offset=".188" stop-color="#8ca1ab" stop-opacity=".9608"/><stop offset=".2283" stop-color="#7d7e9d" stop-opacity=".941"/><stop offset=".2727" stop-color="#6e568d" stop-opacity=".9192"/><stop offset=".3119" stop-color="#612a7e" stop-opacity=".9"/><stop offset=".3428" stop-color="#5c2a80"/><stop offset=".3582" stop-color="#5d2a7f"/><stop offset=".4081" stop-color="#672c7b"/><stop offset=".7397" stop-color="#a23c66"/><stop offset=".7762" stop-color="#aa5073"/><stop offset=".8364" stop-color="#b56986"/><stop offset=".895" stop-color="#bd7a95"/><stop offset=".9506" stop-color="#c486a0"/><stop offset="1" stop-color="#c68aa4"/></linearGradient><linearGradient id="b" gradientUnits="userSpaceOnUse" x1="145.1346" x2="427.6667" y1="518.8874" y2="518.8874"><stop offset="0" stop-color="#7fc6b9"/><stop offset=".1082" stop-color="#a5d8bf"/><stop offset=".1256" stop-color="#a2cfbb" stop-opacity=".9915"/><stop offset=".1533" stop-color="#99bdb5" stop-opacity=".9779"/><stop offset=".188" stop-color="#8ca1ab" stop-opacity=".9608"/><stop offset=".2283" stop-color="#7d7e9d" stop-opacity=".941"/><stop offset=".2727" stop-color="#6e568d" stop-opacity=".9192"/><stop offset=".3119" stop-color="#612a7e" stop-opacity=".9"/><stop offset=".3428" stop-color="#5c2a80"/><stop offset=".3582" stop-color="#6b2980"/><stop offset=".4566" stop-color="#832d79"/><stop offset=".7397" stop-color="#c53e62"/><stop offset=".7729" stop-color="#ca516f"/><stop offset=".8326" stop-color="#d16c85"/><stop offset=".8907" stop-color="#d67d96"/><stop offset=".9458" stop-color="#da88a1"/><stop offset=".9948" stop-color="#db8ba5"/></linearGradient><linearGradient id="c" gradientUnits="userSpaceOnUse" x1="145.1346" x2="427.6667" y1="518.8874" y2="518.8874"><stop offset="0" stop-color="#433393"/><stop offset="1"/></linearGradient><path d="m293.83 400.51c1.59.14 3.19.29 4.78.41 48.72 3.6 91.07 38.19 104.37 85.19 4.02 14.21 5.39 28.66 4.13 43.37-.06.72-.16 1.44-.25 2.23-1.05-.05-2.05-.11-3.06-.15-2.15-.07-4.3-.19-6.44-.19-53.67-.01-107.33-.01-161-.01-6.55 0-11.69-3.94-13.17-10.06-1.9-7.88 4.01-15.68 12.11-15.98.51-.02 1.02-.01 1.53-.01h141.38 1.72c-.45-2.34-.77-4.58-1.31-6.75-7.73-30.94-26.34-52.64-55.73-64.92-12.51-5.23-25.7-7.07-39.25-6.22-40.01 2.5-73.69 30.24-83.31 69.11-12.82 51.79 19.87 100.84 68.54 111.7 26.82 5.98 51.69.84 74.13-15.18 2.31-1.65 4.52-2.02 7.16-1.61 3.88.61 7.42 1.82 10.2 4.76 1.61 1.71 2.26 3.81 2.44 6.03.17 2.16.11 4.35.01 6.52-.05 1.04-.36 2.08-.66 3.09-.1.34-.49.61-.8.85-14.82 11.37-31.39 18.86-49.74 22.4-11.67 2.25-23.42 2.77-35.22 1.44-25.62-2.89-48.05-12.96-67.05-30.38-19.35-17.74-31.51-39.62-36.41-65.42-1.01-5.33-1.29-10.79-1.9-16.19-.05-.43-.12-.85-.18-1.28 0-2.92 0-5.85 0-8.77.06-.43.16-.85.18-1.28.46-10.49 2.33-20.72 5.55-30.71 14.7-45.56 55.71-77.96 103.26-81.6 1.59-.12 3.19-.28 4.78-.41 3.07.02 6.14.02 9.21.02z" fill="url(#a)"/><path d="m293.83 400.51c1.59.14 3.19.29 4.78.41 48.72 3.6 91.07 38.19 104.37 85.19 4.02 14.21 5.39 28.66 4.13 43.37-.06.72-.16 1.44-.25 2.23-1.05-.05-2.05-.11-3.06-.15-2.15-.07-4.3-.19-6.44-.19-53.67-.01-107.33-.01-161-.01-6.55 0-11.69-3.94-13.17-10.06-1.9-7.88 4.01-15.68 12.11-15.98.51-.02 1.02-.01 1.53-.01h141.38 1.72c-.45-2.34-.77-4.58-1.31-6.75-7.73-30.94-26.34-52.64-55.73-64.92-12.51-5.23-25.7-7.07-39.25-6.22-40.01 2.5-73.69 30.24-83.31 69.11-12.82 51.79 19.87 100.84 68.54 111.7 26.82 5.98 51.69.84 74.13-15.18 2.31-1.65 4.52-2.02 7.16-1.61 3.88.61 7.42 1.82 10.2 4.76 1.61 1.71 2.26 3.81 2.44 6.03.17 2.16.11 4.35.01 6.52-.05 1.04-.36 2.08-.66 3.09-.1.34-.49.61-.8.85-14.82 11.37-31.39 18.86-49.74 22.4-11.67 2.25-23.42 2.77-35.22 1.44-25.62-2.89-48.05-12.96-67.05-30.38-19.35-17.74-31.51-39.62-36.41-65.42-1.01-5.33-1.29-10.79-1.9-16.19-.05-.43-.12-.85-.18-1.28 0-2.92 0-5.85 0-8.77.06-.43.16-.85.18-1.28.46-10.49 2.33-20.72 5.55-30.71 14.7-45.56 55.71-77.96 103.26-81.6 1.59-.12 3.19-.28 4.78-.41 3.07.02 6.14.02 9.21.02z" fill="url(#b)"/><path d="m293.83 400.51c1.59.14 3.19.29 4.78.41 48.72 3.6 91.07 38.19 104.37 85.19 4.02 14.21 5.39 28.66 4.13 43.37-.06.72-.16 1.44-.25 2.23-1.05-.05-2.05-.11-3.06-.15-2.15-.07-4.3-.19-6.44-.19-53.67-.01-107.33-.01-161-.01-6.55 0-11.69-3.94-13.17-10.06-1.9-7.88 4.01-15.68 12.11-15.98.51-.02 1.02-.01 1.53-.01h141.38 1.72c-.45-2.34-.77-4.58-1.31-6.75-7.73-30.94-26.34-52.64-55.73-64.92-12.51-5.23-25.7-7.07-39.25-6.22-40.01 2.5-73.69 30.24-83.31 69.11-12.82 51.79 19.87 100.84 68.54 111.7 26.82 5.98 51.69.84 74.13-15.18 2.31-1.65 4.52-2.02 7.16-1.61 3.88.61 7.42 1.82 10.2 4.76 1.61 1.71 2.26 3.81 2.44 6.03.17 2.16.11 4.35.01 6.52-.05 1.04-.36 2.08-.66 3.09-.1.34-.49.61-.8.85-14.82 11.37-31.39 18.86-49.74 22.4-11.67 2.25-23.42 2.77-35.22 1.44-25.62-2.89-48.05-12.96-67.05-30.38-19.35-17.74-31.51-39.62-36.41-65.42-1.01-5.33-1.29-10.79-1.9-16.19-.05-.43-.12-.85-.18-1.28 0-2.92 0-5.85 0-8.77.06-.43.16-.85.18-1.28.46-10.49 2.33-20.72 5.55-30.71 14.7-45.56 55.71-77.96 103.26-81.6 1.59-.12 3.19-.28 4.78-.41 3.07.02 6.14.02 9.21.02z" fill="none" stroke="url(#c)"/><g fill="#c2c1c0"><path d="m461.84 400.96h130.06v26.16h-98.89v80.26h91.36v25.8h-91.36v109.28h-31.17z"/><path d="m636.32 400.96h130.06v26.16h-98.89v80.26h91.36v25.8h-91.36v109.28h-31.17z"/><path d="m935.85 529.23h-93.87v87.06h104.62v26.16h-135.8v-241.49h130.42v26.16h-99.25v76.32h93.87v25.79z"/><path d="m987.08 400.96h31.17v116.44h1.07c6.45-9.32 12.9-17.91 18.99-25.8l73.81-90.65h38.7l-87.42 102.47 94.23 139.02h-36.9l-79.54-118.59-22.93 26.51v92.08h-31.17v-241.48z"/><path d="m1234.65 427.48h-73.45v-26.51h178.79v26.51h-73.81v214.98h-31.53z"/><path d="m1398.02 400.96v241.49h-31.17v-241.49z"/><path d="m1658.86 519.2c0 83.12-50.52 127.19-112.15 127.19-63.78 0-108.56-49.44-108.56-122.54 0-76.67 47.65-126.83 112.15-126.83 65.92 0 108.56 50.52 108.56 122.18zm-187.39 3.94c0 51.59 27.95 97.81 77.03 97.81 49.44 0 77.39-45.5 77.39-100.32 0-48.01-25.08-98.17-77.03-98.17-51.59 0-77.39 47.65-77.39 100.68z"/></g></svg>