<svg fill="none" height="24" viewBox="0 0 24 24" width="24" xmlns="http://www.w3.org/2000/svg"><g stroke="#fff" stroke-linecap="round" stroke-linejoin="round" stroke-width="1.5"><path d="m22 9.52v-4.54c0-1.41-.64-1.98-2.23-1.98h-4.04c-1.59 0-2.23.57-2.23 1.98v4.53c0 1.42.64 1.98 2.23 1.98h4.04c1.59.01 2.23-.56 2.23-1.97z"/><path d="m22 20.77v-4.04c0-1.59-.64-2.23-2.23-2.23h-4.04c-1.59 0-2.23.64-2.23 2.23v4.04c0 1.59.64 2.23 2.23 2.23h4.04c1.59 0 2.23-.64 2.23-2.23z"/><path d="m10.5 9.52v-4.54c0-1.41-.64-1.98-2.23-1.98h-4.04c-1.59 0-2.23.57-2.23 1.98v4.53c0 1.42.64 1.98 2.23 1.98h4.04c1.59.01 2.23-.56 2.23-1.97z"/><path d="m10.5 20.77v-4.04c0-1.59-.64-2.23-2.23-2.23h-4.04c-1.59 0-2.23.64-2.23 2.23v4.04c0 1.59.64 2.23 2.23 2.23h4.04c1.59 0 2.23-.64 2.23-2.23z"/></g></svg>