<svg width="22" height="22" viewBox="0 0 22 22" fill="none" xmlns="http://www.w3.org/2000/svg">
<path d="M11 14.2085C13.0258 14.2085 14.6666 12.5677 14.6666 10.5418V5.50016C14.6666 3.47433 13.0258 1.8335 11 1.8335C8.97415 1.8335 7.33331 3.47433 7.33331 5.50016V10.5418C7.33331 12.5677 8.97415 14.2085 11 14.2085Z" stroke="#FEFEFE" stroke-width="1.5" stroke-linecap="round" stroke-linejoin="round"/>
<path d="M3.98749 8.8457V10.404C3.98749 14.2724 7.13165 17.4165 11 17.4165C14.8683 17.4165 18.0125 14.2724 18.0125 10.404V8.8457" stroke="#FEFEFE" stroke-width="1.5" stroke-linecap="round" stroke-linejoin="round"/>
<path d="M9.72583 5.89436C10.5508 5.59186 11.4492 5.59186 12.2742 5.89436" stroke="#FEFEFE" stroke-width="1.5" stroke-linecap="round" stroke-linejoin="round"/>
<path d="M10.2667 7.83746C10.7525 7.70913 11.2567 7.70913 11.7425 7.83746" stroke="#FEFEFE" stroke-width="1.5" stroke-linecap="round" stroke-linejoin="round"/>
<path d="M11 17.4165V20.1665" stroke="#FEFEFE" stroke-width="1.5" stroke-linecap="round" stroke-linejoin="round"/>
</svg>
