<svg fill="none" height="25" viewBox="0 0 25 25" width="25" xmlns="http://www.w3.org/2000/svg"><g fill="#ec2758"><path d="m21.7708 10.2604.6145 10.3021c.0209.2813-.1145.4688-.1875.5521-.0833.0937-.2604.2396-.552.2396h-2.8438l2.25-11.0938zm1.1458-4.0104-.0104.02083c.0208.25 0 .51042-.0625.77084l-7.6771 14.09373c-.25 1.0521-1.1875 1.7813-2.2708 1.7813h8.75c1.3437 0 2.4062-1.1354 2.302-2.4792z"/><path d="m11.9272 2.33333c.1041-.41666-.1563-.84375-.573-.94791-.4166-.09375-.8437.15625-.9479.57291l-.5208 2.15625h1.6042z"/><path d="m18.802 2.30208c.0938-.42708-.1771-.83333-.6042-.92708-.4166-.09375-.8333.17708-.927.60417l-.4688 2.15625h1.6042z"/><path d="m22.7292 5.55208c-.3437-.83333-1.1562-1.42708-2.1562-1.42708h-2.1667l-.5833 2.69792c-.0833.36458-.4063.61458-.7604.61458-.0521 0-.1146 0-.1667-.02083-.4167-.09375-.6875-.51042-.6042-.92709l.5105-2.375h-5.3125l-.6563 2.70834c-.0833.35416-.4062.59375-.7604.59375-.0625 0-.12501-.01042-.18751-.02084-.41667-.10416-.67709-.52083-.57292-.94791l.5625-2.34375h-2.11458c-1.02084 0-1.92709.66666-2.22917 1.64583l-4.38542 14.1146c-.45833 1.5104.65625 3.0521 2.22917 3.0521h13.68753c1.0833 0 2.0208-.7292 2.2708-1.7813l3.5104-14.09373c.0625-.26042.0834-.52084.0625-.77084-.0208-.25-.0729-.5-.1771-.71875zm-7.4166 11.89582h-8.33336c-.42709 0-.78125-.3541-.78125-.7812s.35416-.7813.78125-.7813h8.33336c.4271 0 .7812.3542.7812.7813s-.3541.7812-.7812.7812zm1.0416-4.1666h-8.3333c-.42708 0-.78125-.3542-.78125-.7813s.35417-.7812.78125-.7812h8.3333c.4271 0 .7813.3541.7813.7812s-.3542.7813-.7813.7813z"/></g></svg>