<svg fill="none" height="24" viewBox="0 0 24 24" width="24" xmlns="http://www.w3.org/2000/svg"><g stroke="#fff" stroke-miterlimit="10" stroke-width="1.5"><path d="m21.9299 6.76001-3.37 13.52999c-.24 1.01-1.14 1.71-2.18 1.71h-13.14001c-1.51 0-2.589989-1.4801-2.13999-2.9301l4.20999-13.51985c.29-.94 1.16002-1.59009 2.14002-1.59009h12.29999c.95 0 1.74.58001 2.07 1.38001.19.43.23.92004.11 1.42004z"/><g stroke-linecap="round" stroke-linejoin="round"><path d="m16 22h4.78c1.29 0 2.3-1.09 2.21-2.38l-.99-13.62"/><path d="m9.67993 6.38 1.03997-4.31994"/><path d="m16.3799 6.39001.94-4.33996"/><path d="m7.69995 12h8.00005"/><path d="m6.69995 16h8.00005"/></g></g></svg>