<svg fill="none" height="24" viewBox="0 0 24 24" width="24" xmlns="http://www.w3.org/2000/svg"><g fill="#ec2758"><path d="m20.19 14.06-1.13-1.88c-.25-.41-.47-1.2-.47-1.68v-1.87c0-3.63-2.95-6.58-6.57-6.58-3.63004.01-6.58004 2.95-6.58004 6.58v1.86c0 .48-.22 1.27-.46 1.68l-1.13 1.88c-.43.73-.53 1.56-.26 2.28.27.73.88 1.31 1.68 1.57 1.08.36 2.17.62 3.28.81.11.02.22.03.33.05.14.02.29.04.44.06.26.04.52.07.79004.09.63.06 1.27.09 1.91.09.63 0 1.26-.03 1.88-.09.23-.02.46-.04.68-.07.18-.02.36-.04.54-.07.11-.01.22-.03.33-.05 1.12-.18 2.23-.46 3.31-.82.77-.26 1.36-.84 1.64-1.58.28-.75.2-1.57-.21-2.26zm-7.44-4.06c0 .42-.34.76-.76.76s-.76-.34-.76-.76v-3.1c0-.42.34-.76.76-.76s.76.34.76.76z"/><path d="m14.8301 20.01c-.42 1.16-1.53 1.99-2.83 1.99-.79 0-1.57-.32-2.12005-.89-.32-.3-.56-.7-.7-1.11.13.02.26.03.4.05.23.03.47005.06.71005.08.57.05 1.15.08 1.73.08.57 0 1.14-.03 1.7-.08.21-.02.42-.03.62-.06.16-.02.32-.04.49-.06z"/></g></svg>