<svg fill="none" height="24" viewBox="0 0 24 24" width="24" xmlns="http://www.w3.org/2000/svg"><g stroke="#fff" stroke-miterlimit="10" stroke-width="1.5"><path d="m12 6.44v3.33" stroke-linecap="round"/><path d="m12.02 2c-3.67998 0-6.65998 2.98-6.65998 6.66v2.1c0 .68-.28 1.7-.63 2.28l-1.27 2.12c-.78 1.31-.24 2.77 1.2 3.25 4.78 1.59 9.94998 1.59 14.72998 0 1.35-.45 1.93-2.03 1.2-3.25l-1.27-2.12c-.35-.58-.63-1.61-.63-2.28v-2.1c-.01-3.66-3.01-6.66-6.67-6.66z" stroke-linecap="round"/><path d="m15.33 18.82c0 1.83-1.5 3.33-3.33 3.33-.91 0-1.75-.38-2.34996-.98-.6-.6-.98-1.44-.98-2.35"/></g></svg>