<svg fill="none" height="25" viewBox="0 0 24 25" width="24" xmlns="http://www.w3.org/2000/svg"><g stroke="#292d32" stroke-linecap="round" stroke-linejoin="round" stroke-width="1.5"><path d="m18 7.18735c-.06-.01-.13-.01-.19 0-1.38-.05-2.48-1.18-2.48-2.58 0-1.43 1.15-2.58001 2.58-2.58001s2.58 1.16001 2.58 2.58001c-.01 1.4-1.11 2.53-2.49 2.58z"/><path d="m16.9699 14.4675c1.37.23 2.88-.01 3.94-.72 1.41-.94 1.41-2.48 0-3.42-1.07-.70999-2.6-.95-3.97-.71"/><path d="m5.96998 7.18735c.06-.01.13-.01.19 0 1.38-.05 2.48-1.18 2.48-2.58 0-1.43-1.15-2.58001-2.58-2.58001s-2.58 1.16001-2.58 2.58001c.01 1.4 1.11 2.53 2.49 2.58z"/><path d="m6.99994 14.4675c-1.37.23-2.88-.01-3.94-.72-1.41-.94-1.41-2.48 0-3.42 1.07-.70999 2.6-.95 3.97-.71"/><path d="m12 14.6571c-.06-.01-.13-.01-.19 0-1.38-.05-2.48004-1.18-2.48004-2.58 0-1.43 1.15004-2.58003 2.58004-2.58003s2.58 1.16003 2.58 2.58003c-.01 1.4-1.11 2.54-2.49 2.58z"/><path d="m9.08997 17.8067c-1.41.94-1.41 2.48 0 3.42 1.60003 1.07 4.22003 1.07 5.82003 0 1.41-.94 1.41-2.48 0-3.42-1.59-1.06-4.22-1.06-5.82003 0z"/></g></svg>