<svg fill="none" height="21" viewBox="0 0 21 21" width="21" xmlns="http://www.w3.org/2000/svg"><g stroke="#fff" stroke-linecap="round" stroke-linejoin="round" stroke-width="1.5"><path d="m7.62501 18.6389h5.08329c4.2362 0 5.9306-1.6945 5.9306-5.9306v-5.0833c0-4.23611-1.6944-5.93056-5.9306-5.93056h-5.08329c-4.23611 0-5.93055 1.69445-5.93055 5.93056v5.0833c0 4.2361 1.69444 5.9306 5.93055 5.9306z"/><path d="m13.1319 15.6736c.932 0 1.6945-.7625 1.6945-1.6944v-7.62503c0-.93194-.7625-1.69444-1.6945-1.69444-.9319 0-1.6944.7625-1.6944 1.69444v7.62503c0 .9319.754 1.6944 1.6944 1.6944z"/><path d="m7.2014 15.6736c.93195 0 1.69445-.7625 1.69445-1.6944v-2.9653c0-.932-.7625-1.69446-1.69445-1.69446-.93194 0-1.69444.76246-1.69444 1.69446v2.9653c0 .9319.75403 1.6944 1.69444 1.6944z"/></g></svg>