<svg width="23" height="23" viewBox="0 0 23 23" fill="none" xmlns="http://www.w3.org/2000/svg">
<path d="M7.54021 13.7871L13.1307 8.19662C13.8322 7.49512 14.8427 7.3679 15.5449 8.0694C16.2464 8.7709 16.1199 9.78218 15.4177 10.4837L9.57284 16.3286C8.55653 17.3449 6.52318 17.3449 5.25315 16.0741C3.9824 14.8034 3.9824 12.7707 4.99871 11.7544L10.8436 5.90955C11.7224 5.04671 12.9065 4.5658 14.1381 4.57146C15.3697 4.57712 16.5492 5.06888 17.4201 5.93977C18.291 6.81066 18.7828 7.99021 18.7884 9.22182C18.7941 10.4534 18.3132 11.6374 17.4503 12.5163L14.147 15.8197" stroke="#C4C4C4" stroke-width="1.5" stroke-linecap="round" stroke-linejoin="round"/>
</svg>
