<svg height="35" viewBox="0 0 35 35" width="35" xmlns="http://www.w3.org/2000/svg"><path d="m19.564 29.894a3.21 3.21 0 0 1 -1.355-.3 3.16 3.16 0 0 1 -1.843-2.894l-.024-3.187c-4.27-.575-7.937.03-10.651 1.755a3.186 3.186 0 0 1 -4.808-3.385c1.626-7.269 6.162-11.609 12.133-11.609a14.144 14.144 0 0 1 3.35.4v-2.374a3.189 3.189 0 0 1 5.242-2.441l10.934 9.2a3.187 3.187 0 0 1 0 4.879l-10.934 9.2a3.167 3.167 0 0 1 -2.044.756zm-6.239-9.094a26.184 26.184 0 0 1 4.459.4 1.25 1.25 0 0 1 1.037 1.207l.045 4.288a.67.67 0 0 0 .4.624.663.663 0 0 0 .734-.1l10.935-9.2a.689.689 0 0 0 0-1.054l-10.935-9.194a.69.69 0 0 0 -1.132.528v4.071a1.249 1.249 0 0 1 -1.694 1.168 11.64 11.64 0 0 0 -4.156-.764c-6.8 0-9.044 6.752-9.694 9.656a.664.664 0 0 0 .28.707.65.65 0 0 0 .747.023 16.427 16.427 0 0 1 8.974-2.36z"/></svg>