<svg fill="none" height="8" viewBox="0 0 14 8" width="14" xmlns="http://www.w3.org/2000/svg"><path d="m7.97632.970043c.14381-.134111.33519-.208253.53374-.206781.19856.001471.38877.078441.53049.214669.14172.136229.22388.321059.22912.515489.00525.19443-.06681.38325-.20099.52662l-4.07337 4.99c-.07005.0739-.15458.13321-.24856.17437-.09397.04116-.19546.06334-.29839.06521-.10292.00187-.20518-.01662-.30064-.05434-.09547-.03773-.18219-.09393-.25498-.16524l-2.70129-2.646c-.07523-.06866-.13556-.15146-.17741-.24346-.041851-.092-.064353-.19131-.066167-.29201-.001814-.10071.017098-.20074.055607-.29412.03851-.09339.09583-.17823.16853-.24945.07271-.07121.15932-.12736.25466-.16508s.19746-.05625.30026-.05447c.10281.00178.2042.02382.29812.06481s.17845.1001.24855.17378l2.13775 2.093 3.54455-4.424997c.00636-.00772.01318-.015067.02042-.022zm-.93922 5.139997.93922.92c.07277.07115.15943.12722.2548.16486.09537.03763.19751.05607.30031.0542s.20417-.02399.29805-.06507c.09388-.04107.17836-.10024.24839-.17399l4.07543-4.99c.0732-.0708.1311-.15532.1702-.24852s.0587-.19317.0575-.29394c-.0012-.10076-.0231-.20026-.0645-.29254-.0413-.09228-.1012-.17546-.1761-.244568-.0748-.069107-.1632-.122725-.2597-.157653s-.1992-.050448-.3019-.045635c-.1028.004814-.2035.029863-.2962.073651-.0926.043788-.1753.105418-.2431.181208l-3.54558 4.424997-.49514-.486-.9627 1.179z" fill="#23afc2"/></svg>