<svg fill="none" height="8" viewBox="0 0 13 8" width="13" xmlns="http://www.w3.org/2000/svg"><path d="m7.46094.970043c.14381-.134111.33519-.208253.53374-.206781.19856.001471.38877.078441.53049.214669.14172.136229.22388.321059.22912.515489.00525.19443-.06681.38325-.20099.52662l-4.07337 4.99c-.07005.0739-.15458.13321-.24856.17437s-.19546.06334-.29839.06521c-.10292.00187-.20518-.01662-.30065-.05434-.09546-.03773-.18218-.09393-.25497-.16524l-2.701291-2.646c-.075226-.06866-.135564-.15146-.177412-.24346-.041849-.092-.064351-.19131-.066165-.29201-.001814-.10071.017098-.20074.055607-.29412.038509-.09339.095827-.17823.168534-.24945.072707-.07121.159313-.12736.254653-.16508.095344-.03772.197454-.05625.300264-.05447s.2042.02382.29812.06481.17845.1001.24855.17378l2.13775 2.093 3.54455-4.424997c.00636-.00772.01318-.015067.02042-.022zm-.93922 5.139997.93922.92c.07277.07115.15943.12722.2548.16486.09537.03763.1975.05607.30031.0542.1028-.00187.20417-.02399.29805-.06507.09388-.04107.17836-.10024.24839-.17399l4.07541-4.99c.0732-.0708.1311-.15532.1702-.24852s.0587-.19317.0575-.29394c-.0012-.10076-.0231-.20026-.0645-.29254-.0413-.09228-.1012-.17546-.176-.244568-.0749-.069107-.1632-.122725-.2597-.157653s-.1992-.050448-.302-.045635c-.1028.004814-.2035.029863-.2961.073651-.0927.043788-.1754.105418-.2432.181208l-3.54557 4.424997-.49513-.486-.9627 1.179z" fill="#898a8d"/></svg>