<svg fill="none" height="21" viewBox="0 0 21 21" width="21" xmlns="http://www.w3.org/2000/svg"><g stroke="#fff" stroke-linecap="round" stroke-linejoin="round" stroke-width="1.5"><path d="m9.31946 13.6826v2.2875c0 1.9063-.7625 2.6688-2.66875 2.6688h-2.2875c-1.90625 0-2.66875-.7625-2.66875-2.6688v-2.2875c0-1.9062.7625-2.6687 2.66875-2.6687h2.2875c1.90625 0 2.66875.7625 2.66875 2.6687z"/><path d="m18.6389 12.7083c0 3.2788-2.6518 5.9306-5.9305 5.9306l.8896-1.4827"/><path d="m1.69446 7.62501c0-3.27875 2.6518-5.93055 5.93055-5.93055l-.88958 1.48264"/><path d="m14.8264 9.31946c2.1056 0 3.8125-1.70692 3.8125-3.8125 0-2.10559-1.7069-3.8125-3.8125-3.8125s-3.8125 1.70691-3.8125 3.8125c0 2.10558 1.7069 3.8125 3.8125 3.8125z"/></g></svg>