<svg width="20" height="20" viewBox="0 0 20 20" fill="none" xmlns="http://www.w3.org/2000/svg">
<path d="M14.7917 2.5C15.51 2.5 16.1988 2.78534 16.7067 3.29325C17.2147 3.80116 17.5 4.49004 17.5 5.20833V14.7917C17.5 15.51 17.2147 16.1988 16.7067 16.7067C16.1988 17.2147 15.51 17.5 14.7917 17.5H5.20833C4.49004 17.5 3.80116 17.2147 3.29325 16.7067C2.78534 16.1988 2.5 15.51 2.5 14.7917V5.20833C2.5 4.49004 2.78534 3.80116 3.29325 3.29325C3.80116 2.78534 4.49004 2.5 5.20833 2.5H14.7917ZM14.7917 3.75H5.20833C4.82156 3.75 4.45063 3.90365 4.17714 4.17714C3.90365 4.45063 3.75 4.82156 3.75 5.20833V14.7917C3.75 15.5967 4.40333 16.25 5.20833 16.25H14.7917C15.1784 16.25 15.5494 16.0964 15.8229 15.8229C16.0964 15.5494 16.25 15.1784 16.25 14.7917V5.20833C16.25 4.82156 16.0964 4.45063 15.8229 4.17714C15.5494 3.90365 15.1784 3.75 14.7917 3.75ZM13.5417 9.16667C13.7074 9.16667 13.8664 9.23251 13.9836 9.34973C14.1008 9.46694 14.1667 9.62591 14.1667 9.79167V13.5417C14.1667 13.7074 14.1008 13.8664 13.9836 13.9836C13.8664 14.1008 13.7074 14.1667 13.5417 14.1667H6.45833C6.29257 14.1667 6.1336 14.1008 6.01639 13.9836C5.89918 13.8664 5.83333 13.7074 5.83333 13.5417V9.79167C5.83333 9.62591 5.89918 9.46694 6.01639 9.34973C6.1336 9.23251 6.29257 9.16667 6.45833 9.16667H13.5417ZM12.9167 10.4167H7.08333V12.9167H12.9167V10.4167ZM6.45833 6.04167H13.5417C13.7 6.04172 13.8525 6.10187 13.9682 6.20998C14.0839 6.31808 14.1542 6.46608 14.165 6.62407C14.1758 6.78205 14.1262 6.93824 14.0263 7.06108C13.9264 7.18392 13.7835 7.26425 13.6267 7.28583L13.5417 7.29167H6.45833C6.29998 7.29162 6.14755 7.23146 6.03184 7.12336C5.91613 7.01525 5.84577 6.86725 5.83498 6.70927C5.82419 6.55128 5.87376 6.39509 5.97369 6.27225C6.07362 6.14941 6.21646 6.06908 6.37333 6.0475L6.45833 6.04167H13.5417H6.45833Z" fill="#FCE5E5"/>
</svg>
