<svg width="20" height="20" viewBox="0 0 20 20" fill="none" xmlns="http://www.w3.org/2000/svg">
<path d="M14.1913 9.19166C14.2527 9.13445 14.302 9.06545 14.3362 8.98878C14.3703 8.91211 14.3887 8.82935 14.3902 8.74543C14.3916 8.66151 14.3762 8.57816 14.3448 8.50033C14.3133 8.42251 14.2666 8.35182 14.2072 8.29247C14.1479 8.23312 14.0772 8.18633 13.9993 8.1549C13.9215 8.12346 13.8382 8.10802 13.7542 8.1095C13.6703 8.11099 13.5876 8.12935 13.5109 8.16351C13.4342 8.19767 13.3652 8.24693 13.308 8.30833L9.16634 12.45L7.52467 10.8083C7.40619 10.6979 7.24949 10.6378 7.08757 10.6407C6.92565 10.6435 6.77117 10.7091 6.65666 10.8236C6.54215 10.9382 6.47655 11.0926 6.4737 11.2546C6.47084 11.4165 6.53094 11.5732 6.64134 11.6917L8.72467 13.775C8.84186 13.892 9.00072 13.9578 9.16634 13.9578C9.33197 13.9578 9.49082 13.892 9.60801 13.775L14.1913 9.19166V9.19166ZM13.328 3.40333C13.2931 2.93127 13.0809 2.48988 12.7341 2.16776C12.3872 1.84565 11.9314 1.66664 11.458 1.66666H8.54134C8.08014 1.66668 7.63513 1.83667 7.29138 2.14414C6.94762 2.45161 6.72925 2.87499 6.67801 3.33333H5.20801C4.71073 3.33333 4.23381 3.53088 3.88218 3.88251C3.53055 4.23414 3.33301 4.71105 3.33301 5.20833V16.4583C3.33301 16.9556 3.53055 17.4325 3.88218 17.7842C4.23381 18.1358 4.71073 18.3333 5.20801 18.3333H14.7913C15.0376 18.3333 15.2814 18.2848 15.5089 18.1906C15.7364 18.0964 15.9431 17.9583 16.1172 17.7842C16.2913 17.61 16.4294 17.4033 16.5236 17.1759C16.6178 16.9484 16.6663 16.7046 16.6663 16.4583V5.20833C16.6663 4.9621 16.6178 4.71828 16.5236 4.4908C16.4294 4.26331 16.2913 4.05662 16.1172 3.88251C15.9431 3.7084 15.7364 3.57028 15.5089 3.47606C15.2814 3.38183 15.0376 3.33333 14.7913 3.33333H13.3213L13.328 3.40333V3.40333ZM13.328 3.41333L13.333 3.54166C13.333 3.49833 13.3313 3.45583 13.3288 3.41333H13.328ZM8.54134 5.41666H11.458C12.108 5.41666 12.6805 5.08583 13.0172 4.58333H14.7913C14.9571 4.58333 15.1161 4.64918 15.2333 4.76639C15.3505 4.8836 15.4163 5.04257 15.4163 5.20833V16.4583C15.4163 16.6241 15.3505 16.7831 15.2333 16.9003C15.1161 17.0175 14.9571 17.0833 14.7913 17.0833H5.20801C5.04225 17.0833 4.88328 17.0175 4.76607 16.9003C4.64886 16.7831 4.58301 16.6241 4.58301 16.4583V5.20833C4.58301 5.04257 4.64886 4.8836 4.76607 4.76639C4.88328 4.64918 5.04225 4.58333 5.20801 4.58333H6.98217C7.31884 5.08583 7.89134 5.41666 8.54134 5.41666ZM8.54134 2.91666H11.458C11.6238 2.91666 11.7827 2.98251 11.8999 3.09972C12.0172 3.21693 12.083 3.3759 12.083 3.54166C12.083 3.70742 12.0172 3.8664 11.8999 3.98361C11.7827 4.10082 11.6238 4.16666 11.458 4.16666H8.54134C8.37558 4.16666 8.21661 4.10082 8.0994 3.98361C7.98219 3.8664 7.91634 3.70742 7.91634 3.54166C7.91634 3.3759 7.98219 3.21693 8.0994 3.09972C8.21661 2.98251 8.37558 2.91666 8.54134 2.91666Z" fill="#EAD0FF"/>
</svg>
